NotoSansCham-SemiBold.ufo
<glyph name="quotedbl" format="2">
  <advance width="472"/>
  <unicode hex="0022"/>
  <outline>
    <contour>
      <point x="181" y="456" type="line"/>
      <point x="201" y="714" type="line"/>
      <point x="65" y="714" type="line"/>
      <point x="85" y="456" type="line"/>
    </contour>
    <contour>
      <point x="387" y="456" type="line"/>
      <point x="407" y="714" type="line"/>
      <point x="271" y="714" type="line"/>
      <point x="291" y="456" type="line"/>
    </contour>
  </outline>
</glyph>
<glyph name="comma" format="2">
  <advance width="285"/>
  <unicode hex="002C"/>
  <outline>
    <contour>
      <point x="224" y="105" type="curve"/>
      <point x="217" y="116" type="line"/>
      <point x="80" y="116" type="line"/>
      <point x="70" y="47"/>
      <point x="50" y="-50"/>
      <point x="31" y="-129" type="curve"/>
      <point x="138" y="-129" type="line"/>
      <point x="171" y="-56"/>
      <point x="206" y="34"/>
    </contour>
  </outline>
</glyph>
<glyph name="uni25CC" format="2">
  <advance width="594"/>
  <unicode hex="25CC"/>
  <outline>
    <contour>
      <point x="213" y="533" type="curve" smooth="yes"/>
      <point x="199" y="533"/>
      <point x="187" y="521"/>
      <point x="187" y="507" type="curve" smooth="yes"/>
      <point x="187" y="493"/>
      <point x="199" y="481"/>
      <point x="213" y="481" type="curve" smooth="yes"/>
      <point x="227" y="481"/>
      <point x="239" y="493"/>
      <point x="239" y="507" type="curve" smooth="yes"/>
      <point x="239" y="521"/>
      <point x="227" y="533"/>
    </contour>
    <contour>
      <point x="381" y="533" type="curve" smooth="yes"/>
      <point x="367" y="533"/>
      <point x="355" y="521"/>
      <point x="355" y="507" type="curve" smooth="yes"/>
      <point x="355" y="493"/>
      <point x="367" y="481"/>
      <point x="381" y="481" type="curve" smooth="yes"/>
      <point x="395" y="481"/>
      <point x="407" y="493"/>
      <point x="407" y="507" type="curve" smooth="yes"/>
      <point x="407" y="521"/>
      <point x="395" y="533"/>
    </contour>
    <contour>
      <point x="213" y="123" type="curve" smooth="yes"/>
      <point x="199" y="123"/>
      <point x="187" y="111"/>
      <point x="187" y="97" type="curve" smooth="yes"/>
      <point x="187" y="83"/>
      <point x="199" y="71"/>
      <point x="213" y="71" type="curve" smooth="yes"/>
      <point x="227" y="71"/>
      <point x="239" y="83"/>
      <point x="239" y="97" type="curve" smooth="yes"/>
      <point x="239" y="111"/>
      <point x="227" y="123"/>
    </contour>
    <contour>
      <point x="381" y="123" type="curve" smooth="yes"/>
      <point x="367" y="123"/>
      <point x="355" y="111"/>
      <point x="355" y="97" type="curve" smooth="yes"/>
      <point x="355" y="83"/>
      <point x="367" y="71"/>
      <point x="381" y="71" type="curve" smooth="yes"/>
      <point x="395" y="71"/>
      <point x="407" y="83"/>
      <point x="407" y="97" type="curve" smooth="yes"/>
      <point x="407" y="111"/>
      <point x="395" y="123"/>
    </contour>
    <contour>
      <point x="297" y="551" type="curve" smooth="yes"/>
      <point x="283" y="551"/>
      <point x="271" y="539"/>
      <point x="271" y="525" type="curve" smooth="yes"/>
      <point x="271" y="511"/>
      <point x="283" y="499"/>
      <point x="297" y="499" type="curve" smooth="yes"/>
      <point x="311" y="499"/>
      <point x="323" y="511"/>
      <point x="323" y="525" type="curve" smooth="yes"/>
      <point x="323" y="539"/>
      <point x="311" y="551"/>
    </contour>
    <contour>
      <point x="297" y="105" type="curve" smooth="yes"/>
      <point x="283" y="105"/>
      <point x="271" y="93"/>
      <point x="271" y="79" type="curve" smooth="yes"/>
      <point x="271" y="65"/>
      <point x="283" y="53"/>
      <point x="297" y="53" type="curve" smooth="yes"/>
      <point x="311" y="53"/>
      <point x="323" y="65"/>
      <point x="323" y="79" type="curve" smooth="yes"/>
      <point x="323" y="93"/>
      <point x="311" y="105"/>
    </contour>
    <contour>
      <point x="48" y="302" type="curve" smooth="yes"/>
      <point x="48" y="288"/>
      <point x="60" y="276"/>
      <point x="74" y="276" type="curve" smooth="yes"/>
      <point x="88" y="276"/>
      <point x="100" y="288"/>
      <point x="100" y="302" type="curve" smooth="yes"/>
      <point x="100" y="316"/>
      <point x="88" y="328"/>
      <point x="74" y="328" type="curve" smooth="yes"/>
      <point x="60" y="328"/>
      <point x="48" y="316"/>
    </contour>
    <contour>
      <point x="494" y="302" type="curve" smooth="yes"/>
      <point x="494" y="288"/>
      <point x="506" y="276"/>
      <point x="520" y="276" type="curve" smooth="yes"/>
      <point x="534" y="276"/>
      <point x="546" y="288"/>
      <point x="546" y="302" type="curve" smooth="yes"/>
      <point x="546" y="316"/>
      <point x="534" y="328"/>
      <point x="520" y="328" type="curve" smooth="yes"/>
      <point x="506" y="328"/>
      <point x="494" y="316"/>
    </contour>
    <contour>
      <point x="113" y="144" type="curve" smooth="yes"/>
      <point x="113" y="130"/>
      <point x="125" y="118"/>
      <point x="139" y="118" type="curve" smooth="yes"/>
      <point x="153" y="118"/>
      <point x="165" y="130"/>
      <point x="165" y="144" type="curve" smooth="yes"/>
      <point x="165" y="158"/>
      <point x="153" y="170"/>
      <point x="139" y="170" type="curve" smooth="yes"/>
      <point x="125" y="170"/>
      <point x="113" y="158"/>
    </contour>
    <contour>
      <point x="113" y="460" type="curve" smooth="yes"/>
      <point x="113" y="446"/>
      <point x="125" y="434"/>
      <point x="139" y="434" type="curve" smooth="yes"/>
      <point x="153" y="434"/>
      <point x="165" y="446"/>
      <point x="165" y="460" type="curve" smooth="yes"/>
      <point x="165" y="474"/>
      <point x="153" y="486"/>
      <point x="139" y="486" type="curve" smooth="yes"/>
      <point x="125" y="486"/>
      <point x="113" y="474"/>
    </contour>
    <contour>
      <point x="429" y="144" type="curve" smooth="yes"/>
      <point x="429" y="130"/>
      <point x="441" y="118"/>
      <point x="455" y="118" type="curve" smooth="yes"/>
      <point x="469" y="118"/>
      <point x="481" y="130"/>
      <point x="481" y="144" type="curve" smooth="yes"/>
      <point x="481" y="158"/>
      <point x="469" y="170"/>
      <point x="455" y="170" type="curve" smooth="yes"/>
      <point x="441" y="170"/>
      <point x="429" y="158"/>
    </contour>
    <contour>
      <point x="429" y="460" type="curve" smooth="yes"/>
      <point x="429" y="446"/>
      <point x="441" y="434"/>
      <point x="455" y="434" type="curve" smooth="yes"/>
      <point x="469" y="434"/>
      <point x="481" y="446"/>
      <point x="481" y="460" type="curve" smooth="yes"/>
      <point x="481" y="474"/>
      <point x="469" y="486"/>
      <point x="455" y="486" type="curve" smooth="yes"/>
      <point x="441" y="486"/>
      <point x="429" y="474"/>
    </contour>
    <contour>
      <point x="66" y="218" type="curve" smooth="yes"/>
      <point x="66" y="204"/>
      <point x="78" y="192"/>
      <point x="92" y="192" type="curve" smooth="yes"/>
      <point x="106" y="192"/>
      <point x="118" y="204"/>
      <point x="118" y="218" type="curve" smooth="yes"/>
      <point x="118" y="232"/>
      <point x="106" y="244"/>
      <point x="92" y="244" type="curve" smooth="yes"/>
      <point x="78" y="244"/>
      <point x="66" y="232"/>
    </contour>
    <contour>
      <point x="66" y="386" type="curve" smooth="yes"/>
      <point x="66" y="372"/>
      <point x="78" y="360"/>
      <point x="92" y="360" type="curve" smooth="yes"/>
      <point x="106" y="360"/>
      <point x="118" y="372"/>
      <point x="118" y="386" type="curve" smooth="yes"/>
      <point x="118" y="400"/>
      <point x="106" y="412"/>
      <point x="92" y="412" type="curve" smooth="yes"/>
      <point x="78" y="412"/>
      <point x="66" y="400"/>
    </contour>
    <contour>
      <point x="476" y="218" type="curve" smooth="yes"/>
      <point x="476" y="204"/>
      <point x="488" y="192"/>
      <point x="502" y="192" type="curve" smooth="yes"/>
      <point x="516" y="192"/>
      <point x="528" y="204"/>
      <point x="528" y="218" type="curve" smooth="yes"/>
      <point x="528" y="232"/>
      <point x="516" y="244"/>
      <point x="502" y="244" type="curve" smooth="yes"/>
      <point x="488" y="244"/>
      <point x="476" y="232"/>
    </contour>
    <contour>
      <point x="476" y="386" type="curve" smooth="yes"/>
      <point x="476" y="372"/>
      <point x="488" y="360"/>
      <point x="502" y="360" type="curve" smooth="yes"/>
      <point x="516" y="360"/>
      <point x="528" y="372"/>
      <point x="528" y="386" type="curve" smooth="yes"/>
      <point x="528" y="400"/>
      <point x="516" y="412"/>
      <point x="502" y="412" type="curve" smooth="yes"/>
      <point x="488" y="412"/>
      <point x="476" y="400"/>
    </contour>
  </outline>
</glyph>
<glyph name="i_cham" format="2">
  <advance width="977"/>
  <unicode hex="AA01"/>
  <note>
uniAA01
</note>
  <outline>
    <contour>
      <point x="906" y="360" type="curve" smooth="yes"/>
      <point x="906" y="525"/>
      <point x="818" y="630"/>
      <point x="687" y="630" type="curve" smooth="yes"/>
      <point x="568" y="630"/>
      <point x="547" y="550"/>
      <point x="488" y="550" type="curve" smooth="yes"/>
      <point x="428" y="550"/>
      <point x="407" y="630"/>
      <point x="288" y="630" type="curve" smooth="yes"/>
      <point x="160" y="630"/>
      <point x="71" y="514"/>
      <point x="71" y="326" type="curve" smooth="yes"/>
      <point x="71" y="114"/>
      <point x="165" y="-16"/>
      <point x="322" y="-16" type="curve" smooth="yes"/>
      <point x="409" y="-16"/>
      <point x="461" y="34"/>
      <point x="461" y="105" type="curve" smooth="yes"/>
      <point x="461" y="177"/>
      <point x="407" y="223"/>
      <point x="332" y="223" type="curve" smooth="yes"/>
      <point x="249" y="223"/>
      <point x="191" y="160"/>
      <point x="179" y="67" type="curve"/>
      <point x="249" y="67" type="line"/>
      <point x="255" y="109"/>
      <point x="282" y="152"/>
      <point x="330" y="152" type="curve" smooth="yes"/>
      <point x="356" y="152"/>
      <point x="382" y="140"/>
      <point x="382" y="105" type="curve" smooth="yes"/>
      <point x="382" y="78"/>
      <point x="363" y="60"/>
      <point x="332" y="60" type="curve" smooth="yes"/>
      <point x="250" y="60"/>
      <point x="215" y="163"/>
      <point x="215" y="310" type="curve" smooth="yes"/>
      <point x="215" y="443"/>
      <point x="260" y="508"/>
      <point x="320" y="508" type="curve" smooth="yes"/>
      <point x="390" y="508"/>
      <point x="408" y="428"/>
      <point x="488" y="428" type="curve" smooth="yes"/>
      <point x="567" y="428"/>
      <point x="585" y="508"/>
      <point x="655" y="508" type="curve" smooth="yes"/>
      <point x="717" y="508"/>
      <point x="762" y="454"/>
      <point x="762" y="360" type="curve" smooth="yes"/>
      <point x="762" y="236"/>
      <point x="718" y="129"/>
      <point x="573" y="43" type="curve" smooth="yes"/>
      <point x="393" y="-64"/>
      <point x="370" y="-128"/>
      <point x="370" y="-194" type="curve" smooth="yes"/>
      <point x="370" y="-274"/>
      <point x="437" y="-328"/>
      <point x="514" y="-328" type="curve" smooth="yes"/>
      <point x="643" y="-328"/>
      <point x="668" y="-190"/>
      <point x="721" y="-190" type="curve" smooth="yes"/>
      <point x="739" y="-190"/>
      <point x="750" y="-200"/>
      <point x="750" y="-217" type="curve" smooth="yes"/>
      <point x="750" y="-228"/>
      <point x="746" y="-240"/>
      <point x="738" y="-251" type="curve"/>
      <point x="838" y="-295" type="line"/>
      <point x="860" y="-265"/>
      <point x="869" y="-224"/>
      <point x="869" y="-199" type="curve" smooth="yes"/>
      <point x="869" y="-135"/>
      <point x="816" y="-82"/>
      <point x="743" y="-82" type="curve" smooth="yes"/>
      <point x="625" y="-82"/>
      <point x="582" y="-219"/>
      <point x="530" y="-219" type="curve" smooth="yes"/>
      <point x="508" y="-219"/>
      <point x="493" y="-202"/>
      <point x="493" y="-180" type="curve" smooth="yes"/>
      <point x="493" y="-142"/>
      <point x="522" y="-116"/>
      <point x="663" y="-31" type="curve" smooth="yes"/>
      <point x="827" y="68"/>
      <point x="906" y="201"/>
    </contour>
  </outline>
</glyph>
<glyph name="u_cham" format="2">
  <advance width="644"/>
  <unicode hex="AA02"/>
  <note>
uniAA02
</note>
  <outline>
    <contour>
      <point x="598" y="414" type="curve" smooth="yes"/>
      <point x="598" y="542"/>
      <point x="489" y="630"/>
      <point x="320" y="630" type="curve" smooth="yes"/>
      <point x="154" y="630"/>
      <point x="42" y="540"/>
      <point x="42" y="403" type="curve" smooth="yes"/>
      <point x="42" y="364"/>
      <point x="58" y="310"/>
      <point x="88" y="265" type="curve"/>
      <point x="203" y="320" type="line"/>
      <point x="188" y="348"/>
      <point x="178" y="381"/>
      <point x="178" y="407" type="curve" smooth="yes"/>
      <point x="178" y="476"/>
      <point x="224" y="517"/>
      <point x="319" y="517" type="curve" smooth="yes"/>
      <point x="407" y="517"/>
      <point x="454" y="477"/>
      <point x="454" y="409" type="curve" smooth="yes"/>
      <point x="454" y="334"/>
      <point x="389" y="304"/>
      <point x="297" y="266" type="curve" smooth="yes"/>
      <point x="201" y="226"/>
      <point x="132" y="194"/>
      <point x="132" y="107" type="curve" smooth="yes"/>
      <point x="132" y="16"/>
      <point x="216" y="-24"/>
      <point x="335" y="-24" type="curve" smooth="yes"/>
      <point x="460" y="-24"/>
      <point x="531" y="41"/>
      <point x="531" y="138" type="curve"/>
      <point x="399" y="138" type="line"/>
      <point x="399" y="102"/>
      <point x="388" y="78"/>
      <point x="339" y="78" type="curve" smooth="yes"/>
      <point x="297" y="78"/>
      <point x="273" y="90"/>
      <point x="273" y="113" type="curve" smooth="yes"/>
      <point x="273" y="142"/>
      <point x="307" y="158"/>
      <point x="396" y="193" type="curve" smooth="yes"/>
      <point x="503" y="235"/>
      <point x="598" y="283"/>
    </contour>
  </outline>
</glyph>
<glyph name="e_cham" format="2">
  <advance width="1059"/>
  <unicode hex="AA03"/>
  <note>
uniAA03
</note>
  <outline>
    <contour>
      <point x="1013" y="708" type="curve" smooth="yes"/>
      <point x="1013" y="812"/>
      <point x="924" y="892"/>
      <point x="785" y="892" type="curve" smooth="yes"/>
      <point x="648" y="892"/>
      <point x="561" y="818"/>
      <point x="561" y="712" type="curve" smooth="yes"/>
      <point x="561" y="550"/>
      <point x="769" y="476"/>
      <point x="769" y="349" type="curve" smooth="yes"/>
      <point x="769" y="303"/>
      <point x="746" y="260"/>
      <point x="665" y="260" type="curve" smooth="yes"/>
      <point x="613" y="260"/>
      <point x="596" y="277"/>
      <point x="596" y="299" type="curve" smooth="yes"/>
      <point x="596" y="316"/>
      <point x="607" y="328"/>
      <point x="633" y="328" type="curve" smooth="yes"/>
      <point x="666" y="328"/>
      <point x="681" y="304"/>
      <point x="681" y="282" type="curve" smooth="yes"/>
      <point x="681" y="237"/>
      <point x="649" y="216"/>
      <point x="587" y="194" type="curve" smooth="yes"/>
      <point x="511" y="167"/>
      <point x="475" y="140"/>
      <point x="475" y="82" type="curve" smooth="yes"/>
      <point x="475" y="34"/>
      <point x="512" y="5"/>
      <point x="557" y="0" type="curve"/>
      <point x="521" y="80" type="line"/>
      <point x="518" y="80"/>
      <point x="513" y="80"/>
      <point x="511" y="80" type="curve"/>
      <point x="449" y="80"/>
      <point x="413" y="130"/>
      <point x="413" y="182" type="curve" smooth="yes"/>
      <point x="413" y="274"/>
      <point x="506" y="329"/>
      <point x="506" y="443" type="curve" smooth="yes"/>
      <point x="506" y="555"/>
      <point x="412" y="630"/>
      <point x="280" y="630" type="curve" smooth="yes"/>
      <point x="141" y="630"/>
      <point x="46" y="548"/>
      <point x="46" y="427" type="curve" smooth="yes"/>
      <point x="46" y="373"/>
      <point x="67" y="309"/>
      <point x="117" y="270" type="curve"/>
      <point x="222" y="350" type="line"/>
      <point x="204" y="367"/>
      <point x="187" y="399"/>
      <point x="187" y="432" type="curve" smooth="yes"/>
      <point x="187" y="483"/>
      <point x="222" y="517"/>
      <point x="276" y="517" type="curve" smooth="yes"/>
      <point x="330" y="517"/>
      <point x="362" y="480"/>
      <point x="362" y="431" type="curve" smooth="yes"/>
      <point x="362" y="349"/>
      <point x="269" y="291"/>
      <point x="269" y="184" type="curve" smooth="yes"/>
      <point x="269" y="66"/>
      <point x="371" y="-24"/>
      <point x="516" y="-24" type="curve" smooth="yes"/>
      <point x="542" y="-24"/>
      <point x="568" y="-24"/>
      <point x="585" y="-21" type="curve"/>
      <point x="616" y="51" type="line"/>
      <point x="593" y="66"/>
      <point x="583" y="76"/>
      <point x="583" y="89" type="curve" smooth="yes"/>
      <point x="583" y="105"/>
      <point x="593" y="114"/>
      <point x="655" y="136" type="curve" smooth="yes"/>
      <point x="724" y="161"/>
      <point x="770" y="198"/>
      <point x="770" y="277" type="curve" smooth="yes"/>
      <point x="770" y="344"/>
      <point x="713" y="392"/>
      <point x="637" y="392" type="curve" smooth="yes"/>
      <point x="564" y="392"/>
      <point x="521" y="351"/>
      <point x="521" y="299" type="curve" smooth="yes"/>
      <point x="521" y="240"/>
      <point x="581" y="193"/>
      <point x="684" y="193" type="curve" smooth="yes"/>
      <point x="796" y="193"/>
      <point x="886" y="260"/>
      <point x="886" y="369" type="curve" smooth="yes"/>
      <point x="886" y="529"/>
      <point x="703" y="601"/>
      <point x="703" y="704" type="curve" smooth="yes"/>
      <point x="703" y="749"/>
      <point x="736" y="779"/>
      <point x="789" y="779" type="curve" smooth="yes"/>
      <point x="839" y="779"/>
      <point x="875" y="753"/>
      <point x="875" y="706" type="curve" smooth="yes"/>
      <point x="875" y="682"/>
      <point x="864" y="664"/>
      <point x="851" y="651" type="curve"/>
      <point x="943" y="571" type="line"/>
      <point x="989" y="605"/>
      <point x="1013" y="656"/>
    </contour>
  </outline>
</glyph>
<glyph name="ai_cham" format="2">
  <advance width="977"/>
  <unicode hex="AA04"/>
  <outline>
    <contour>
      <point x="906" y="361" type="curve" smooth="yes"/>
      <point x="906" y="525"/>
      <point x="818" y="630"/>
      <point x="687" y="630" type="curve" smooth="yes"/>
      <point x="568" y="630"/>
      <point x="547" y="550"/>
      <point x="488" y="550" type="curve" smooth="yes"/>
      <point x="428" y="550"/>
      <point x="407" y="630"/>
      <point x="288" y="630" type="curve" smooth="yes"/>
      <point x="160" y="630"/>
      <point x="71" y="516"/>
      <point x="71" y="331" type="curve" smooth="yes"/>
      <point x="71" y="131"/>
      <point x="165" y="9"/>
      <point x="322" y="9" type="curve" smooth="yes"/>
      <point x="409" y="9"/>
      <point x="461" y="59"/>
      <point x="461" y="129" type="curve" smooth="yes"/>
      <point x="461" y="202"/>
      <point x="407" y="248"/>
      <point x="332" y="248" type="curve" smooth="yes"/>
      <point x="249" y="248"/>
      <point x="191" y="184"/>
      <point x="179" y="92" type="curve"/>
      <point x="249" y="92" type="line"/>
      <point x="255" y="134"/>
      <point x="282" y="177"/>
      <point x="330" y="177" type="curve" smooth="yes"/>
      <point x="356" y="177"/>
      <point x="382" y="165"/>
      <point x="382" y="130" type="curve" smooth="yes"/>
      <point x="382" y="103"/>
      <point x="363" y="85"/>
      <point x="332" y="85" type="curve" smooth="yes"/>
      <point x="250" y="85"/>
      <point x="215" y="188"/>
      <point x="215" y="315" type="curve" smooth="yes"/>
      <point x="215" y="445"/>
      <point x="260" y="508"/>
      <point x="320" y="508" type="curve" smooth="yes"/>
      <point x="390" y="508"/>
      <point x="408" y="428"/>
      <point x="488" y="428" type="curve" smooth="yes"/>
      <point x="567" y="428"/>
      <point x="585" y="508"/>
      <point x="655" y="508" type="curve" smooth="yes"/>
      <point x="717" y="508"/>
      <point x="762" y="454"/>
      <point x="762" y="360" type="curve" smooth="yes"/>
      <point x="762" y="178"/>
      <point x="688" y="90"/>
      <point x="492" y="0" type="curve" smooth="yes"/>
      <point x="391" y="-46"/>
      <point x="321" y="-105"/>
      <point x="321" y="-188" type="curve" smooth="yes"/>
      <point x="321" y="-284"/>
      <point x="405" y="-328"/>
      <point x="524" y="-328" type="curve" smooth="yes"/>
      <point x="649" y="-328"/>
      <point x="720" y="-263"/>
      <point x="720" y="-166" type="curve"/>
      <point x="587" y="-166" type="line"/>
      <point x="587" y="-202"/>
      <point x="576" y="-226"/>
      <point x="527" y="-226" type="curve" smooth="yes"/>
      <point x="485" y="-226"/>
      <point x="462" y="-212"/>
      <point x="462" y="-185" type="curve" smooth="yes"/>
      <point x="462" y="-157"/>
      <point x="482" y="-126"/>
      <point x="591" y="-77" type="curve" smooth="yes"/>
      <point x="808" y="20"/>
      <point x="906" y="146"/>
    </contour>
  </outline>
</glyph>
<glyph name="o_cham" format="2">
  <advance width="648"/>
  <unicode hex="AA05"/>
  <outline>
    <contour>
      <point x="587" y="417" type="curve" smooth="yes"/>
      <point x="587" y="549"/>
      <point x="478" y="630"/>
      <point x="316" y="630" type="curve" smooth="yes"/>
      <point x="154" y="630"/>
      <point x="51" y="545"/>
      <point x="51" y="406" type="curve" smooth="yes"/>
      <point x="51" y="292"/>
      <point x="128" y="220"/>
      <point x="226" y="220" type="curve" smooth="yes"/>
      <point x="293" y="220"/>
      <point x="334" y="257"/>
      <point x="334" y="312" type="curve" smooth="yes"/>
      <point x="334" y="365"/>
      <point x="296" y="399"/>
      <point x="243" y="399" type="curve" smooth="yes"/>
      <point x="188" y="399"/>
      <point x="147" y="364"/>
      <point x="130" y="313" type="curve"/>
      <point x="177" y="266" type="line"/>
      <point x="183" y="312"/>
      <point x="204" y="342"/>
      <point x="237" y="342" type="curve" smooth="yes"/>
      <point x="253" y="342"/>
      <point x="270" y="333"/>
      <point x="270" y="312" type="curve" smooth="yes"/>
      <point x="270" y="295"/>
      <point x="261" y="280"/>
      <point x="237" y="280" type="curve" smooth="yes"/>
      <point x="197" y="280"/>
      <point x="172" y="318"/>
      <point x="172" y="389" type="curve" smooth="yes"/>
      <point x="172" y="467"/>
      <point x="223" y="516"/>
      <point x="309" y="516" type="curve" smooth="yes"/>
      <point x="386" y="516"/>
      <point x="442" y="475"/>
      <point x="442" y="399" type="curve" smooth="yes"/>
      <point x="442" y="357"/>
      <point x="425" y="312"/>
      <point x="376" y="290" type="curve"/>
      <point x="376" y="231" type="line"/>
      <point x="434" y="210"/>
      <point x="467" y="173"/>
      <point x="467" y="128" type="curve" smooth="yes"/>
      <point x="467" y="73"/>
      <point x="426" y="43"/>
      <point x="365" y="43" type="curve" smooth="yes"/>
      <point x="297" y="43"/>
      <point x="274" y="58"/>
      <point x="274" y="80" type="curve" smooth="yes"/>
      <point x="274" y="97"/>
      <point x="287" y="107"/>
      <point x="309" y="107" type="curve" smooth="yes"/>
      <point x="341" y="107"/>
      <point x="360" y="86"/>
      <point x="360" y="51" type="curve" smooth="yes"/>
      <point x="360" y="36"/>
      <point x="357" y="19"/>
      <point x="352" y="3" type="curve"/>
      <point x="424" y="13" type="line"/>
      <point x="426" y="25"/>
      <point x="427" y="39"/>
      <point x="427" y="48" type="curve" smooth="yes"/>
      <point x="427" y="109"/>
      <point x="386" y="171"/>
      <point x="303" y="171" type="curve" smooth="yes"/>
      <point x="242" y="171"/>
      <point x="197" y="134"/>
      <point x="197" y="82" type="curve" smooth="yes"/>
      <point x="197" y="17"/>
      <point x="261" y="-25"/>
      <point x="377" y="-25" type="curve" smooth="yes"/>
      <point x="523" y="-25"/>
      <point x="583" y="50"/>
      <point x="583" y="131" type="curve" smooth="yes"/>
      <point x="583" y="187"/>
      <point x="553" y="249"/>
      <point x="448" y="283" type="curve"/>
      <point x="448" y="229" type="line"/>
      <point x="552" y="269"/>
      <point x="587" y="349"/>
    </contour>
  </outline>
</glyph>
<glyph name="ka_cham" format="2">
  <advance width="915"/>
  <unicode hex="AA06"/>
  <note>
uniAA06
</note>
  <outline>
    <contour>
      <point x="869" y="432" type="curve" smooth="yes"/>
      <point x="869" y="550"/>
      <point x="785" y="630"/>
      <point x="662" y="630" type="curve" smooth="yes"/>
      <point x="533" y="630"/>
      <point x="445" y="544"/>
      <point x="445" y="405" type="curve"/>
      <point x="532" y="405" type="line"/>
      <point x="532" y="544"/>
      <point x="440" y="630"/>
      <point x="312" y="630" type="curve" smooth="yes"/>
      <point x="191" y="630"/>
      <point x="108" y="551"/>
      <point x="108" y="442" type="curve" smooth="yes"/>
      <point x="108" y="344"/>
      <point x="170" y="265"/>
      <point x="170" y="194" type="curve" smooth="yes"/>
      <point x="170" y="121"/>
      <point x="121" y="79"/>
      <point x="45" y="63" type="curve"/>
      <point x="71" y="-56" type="line"/>
      <point x="223" y="-32"/>
      <point x="314" y="58"/>
      <point x="314" y="184" type="curve" smooth="yes"/>
      <point x="314" y="284"/>
      <point x="252" y="365"/>
      <point x="252" y="434" type="curve" smooth="yes"/>
      <point x="252" y="482"/>
      <point x="284" y="516"/>
      <point x="337" y="516" type="curve" smooth="yes"/>
      <point x="394" y="516"/>
      <point x="432" y="476"/>
      <point x="427" y="386" type="curve"/>
      <point x="550" y="386" type="line"/>
      <point x="545" y="478"/>
      <point x="587" y="516"/>
      <point x="643" y="516" type="curve" smooth="yes"/>
      <point x="695" y="516"/>
      <point x="728" y="484"/>
      <point x="728" y="433" type="curve" smooth="yes"/>
      <point x="728" y="400"/>
      <point x="716" y="373"/>
      <point x="692" y="349" type="curve"/>
      <point x="799" y="273" type="line"/>
      <point x="850" y="325"/>
      <point x="869" y="373"/>
    </contour>
  </outline>
</glyph>
<glyph name="kha_cham" format="2">
  <advance width="1398"/>
  <unicode hex="AA07"/>
  <note>
uniAA07
</note>
  <outline>
    <contour>
      <point x="1352" y="432" type="curve" smooth="yes"/>
      <point x="1352" y="550"/>
      <point x="1269" y="630"/>
      <point x="1142" y="630" type="curve" smooth="yes"/>
      <point x="1036" y="630"/>
      <point x="957" y="585"/>
      <point x="935" y="474" type="curve" smooth="yes"/>
      <point x="913" y="362"/>
      <point x="870" y="348"/>
      <point x="765" y="336" type="curve" smooth="yes"/>
      <point x="606" y="318"/>
      <point x="494" y="248"/>
      <point x="494" y="131" type="curve" smooth="yes"/>
      <point x="494" y="33"/>
      <point x="560" y="-24"/>
      <point x="657" y="-24" type="curve" smooth="yes"/>
      <point x="792" y="-24"/>
      <point x="885" y="105"/>
      <point x="885" y="319" type="curve" smooth="yes"/>
      <point x="885" y="519"/>
      <point x="801" y="630"/>
      <point x="661" y="630" type="curve" smooth="yes"/>
      <point x="535" y="630"/>
      <point x="446" y="544"/>
      <point x="446" y="404" type="curve"/>
      <point x="532" y="404" type="line"/>
      <point x="532" y="543"/>
      <point x="441" y="630"/>
      <point x="312" y="630" type="curve" smooth="yes"/>
      <point x="191" y="630"/>
      <point x="108" y="551"/>
      <point x="108" y="442" type="curve" smooth="yes"/>
      <point x="108" y="344"/>
      <point x="170" y="265"/>
      <point x="170" y="194" type="curve" smooth="yes"/>
      <point x="170" y="121"/>
      <point x="121" y="79"/>
      <point x="45" y="63" type="curve"/>
      <point x="71" y="-56" type="line"/>
      <point x="223" y="-32"/>
      <point x="315" y="58"/>
      <point x="315" y="184" type="curve" smooth="yes"/>
      <point x="315" y="284"/>
      <point x="253" y="365"/>
      <point x="253" y="434" type="curve" smooth="yes"/>
      <point x="253" y="482"/>
      <point x="284" y="516"/>
      <point x="337" y="516" type="curve" smooth="yes"/>
      <point x="394" y="516"/>
      <point x="433" y="476"/>
      <point x="428" y="386" type="curve"/>
      <point x="550" y="386" type="line"/>
      <point x="546" y="480"/>
      <point x="591" y="516"/>
      <point x="643" y="516" type="curve" smooth="yes"/>
      <point x="709" y="516"/>
      <point x="744" y="452"/>
      <point x="744" y="321" type="curve" smooth="yes"/>
      <point x="744" y="167"/>
      <point x="707" y="86"/>
      <point x="659" y="86" type="curve" smooth="yes"/>
      <point x="633" y="86"/>
      <point x="620" y="107"/>
      <point x="620" y="136" type="curve" smooth="yes"/>
      <point x="620" y="182"/>
      <point x="658" y="228"/>
      <point x="825" y="255" type="curve" smooth="yes"/>
      <point x="966" y="278"/>
      <point x="1018" y="309"/>
      <point x="1037" y="416" type="curve" smooth="yes"/>
      <point x="1049" y="482"/>
      <point x="1075" y="516"/>
      <point x="1128" y="516" type="curve" smooth="yes"/>
      <point x="1179" y="516"/>
      <point x="1211" y="484"/>
      <point x="1211" y="433" type="curve" smooth="yes"/>
      <point x="1211" y="400"/>
      <point x="1200" y="373"/>
      <point x="1175" y="349" type="curve"/>
      <point x="1283" y="273" type="line"/>
      <point x="1334" y="325"/>
      <point x="1352" y="373"/>
    </contour>
  </outline>
</glyph>
<glyph name="ga_cham" format="2">
  <advance width="919"/>
  <unicode hex="AA08"/>
  <note>
uniAA08
</note>
  <outline>
    <contour>
      <point x="873" y="432" type="curve" smooth="yes"/>
      <point x="873" y="550"/>
      <point x="789" y="630"/>
      <point x="665" y="630" type="curve" smooth="yes"/>
      <point x="533" y="630"/>
      <point x="445" y="542"/>
      <point x="446" y="403" type="curve"/>
      <point x="532" y="403" type="line"/>
      <point x="532" y="542"/>
      <point x="449" y="630"/>
      <point x="321" y="630" type="curve" smooth="yes"/>
      <point x="167" y="630"/>
      <point x="71" y="512"/>
      <point x="71" y="321" type="curve" smooth="yes"/>
      <point x="71" y="106"/>
      <point x="194" y="-25"/>
      <point x="362" y="-25" type="curve" smooth="yes"/>
      <point x="452" y="-25"/>
      <point x="504" y="25"/>
      <point x="504" y="95" type="curve" smooth="yes"/>
      <point x="504" y="168"/>
      <point x="450" y="214"/>
      <point x="374" y="214" type="curve" smooth="yes"/>
      <point x="291" y="214"/>
      <point x="233" y="150"/>
      <point x="222" y="58" type="curve"/>
      <point x="292" y="58" type="line"/>
      <point x="298" y="100"/>
      <point x="324" y="143"/>
      <point x="373" y="143" type="curve" smooth="yes"/>
      <point x="399" y="143"/>
      <point x="424" y="131"/>
      <point x="424" y="96" type="curve" smooth="yes"/>
      <point x="424" y="69"/>
      <point x="406" y="51"/>
      <point x="375" y="51" type="curve" smooth="yes"/>
      <point x="286" y="51"/>
      <point x="215" y="140"/>
      <point x="215" y="323" type="curve" smooth="yes"/>
      <point x="215" y="446"/>
      <point x="262" y="516"/>
      <point x="335" y="516" type="curve" smooth="yes"/>
      <point x="393" y="516"/>
      <point x="433" y="474"/>
      <point x="428" y="386" type="curve"/>
      <point x="550" y="386" type="line"/>
      <point x="546" y="476"/>
      <point x="587" y="516"/>
      <point x="646" y="516" type="curve" smooth="yes"/>
      <point x="698" y="516"/>
      <point x="733" y="484"/>
      <point x="733" y="433" type="curve" smooth="yes"/>
      <point x="733" y="398"/>
      <point x="721" y="372"/>
      <point x="697" y="346" type="curve"/>
      <point x="805" y="271" type="line"/>
      <point x="854" y="327"/>
      <point x="873" y="373"/>
    </contour>
  </outline>
</glyph>
<glyph name="gha_cham" format="2">
  <advance width="1439"/>
  <unicode hex="AA09"/>
  <note>
uniAA09
</note>
  <outline>
    <contour>
      <point x="1393" y="432" type="curve" smooth="yes"/>
      <point x="1393" y="550"/>
      <point x="1309" y="630"/>
      <point x="1185" y="630" type="curve" smooth="yes"/>
      <point x="1057" y="630"/>
      <point x="970" y="543"/>
      <point x="970" y="404" type="curve"/>
      <point x="1055" y="404" type="line"/>
      <point x="1055" y="543"/>
      <point x="965" y="630"/>
      <point x="836" y="630" type="curve" smooth="yes"/>
      <point x="712" y="630"/>
      <point x="635" y="560"/>
      <point x="635" y="461" type="curve" smooth="yes"/>
      <point x="635" y="424"/>
      <point x="648" y="388"/>
      <point x="648" y="364" type="curve" smooth="yes"/>
      <point x="648" y="260"/>
      <point x="500" y="265"/>
      <point x="500" y="135" type="curve" smooth="yes"/>
      <point x="500" y="103"/>
      <point x="507" y="82"/>
      <point x="537" y="57" type="curve"/>
      <point x="527" y="85" type="line"/>
      <point x="522" y="85"/>
      <point x="516" y="85"/>
      <point x="513" y="85" type="curve" smooth="yes"/>
      <point x="469" y="85"/>
      <point x="439" y="131"/>
      <point x="439" y="184" type="curve" smooth="yes"/>
      <point x="439" y="262"/>
      <point x="507" y="332"/>
      <point x="507" y="434" type="curve" smooth="yes"/>
      <point x="507" y="555"/>
      <point x="413" y="630"/>
      <point x="280" y="630" type="curve" smooth="yes"/>
      <point x="140" y="630"/>
      <point x="46" y="551"/>
      <point x="46" y="430" type="curve" smooth="yes"/>
      <point x="46" y="376"/>
      <point x="67" y="318"/>
      <point x="119" y="272" type="curve"/>
      <point x="224" y="351" type="line"/>
      <point x="202" y="372"/>
      <point x="188" y="402"/>
      <point x="188" y="433" type="curve" smooth="yes"/>
      <point x="188" y="485"/>
      <point x="224" y="516"/>
      <point x="277" y="516" type="curve" smooth="yes"/>
      <point x="332" y="516"/>
      <point x="363" y="478"/>
      <point x="363" y="428" type="curve" smooth="yes"/>
      <point x="363" y="345"/>
      <point x="294" y="277"/>
      <point x="294" y="182" type="curve" smooth="yes"/>
      <point x="294" y="66"/>
      <point x="391" y="-24"/>
      <point x="541" y="-24" type="curve" smooth="yes"/>
      <point x="570" y="-24"/>
      <point x="598" y="-24"/>
      <point x="616" y="-21" type="curve"/>
      <point x="649" y="55" type="line"/>
      <point x="626" y="81"/>
      <point x="616" y="96"/>
      <point x="616" y="120" type="curve" smooth="yes"/>
      <point x="616" y="216"/>
      <point x="787" y="206"/>
      <point x="787" y="348" type="curve" smooth="yes"/>
      <point x="787" y="383"/>
      <point x="775" y="412"/>
      <point x="775" y="439" type="curve" smooth="yes"/>
      <point x="775" y="486"/>
      <point x="807" y="516"/>
      <point x="860" y="516" type="curve" smooth="yes"/>
      <point x="918" y="516"/>
      <point x="956" y="476"/>
      <point x="951" y="386" type="curve"/>
      <point x="1074" y="386" type="line"/>
      <point x="1069" y="478"/>
      <point x="1111" y="516"/>
      <point x="1166" y="516" type="curve" smooth="yes"/>
      <point x="1218" y="516"/>
      <point x="1251" y="484"/>
      <point x="1251" y="433" type="curve" smooth="yes"/>
      <point x="1251" y="399"/>
      <point x="1240" y="373"/>
      <point x="1215" y="349" type="curve"/>
      <point x="1323" y="272" type="line"/>
      <point x="1374" y="325"/>
      <point x="1393" y="373"/>
    </contour>
  </outline>
</glyph>
<glyph name="ngue_cham" format="2">
  <advance width="1191"/>
  <unicode hex="AA0A"/>
  <note>
uniAA0A
</note>
  <outline>
    <contour>
      <point x="1145" y="409" type="curve" smooth="yes"/>
      <point x="1145" y="542"/>
      <point x="1041" y="630"/>
      <point x="890" y="630" type="curve" smooth="yes"/>
      <point x="738" y="630"/>
      <point x="635" y="542"/>
      <point x="635" y="410" type="curve" smooth="yes"/>
      <point x="635" y="296"/>
      <point x="712" y="219"/>
      <point x="814" y="219" type="curve" smooth="yes"/>
      <point x="887" y="219"/>
      <point x="927" y="256"/>
      <point x="927" y="318" type="curve" smooth="yes"/>
      <point x="927" y="373"/>
      <point x="889" y="410"/>
      <point x="826" y="410" type="curve" smooth="yes"/>
      <point x="731" y="410"/>
      <point x="675" y="363"/>
      <point x="674" y="283" type="curve" smooth="yes"/>
      <point x="673" y="255"/>
      <point x="673" y="220"/>
      <point x="671" y="205" type="curve" smooth="yes"/>
      <point x="661" y="127"/>
      <point x="601" y="99"/>
      <point x="471" y="80" type="curve"/>
      <point x="456" y="-4" type="line"/>
      <point x="540" y="56"/>
      <point x="573" y="126"/>
      <point x="573" y="195" type="curve" smooth="yes"/>
      <point x="573" y="291"/>
      <point x="497" y="345"/>
      <point x="400" y="345" type="curve" smooth="yes"/>
      <point x="379" y="345"/>
      <point x="357" y="342"/>
      <point x="335" y="337" type="curve"/>
      <point x="370" y="259" type="line"/>
      <point x="458" y="290"/>
      <point x="508" y="364"/>
      <point x="508" y="440" type="curve" smooth="yes"/>
      <point x="508" y="555"/>
      <point x="412" y="630"/>
      <point x="279" y="630" type="curve" smooth="yes"/>
      <point x="140" y="630"/>
      <point x="46" y="550"/>
      <point x="46" y="430" type="curve" smooth="yes"/>
      <point x="46" y="376"/>
      <point x="67" y="318"/>
      <point x="119" y="271" type="curve"/>
      <point x="225" y="350" type="line"/>
      <point x="202" y="371"/>
      <point x="188" y="401"/>
      <point x="188" y="433" type="curve" smooth="yes"/>
      <point x="188" y="485"/>
      <point x="224" y="516"/>
      <point x="277" y="516" type="curve" smooth="yes"/>
      <point x="332" y="516"/>
      <point x="364" y="478"/>
      <point x="364" y="431" type="curve" smooth="yes"/>
      <point x="364" y="383"/>
      <point x="332" y="343"/>
      <point x="275" y="323" type="curve"/>
      <point x="302" y="242" type="line"/>
      <point x="317" y="248"/>
      <point x="335" y="252"/>
      <point x="351" y="252" type="curve" smooth="yes"/>
      <point x="393" y="252"/>
      <point x="431" y="226"/>
      <point x="431" y="170" type="curve" smooth="yes"/>
      <point x="431" y="119"/>
      <point x="412" y="81"/>
      <point x="360" y="17" type="curve"/>
      <point x="386" y="-55" type="line"/>
      <point x="688" y="-4"/>
      <point x="779" y="49"/>
      <point x="785" y="212" type="curve" smooth="yes"/>
      <point x="786" y="244"/>
      <point x="782" y="275"/>
      <point x="782" y="299" type="curve" smooth="yes"/>
      <point x="783" y="327"/>
      <point x="801" y="345"/>
      <point x="824" y="345" type="curve" smooth="yes"/>
      <point x="843" y="345"/>
      <point x="857" y="334"/>
      <point x="857" y="315" type="curve" smooth="yes"/>
      <point x="857" y="297"/>
      <point x="845" y="284"/>
      <point x="823" y="284" type="curve" smooth="yes"/>
      <point x="790" y="284"/>
      <point x="763" y="323"/>
      <point x="763" y="402" type="curve" smooth="yes"/>
      <point x="763" y="478"/>
      <point x="810" y="516"/>
      <point x="882" y="516" type="curve" smooth="yes"/>
      <point x="954" y="516"/>
      <point x="1004" y="478"/>
      <point x="1004" y="412" type="curve" smooth="yes"/>
      <point x="1004" y="374"/>
      <point x="986" y="339"/>
      <point x="959" y="314" type="curve"/>
      <point x="1064" y="235" type="line"/>
      <point x="1122" y="287"/>
      <point x="1145" y="350"/>
    </contour>
  </outline>
</glyph>
<glyph name="nga_cham" format="2">
  <advance width="1192"/>
  <unicode hex="AA0B"/>
  <note>
uniAA0B
</note>
  <outline>
    <contour>
      <point x="1146" y="409" type="curve" smooth="yes"/>
      <point x="1146" y="542"/>
      <point x="1042" y="630"/>
      <point x="891" y="630" type="curve" smooth="yes"/>
      <point x="739" y="630"/>
      <point x="635" y="542"/>
      <point x="635" y="410" type="curve" smooth="yes"/>
      <point x="635" y="296"/>
      <point x="713" y="218"/>
      <point x="816" y="218" type="curve" smooth="yes"/>
      <point x="889" y="218"/>
      <point x="930" y="256"/>
      <point x="930" y="318" type="curve" smooth="yes"/>
      <point x="930" y="373"/>
      <point x="891" y="411"/>
      <point x="828" y="411" type="curve" smooth="yes"/>
      <point x="733" y="411"/>
      <point x="677" y="364"/>
      <point x="675" y="283" type="curve" smooth="yes"/>
      <point x="675" y="269"/>
      <point x="674" y="252"/>
      <point x="674" y="243" type="curve" smooth="yes"/>
      <point x="674" y="178"/>
      <point x="669" y="131"/>
      <point x="631" y="108" type="curve" smooth="yes"/>
      <point x="602" y="91"/>
      <point x="524" y="71"/>
      <point x="468" y="54" type="curve"/>
      <point x="463" y="17" type="line"/>
      <point x="543" y="68"/>
      <point x="573" y="134"/>
      <point x="573" y="196" type="curve" smooth="yes"/>
      <point x="573" y="291"/>
      <point x="497" y="344"/>
      <point x="400" y="344" type="curve" smooth="yes"/>
      <point x="379" y="344"/>
      <point x="357" y="342"/>
      <point x="335" y="337" type="curve"/>
      <point x="370" y="259" type="line"/>
      <point x="458" y="290"/>
      <point x="508" y="364"/>
      <point x="508" y="440" type="curve" smooth="yes"/>
      <point x="508" y="555"/>
      <point x="412" y="630"/>
      <point x="279" y="630" type="curve" smooth="yes"/>
      <point x="140" y="630"/>
      <point x="46" y="550"/>
      <point x="46" y="430" type="curve" smooth="yes"/>
      <point x="46" y="376"/>
      <point x="67" y="318"/>
      <point x="119" y="271" type="curve"/>
      <point x="225" y="350" type="line"/>
      <point x="202" y="371"/>
      <point x="188" y="401"/>
      <point x="188" y="433" type="curve" smooth="yes"/>
      <point x="188" y="485"/>
      <point x="224" y="516"/>
      <point x="277" y="516" type="curve" smooth="yes"/>
      <point x="332" y="516"/>
      <point x="364" y="478"/>
      <point x="364" y="431" type="curve" smooth="yes"/>
      <point x="364" y="382"/>
      <point x="332" y="343"/>
      <point x="275" y="323" type="curve"/>
      <point x="302" y="242" type="line"/>
      <point x="317" y="248"/>
      <point x="335" y="252"/>
      <point x="351" y="252" type="curve" smooth="yes"/>
      <point x="393" y="252"/>
      <point x="431" y="225"/>
      <point x="431" y="166" type="curve" smooth="yes"/>
      <point x="431" y="116"/>
      <point x="414" y="52"/>
      <point x="347" y="-13" type="curve" smooth="yes"/>
      <point x="275" y="-82"/>
      <point x="234" y="-131"/>
      <point x="234" y="-199" type="curve" smooth="yes"/>
      <point x="234" y="-277"/>
      <point x="301" y="-328"/>
      <point x="377" y="-328" type="curve" smooth="yes"/>
      <point x="507" y="-328"/>
      <point x="532" y="-189"/>
      <point x="584" y="-189" type="curve" smooth="yes"/>
      <point x="603" y="-189"/>
      <point x="613" y="-199"/>
      <point x="613" y="-217" type="curve" smooth="yes"/>
      <point x="613" y="-227"/>
      <point x="610" y="-239"/>
      <point x="602" y="-251" type="curve"/>
      <point x="702" y="-294" type="line"/>
      <point x="724" y="-265"/>
      <point x="732" y="-224"/>
      <point x="732" y="-198" type="curve" smooth="yes"/>
      <point x="732" y="-134"/>
      <point x="680" y="-81"/>
      <point x="607" y="-81" type="curve" smooth="yes"/>
      <point x="488" y="-81"/>
      <point x="446" y="-218"/>
      <point x="393" y="-218" type="curve" smooth="yes"/>
      <point x="372" y="-218"/>
      <point x="357" y="-198"/>
      <point x="357" y="-177" type="curve" smooth="yes"/>
      <point x="357" y="-154"/>
      <point x="374" y="-118"/>
      <point x="436" y="-80" type="curve" smooth="yes"/>
      <point x="516" y="-31"/>
      <point x="598" y="-22"/>
      <point x="667" y="3" type="curve" smooth="yes"/>
      <point x="754" y="35"/>
      <point x="785" y="86"/>
      <point x="786" y="208" type="curve" smooth="yes"/>
      <point x="786" y="243"/>
      <point x="784" y="271"/>
      <point x="785" y="299" type="curve" smooth="yes"/>
      <point x="786" y="327"/>
      <point x="803" y="345"/>
      <point x="826" y="345" type="curve" smooth="yes"/>
      <point x="845" y="345"/>
      <point x="860" y="334"/>
      <point x="860" y="315" type="curve" smooth="yes"/>
      <point x="860" y="298"/>
      <point x="847" y="284"/>
      <point x="826" y="284" type="curve" smooth="yes"/>
      <point x="792" y="284"/>
      <point x="764" y="323"/>
      <point x="764" y="402" type="curve" smooth="yes"/>
      <point x="764" y="478"/>
      <point x="813" y="516"/>
      <point x="883" y="516" type="curve" smooth="yes"/>
      <point x="954" y="516"/>
      <point x="1004" y="478"/>
      <point x="1004" y="412" type="curve" smooth="yes"/>
      <point x="1004" y="374"/>
      <point x="987" y="339"/>
      <point x="960" y="314" type="curve"/>
      <point x="1065" y="235" type="line"/>
      <point x="1122" y="287"/>
      <point x="1146" y="350"/>
    </contour>
  </outline>
</glyph>
<glyph name="cha_cham" format="2">
  <advance width="1056"/>
  <unicode hex="AA0C"/>
  <note>
uniAA0C
</note>
  <outline>
    <contour>
      <point x="1010" y="432" type="curve" smooth="yes"/>
      <point x="1010" y="550"/>
      <point x="926" y="630"/>
      <point x="799" y="630" type="curve" smooth="yes"/>
      <point x="693" y="630"/>
      <point x="614" y="585"/>
      <point x="592" y="474" type="curve" smooth="yes"/>
      <point x="570" y="362"/>
      <point x="527" y="347"/>
      <point x="422" y="336" type="curve" smooth="yes"/>
      <point x="263" y="319"/>
      <point x="151" y="248"/>
      <point x="151" y="131" type="curve" smooth="yes"/>
      <point x="151" y="33"/>
      <point x="217" y="-24"/>
      <point x="314" y="-24" type="curve" smooth="yes"/>
      <point x="449" y="-24"/>
      <point x="542" y="102"/>
      <point x="542" y="292" type="curve" smooth="yes"/>
      <point x="542" y="507"/>
      <point x="436" y="630"/>
      <point x="272" y="630" type="curve" smooth="yes"/>
      <point x="141" y="630"/>
      <point x="58" y="558"/>
      <point x="58" y="456" type="curve" smooth="yes"/>
      <point x="58" y="389"/>
      <point x="88" y="336"/>
      <point x="130" y="306" type="curve"/>
      <point x="221" y="382" type="line"/>
      <point x="208" y="394"/>
      <point x="194" y="416"/>
      <point x="194" y="445" type="curve" smooth="yes"/>
      <point x="194" y="491"/>
      <point x="229" y="516"/>
      <point x="275" y="516" type="curve" smooth="yes"/>
      <point x="353" y="516"/>
      <point x="401" y="443"/>
      <point x="401" y="299" type="curve" smooth="yes"/>
      <point x="401" y="165"/>
      <point x="364" y="86"/>
      <point x="316" y="86" type="curve" smooth="yes"/>
      <point x="290" y="86"/>
      <point x="277" y="107"/>
      <point x="277" y="136" type="curve" smooth="yes"/>
      <point x="277" y="182"/>
      <point x="315" y="228"/>
      <point x="482" y="255" type="curve" smooth="yes"/>
      <point x="623" y="278"/>
      <point x="674" y="309"/>
      <point x="694" y="416" type="curve" smooth="yes"/>
      <point x="706" y="482"/>
      <point x="732" y="516"/>
      <point x="786" y="516" type="curve" smooth="yes"/>
      <point x="837" y="516"/>
      <point x="868" y="484"/>
      <point x="868" y="433" type="curve" smooth="yes"/>
      <point x="868" y="400"/>
      <point x="857" y="373"/>
      <point x="832" y="349" type="curve"/>
      <point x="940" y="273" type="line"/>
      <point x="991" y="325"/>
      <point x="1010" y="373"/>
    </contour>
  </outline>
</glyph>
<glyph name="chha_cham" format="2">
  <advance width="1695"/>
  <unicode hex="AA0D"/>
  <note>
uniAA0D
</note>
  <outline>
    <contour>
      <point x="1649" y="434" type="curve" smooth="yes"/>
      <point x="1649" y="551"/>
      <point x="1561" y="630"/>
      <point x="1423" y="630" type="curve" smooth="yes"/>
      <point x="1286" y="630"/>
      <point x="1200" y="563"/>
      <point x="1200" y="465" type="curve" smooth="yes"/>
      <point x="1200" y="395"/>
      <point x="1244" y="336"/>
      <point x="1244" y="288" type="curve" smooth="yes"/>
      <point x="1244" y="248"/>
      <point x="1198" y="216"/>
      <point x="1159" y="216" type="curve" smooth="yes"/>
      <point x="1115" y="216"/>
      <point x="1094" y="235"/>
      <point x="1094" y="257" type="curve" smooth="yes"/>
      <point x="1094" y="274"/>
      <point x="1108" y="284"/>
      <point x="1125" y="284" type="curve" smooth="yes"/>
      <point x="1157" y="284"/>
      <point x="1175" y="254"/>
      <point x="1175" y="200" type="curve" smooth="yes"/>
      <point x="1175" y="121"/>
      <point x="1130" y="86"/>
      <point x="1060" y="86" type="curve" smooth="yes"/>
      <point x="982" y="86"/>
      <point x="937" y="132"/>
      <point x="937" y="195" type="curve" smooth="yes"/>
      <point x="937" y="264"/>
      <point x="1015" y="334"/>
      <point x="1015" y="442" type="curve" smooth="yes"/>
      <point x="1015" y="555"/>
      <point x="923" y="630"/>
      <point x="799" y="630" type="curve" smooth="yes"/>
      <point x="693" y="630"/>
      <point x="615" y="585"/>
      <point x="592" y="474" type="curve" smooth="yes"/>
      <point x="569" y="362"/>
      <point x="527" y="348"/>
      <point x="422" y="336" type="curve" smooth="yes"/>
      <point x="260" y="318"/>
      <point x="151" y="248"/>
      <point x="151" y="131" type="curve" smooth="yes"/>
      <point x="151" y="33"/>
      <point x="217" y="-24"/>
      <point x="314" y="-24" type="curve" smooth="yes"/>
      <point x="449" y="-24"/>
      <point x="542" y="102"/>
      <point x="542" y="292" type="curve" smooth="yes"/>
      <point x="542" y="507"/>
      <point x="436" y="630"/>
      <point x="272" y="630" type="curve" smooth="yes"/>
      <point x="141" y="630"/>
      <point x="58" y="558"/>
      <point x="58" y="456" type="curve" smooth="yes"/>
      <point x="58" y="388"/>
      <point x="89" y="336"/>
      <point x="130" y="306" type="curve"/>
      <point x="221" y="382" type="line"/>
      <point x="208" y="393"/>
      <point x="195" y="416"/>
      <point x="195" y="444" type="curve" smooth="yes"/>
      <point x="195" y="491"/>
      <point x="230" y="516"/>
      <point x="275" y="516" type="curve" smooth="yes"/>
      <point x="353" y="516"/>
      <point x="401" y="443"/>
      <point x="401" y="299" type="curve" smooth="yes"/>
      <point x="401" y="165"/>
      <point x="364" y="86"/>
      <point x="316" y="86" type="curve" smooth="yes"/>
      <point x="290" y="86"/>
      <point x="277" y="107"/>
      <point x="277" y="136" type="curve" smooth="yes"/>
      <point x="277" y="182"/>
      <point x="315" y="228"/>
      <point x="482" y="255" type="curve" smooth="yes"/>
      <point x="623" y="278"/>
      <point x="674" y="309"/>
      <point x="694" y="416" type="curve" smooth="yes"/>
      <point x="706" y="482"/>
      <point x="732" y="516"/>
      <point x="786" y="516" type="curve" smooth="yes"/>
      <point x="842" y="516"/>
      <point x="870" y="481"/>
      <point x="870" y="429" type="curve" smooth="yes"/>
      <point x="870" y="352"/>
      <point x="792" y="280"/>
      <point x="792" y="181" type="curve" smooth="yes"/>
      <point x="792" y="59"/>
      <point x="885" y="-24"/>
      <point x="1040" y="-24" type="curve" smooth="yes"/>
      <point x="1187" y="-24"/>
      <point x="1274" y="54"/>
      <point x="1274" y="193" type="curve" smooth="yes"/>
      <point x="1274" y="287"/>
      <point x="1206" y="348"/>
      <point x="1126" y="348" type="curve" smooth="yes"/>
      <point x="1064" y="348"/>
      <point x="1018" y="315"/>
      <point x="1018" y="255" type="curve" smooth="yes"/>
      <point x="1018" y="189"/>
      <point x="1079" y="149"/>
      <point x="1171" y="149" type="curve" smooth="yes"/>
      <point x="1267" y="149"/>
      <point x="1362" y="204"/>
      <point x="1362" y="295" type="curve" smooth="yes"/>
      <point x="1362" y="346"/>
      <point x="1334" y="395"/>
      <point x="1334" y="437" type="curve" smooth="yes"/>
      <point x="1334" y="486"/>
      <point x="1368" y="516"/>
      <point x="1423" y="516" type="curve" smooth="yes"/>
      <point x="1474" y="516"/>
      <point x="1508" y="488"/>
      <point x="1508" y="434" type="curve" smooth="yes"/>
      <point x="1508" y="402"/>
      <point x="1494" y="374"/>
      <point x="1469" y="349" type="curve"/>
      <point x="1578" y="273" type="line"/>
      <point x="1629" y="328"/>
      <point x="1649" y="375"/>
    </contour>
  </outline>
</glyph>
<glyph name="ja_cham" format="2">
  <advance width="1428"/>
  <unicode hex="AA0E"/>
  <note>
uniAA0E
</note>
  <outline>
    <contour>
      <point x="1382" y="432" type="curve" smooth="yes"/>
      <point x="1382" y="550"/>
      <point x="1298" y="630"/>
      <point x="1174" y="630" type="curve" smooth="yes"/>
      <point x="1046" y="630"/>
      <point x="959" y="544"/>
      <point x="959" y="405" type="curve"/>
      <point x="1045" y="405" type="line"/>
      <point x="1045" y="544"/>
      <point x="953" y="630"/>
      <point x="825" y="630" type="curve" smooth="yes"/>
      <point x="704" y="630"/>
      <point x="621" y="554"/>
      <point x="621" y="440" type="curve" smooth="yes"/>
      <point x="621" y="349"/>
      <point x="661" y="285"/>
      <point x="661" y="226" type="curve" smooth="yes"/>
      <point x="661" y="138"/>
      <point x="594" y="96"/>
      <point x="467" y="76" type="curve"/>
      <point x="458" y="-3" type="line"/>
      <point x="540" y="57"/>
      <point x="573" y="126"/>
      <point x="573" y="194" type="curve" smooth="yes"/>
      <point x="573" y="291"/>
      <point x="497" y="345"/>
      <point x="400" y="345" type="curve" smooth="yes"/>
      <point x="379" y="345"/>
      <point x="357" y="342"/>
      <point x="335" y="337" type="curve"/>
      <point x="371" y="259" type="line"/>
      <point x="458" y="290"/>
      <point x="508" y="364"/>
      <point x="508" y="440" type="curve" smooth="yes"/>
      <point x="508" y="555"/>
      <point x="413" y="630"/>
      <point x="279" y="630" type="curve" smooth="yes"/>
      <point x="140" y="630"/>
      <point x="46" y="550"/>
      <point x="46" y="430" type="curve" smooth="yes"/>
      <point x="46" y="376"/>
      <point x="67" y="318"/>
      <point x="120" y="271" type="curve"/>
      <point x="225" y="350" type="line"/>
      <point x="202" y="371"/>
      <point x="188" y="401"/>
      <point x="188" y="433" type="curve" smooth="yes"/>
      <point x="188" y="485"/>
      <point x="224" y="516"/>
      <point x="277" y="516" type="curve" smooth="yes"/>
      <point x="332" y="516"/>
      <point x="364" y="478"/>
      <point x="364" y="431" type="curve" smooth="yes"/>
      <point x="364" y="383"/>
      <point x="333" y="343"/>
      <point x="275" y="323" type="curve"/>
      <point x="302" y="242" type="line"/>
      <point x="318" y="248"/>
      <point x="335" y="252"/>
      <point x="351" y="252" type="curve" smooth="yes"/>
      <point x="394" y="252"/>
      <point x="432" y="226"/>
      <point x="432" y="170" type="curve" smooth="yes"/>
      <point x="432" y="118"/>
      <point x="412" y="80"/>
      <point x="361" y="15" type="curve"/>
      <point x="385" y="-54" type="line"/>
      <point x="630" y="-9"/>
      <point x="807" y="85"/>
      <point x="807" y="228" type="curve" smooth="yes"/>
      <point x="807" y="305"/>
      <point x="765" y="366"/>
      <point x="765" y="435" type="curve" smooth="yes"/>
      <point x="765" y="481"/>
      <point x="798" y="516"/>
      <point x="850" y="516" type="curve" smooth="yes"/>
      <point x="906" y="516"/>
      <point x="945" y="476"/>
      <point x="941" y="387" type="curve"/>
      <point x="1063" y="387" type="line"/>
      <point x="1058" y="479"/>
      <point x="1100" y="516"/>
      <point x="1156" y="516" type="curve" smooth="yes"/>
      <point x="1207" y="516"/>
      <point x="1241" y="484"/>
      <point x="1241" y="433" type="curve" smooth="yes"/>
      <point x="1241" y="399"/>
      <point x="1229" y="373"/>
      <point x="1204" y="349" type="curve"/>
      <point x="1312" y="273" type="line"/>
      <point x="1363" y="325"/>
      <point x="1382" y="373"/>
    </contour>
  </outline>
</glyph>
<glyph name="jha_cham" format="2">
  <advance width="1610"/>
  <unicode hex="AA0F"/>
  <note>
uniAA0F
</note>
  <outline>
    <contour>
      <point x="917" y="443" type="curve" smooth="yes"/>
      <point x="917" y="558"/>
      <point x="814" y="630"/>
      <point x="668" y="630" type="curve" smooth="yes"/>
      <point x="522" y="630"/>
      <point x="427" y="552"/>
      <point x="427" y="442" type="curve" smooth="yes"/>
      <point x="427" y="354"/>
      <point x="470" y="293"/>
      <point x="470" y="213" type="curve" smooth="yes"/>
      <point x="470" y="120"/>
      <point x="410" y="71"/>
      <point x="312" y="71" type="curve" smooth="yes"/>
      <point x="219" y="71"/>
      <point x="162" y="117"/>
      <point x="162" y="179" type="curve" smooth="yes"/>
      <point x="162" y="221"/>
      <point x="188" y="250"/>
      <point x="232" y="250" type="curve" smooth="yes"/>
      <point x="276" y="250"/>
      <point x="303" y="218"/>
      <point x="303" y="164" type="curve" smooth="yes"/>
      <point x="303" y="132"/>
      <point x="292" y="92"/>
      <point x="278" y="66" type="curve"/>
      <point x="374" y="66" type="line"/>
      <point x="387" y="89"/>
      <point x="406" y="133"/>
      <point x="406" y="183" type="curve" smooth="yes"/>
      <point x="406" y="282"/>
      <point x="332" y="344"/>
      <point x="227" y="344" type="curve" smooth="yes"/>
      <point x="113" y="344"/>
      <point x="46" y="271"/>
      <point x="46" y="177" type="curve" smooth="yes"/>
      <point x="46" y="58"/>
      <point x="156" y="-24"/>
      <point x="336" y="-24" type="curve" smooth="yes"/>
      <point x="509" y="-24"/>
      <point x="612" y="68"/>
      <point x="612" y="204" type="curve" smooth="yes"/>
      <point x="612" y="301"/>
      <point x="571" y="363"/>
      <point x="571" y="429" type="curve" smooth="yes"/>
      <point x="571" y="482"/>
      <point x="610" y="516"/>
      <point x="674" y="516" type="curve" smooth="yes"/>
      <point x="737" y="516"/>
      <point x="772" y="479"/>
      <point x="772" y="427" type="curve" smooth="yes"/>
      <point x="772" y="352"/>
      <point x="717" y="279"/>
      <point x="717" y="175" type="curve"/>
      <point x="822" y="194" type="line"/>
      <point x="822" y="262"/>
      <point x="917" y="337"/>
    </contour>
    <component base="ra_cham" xOffset="671"/>
  </outline>
</glyph>
<glyph name="nhue_cham" format="2">
  <advance width="1418"/>
  <unicode hex="AA10"/>
  <note>
uniAA10
</note>
  <outline>
    <contour>
      <point x="1372" y="432" type="curve" smooth="yes"/>
      <point x="1372" y="550"/>
      <point x="1289" y="630"/>
      <point x="1161" y="630" type="curve" smooth="yes"/>
      <point x="1055" y="630"/>
      <point x="976" y="585"/>
      <point x="954" y="474" type="curve" smooth="yes"/>
      <point x="932" y="363"/>
      <point x="889" y="347"/>
      <point x="784" y="336" type="curve" smooth="yes"/>
      <point x="625" y="320"/>
      <point x="512" y="248"/>
      <point x="512" y="131" type="curve" smooth="yes"/>
      <point x="512" y="33"/>
      <point x="578" y="-24"/>
      <point x="676" y="-24" type="curve" smooth="yes"/>
      <point x="811" y="-24"/>
      <point x="904" y="102"/>
      <point x="904" y="292" type="curve" smooth="yes"/>
      <point x="904" y="507"/>
      <point x="810" y="630"/>
      <point x="687" y="630" type="curve" smooth="yes"/>
      <point x="568" y="630"/>
      <point x="547" y="550"/>
      <point x="488" y="550" type="curve" smooth="yes"/>
      <point x="428" y="550"/>
      <point x="407" y="630"/>
      <point x="288" y="630" type="curve" smooth="yes"/>
      <point x="160" y="630"/>
      <point x="71" y="512"/>
      <point x="71" y="322" type="curve" smooth="yes"/>
      <point x="71" y="106"/>
      <point x="165" y="-25"/>
      <point x="322" y="-25" type="curve" smooth="yes"/>
      <point x="409" y="-25"/>
      <point x="461" y="25"/>
      <point x="461" y="95" type="curve" smooth="yes"/>
      <point x="461" y="168"/>
      <point x="407" y="214"/>
      <point x="332" y="214" type="curve" smooth="yes"/>
      <point x="249" y="214"/>
      <point x="191" y="150"/>
      <point x="179" y="58" type="curve"/>
      <point x="249" y="58" type="line"/>
      <point x="255" y="100"/>
      <point x="282" y="143"/>
      <point x="330" y="143" type="curve" smooth="yes"/>
      <point x="356" y="143"/>
      <point x="382" y="131"/>
      <point x="382" y="96" type="curve" smooth="yes"/>
      <point x="382" y="69"/>
      <point x="363" y="51"/>
      <point x="332" y="51" type="curve" smooth="yes"/>
      <point x="250" y="51"/>
      <point x="215" y="152"/>
      <point x="215" y="306" type="curve" smooth="yes"/>
      <point x="215" y="442"/>
      <point x="260" y="508"/>
      <point x="320" y="508" type="curve" smooth="yes"/>
      <point x="390" y="508"/>
      <point x="408" y="428"/>
      <point x="488" y="428" type="curve" smooth="yes"/>
      <point x="567" y="428"/>
      <point x="585" y="508"/>
      <point x="655" y="508" type="curve" smooth="yes"/>
      <point x="714" y="508"/>
      <point x="763" y="441"/>
      <point x="763" y="299" type="curve" smooth="yes"/>
      <point x="763" y="165"/>
      <point x="726" y="86"/>
      <point x="678" y="86" type="curve" smooth="yes"/>
      <point x="652" y="86"/>
      <point x="639" y="107"/>
      <point x="639" y="136" type="curve" smooth="yes"/>
      <point x="639" y="182"/>
      <point x="677" y="228"/>
      <point x="843" y="255" type="curve" smooth="yes"/>
      <point x="985" y="278"/>
      <point x="1035" y="309"/>
      <point x="1056" y="416" type="curve" smooth="yes"/>
      <point x="1069" y="482"/>
      <point x="1094" y="516"/>
      <point x="1148" y="516" type="curve" smooth="yes"/>
      <point x="1198" y="516"/>
      <point x="1230" y="484"/>
      <point x="1230" y="433" type="curve" smooth="yes"/>
      <point x="1230" y="400"/>
      <point x="1218" y="373"/>
      <point x="1194" y="349" type="curve"/>
      <point x="1302" y="273" type="line"/>
      <point x="1353" y="325"/>
      <point x="1372" y="373"/>
    </contour>
  </outline>
</glyph>
<glyph name="nhja_cham" format="2">
  <advance width="1417"/>
  <unicode hex="AA12"/>
  <note>
uniAA12
</note>
  <outline>
    <contour>
      <point x="1371" y="432" type="curve" smooth="yes"/>
      <point x="1371" y="550"/>
      <point x="1288" y="630"/>
      <point x="1161" y="630" type="curve" smooth="yes"/>
      <point x="1055" y="630"/>
      <point x="977" y="585"/>
      <point x="954" y="474" type="curve" smooth="yes"/>
      <point x="931" y="362"/>
      <point x="889" y="350"/>
      <point x="784" y="335" type="curve" smooth="yes"/>
      <point x="633" y="314"/>
      <point x="526" y="246"/>
      <point x="526" y="130" type="curve" smooth="yes"/>
      <point x="526" y="44"/>
      <point x="586" y="-7"/>
      <point x="676" y="-7" type="curve" smooth="yes"/>
      <point x="694" y="-7"/>
      <point x="710" y="-6"/>
      <point x="727" y="-3" type="curve"/>
      <point x="679" y="57" type="line"/>
      <point x="503" y="-53"/>
      <point x="464" y="-128"/>
      <point x="464" y="-191" type="curve" smooth="yes"/>
      <point x="464" y="-273"/>
      <point x="531" y="-328"/>
      <point x="608" y="-328" type="curve" smooth="yes"/>
      <point x="737" y="-328"/>
      <point x="762" y="-190"/>
      <point x="815" y="-190" type="curve" smooth="yes"/>
      <point x="833" y="-190"/>
      <point x="844" y="-200"/>
      <point x="844" y="-217" type="curve" smooth="yes"/>
      <point x="844" y="-228"/>
      <point x="840" y="-240"/>
      <point x="832" y="-251" type="curve"/>
      <point x="933" y="-295" type="line"/>
      <point x="954" y="-265"/>
      <point x="963" y="-224"/>
      <point x="963" y="-199" type="curve" smooth="yes"/>
      <point x="963" y="-135"/>
      <point x="910" y="-82"/>
      <point x="837" y="-82" type="curve" smooth="yes"/>
      <point x="719" y="-82"/>
      <point x="676" y="-219"/>
      <point x="624" y="-219" type="curve" smooth="yes"/>
      <point x="602" y="-219"/>
      <point x="587" y="-201"/>
      <point x="587" y="-180" type="curve" smooth="yes"/>
      <point x="587" y="-145"/>
      <point x="616" y="-103"/>
      <point x="762" y="-10" type="curve" smooth="yes"/>
      <point x="874" y="61"/>
      <point x="904" y="166"/>
      <point x="904" y="292" type="curve" smooth="yes"/>
      <point x="904" y="507"/>
      <point x="810" y="630"/>
      <point x="687" y="630" type="curve" smooth="yes"/>
      <point x="568" y="630"/>
      <point x="547" y="550"/>
      <point x="488" y="550" type="curve" smooth="yes"/>
      <point x="428" y="550"/>
      <point x="407" y="630"/>
      <point x="288" y="630" type="curve" smooth="yes"/>
      <point x="160" y="630"/>
      <point x="71" y="512"/>
      <point x="71" y="322" type="curve" smooth="yes"/>
      <point x="71" y="106"/>
      <point x="165" y="-25"/>
      <point x="322" y="-25" type="curve" smooth="yes"/>
      <point x="409" y="-25"/>
      <point x="461" y="25"/>
      <point x="461" y="95" type="curve" smooth="yes"/>
      <point x="461" y="168"/>
      <point x="407" y="214"/>
      <point x="332" y="214" type="curve" smooth="yes"/>
      <point x="249" y="214"/>
      <point x="191" y="150"/>
      <point x="179" y="58" type="curve"/>
      <point x="249" y="58" type="line"/>
      <point x="255" y="100"/>
      <point x="282" y="143"/>
      <point x="330" y="143" type="curve" smooth="yes"/>
      <point x="356" y="143"/>
      <point x="382" y="131"/>
      <point x="382" y="96" type="curve" smooth="yes"/>
      <point x="382" y="69"/>
      <point x="363" y="51"/>
      <point x="332" y="51" type="curve" smooth="yes"/>
      <point x="250" y="51"/>
      <point x="215" y="152"/>
      <point x="215" y="306" type="curve" smooth="yes"/>
      <point x="215" y="442"/>
      <point x="260" y="508"/>
      <point x="320" y="508" type="curve" smooth="yes"/>
      <point x="390" y="508"/>
      <point x="408" y="428"/>
      <point x="488" y="428" type="curve" smooth="yes"/>
      <point x="567" y="428"/>
      <point x="585" y="508"/>
      <point x="655" y="508" type="curve" smooth="yes"/>
      <point x="714" y="508"/>
      <point x="763" y="441"/>
      <point x="763" y="299" type="curve" smooth="yes"/>
      <point x="763" y="165"/>
      <point x="726" y="86"/>
      <point x="678" y="86" type="curve" smooth="yes"/>
      <point x="652" y="86"/>
      <point x="639" y="107"/>
      <point x="639" y="136" type="curve" smooth="yes"/>
      <point x="639" y="182"/>
      <point x="677" y="228"/>
      <point x="843" y="255" type="curve" smooth="yes"/>
      <point x="985" y="278"/>
      <point x="1036" y="309"/>
      <point x="1056" y="416" type="curve" smooth="yes"/>
      <point x="1068" y="482"/>
      <point x="1094" y="516"/>
      <point x="1148" y="516" type="curve" smooth="yes"/>
      <point x="1198" y="516"/>
      <point x="1230" y="484"/>
      <point x="1230" y="433" type="curve" smooth="yes"/>
      <point x="1230" y="400"/>
      <point x="1218" y="373"/>
      <point x="1194" y="349" type="curve"/>
      <point x="1302" y="273" type="line"/>
      <point x="1352" y="325"/>
      <point x="1371" y="373"/>
    </contour>
    <contour>
      <point x="637" y="-46" type="line"/>
      <point x="637" y="37" type="line"/>
      <point x="468" y="37" type="line" smooth="yes"/>
      <point x="339" y="37"/>
      <point x="304" y="13"/>
      <point x="275" y="-124" type="curve" smooth="yes"/>
      <point x="255" y="-220"/>
      <point x="245" y="-245"/>
      <point x="163" y="-245" type="curve" smooth="yes"/>
      <point x="142" y="-245" type="line"/>
      <point x="142" y="-328" type="line"/>
      <point x="199" y="-328" type="line" smooth="yes"/>
      <point x="329" y="-328"/>
      <point x="364" y="-304"/>
      <point x="393" y="-167" type="curve" smooth="yes"/>
      <point x="413" y="-71"/>
      <point x="423" y="-46"/>
      <point x="502" y="-46" type="curve" smooth="yes"/>
    </contour>
  </outline>
</glyph>
<glyph name="ta_cham" format="2">
  <advance width="913"/>
  <unicode hex="AA13"/>
  <note>
uniAA13
</note>
  <outline>
    <contour>
      <point x="867" y="432" type="curve" smooth="yes"/>
      <point x="867" y="550"/>
      <point x="783" y="630"/>
      <point x="660" y="630" type="curve" smooth="yes"/>
      <point x="531" y="630"/>
      <point x="443" y="544"/>
      <point x="443" y="405" type="curve"/>
      <point x="529" y="405" type="line"/>
      <point x="529" y="544"/>
      <point x="447" y="630"/>
      <point x="320" y="630" type="curve" smooth="yes"/>
      <point x="168" y="630"/>
      <point x="71" y="512"/>
      <point x="71" y="321" type="curve" smooth="yes"/>
      <point x="71" y="107"/>
      <point x="179" y="-24"/>
      <point x="341" y="-24" type="curve" smooth="yes"/>
      <point x="462" y="-24"/>
      <point x="534" y="48"/>
      <point x="534" y="149" type="curve" smooth="yes"/>
      <point x="534" y="257"/>
      <point x="451" y="323"/>
      <point x="345" y="323" type="curve" smooth="yes"/>
      <point x="261" y="323"/>
      <point x="193" y="281"/>
      <point x="147" y="210" type="curve"/>
      <point x="208" y="136" type="line"/>
      <point x="234" y="199"/>
      <point x="279" y="230"/>
      <point x="336" y="230" type="curve" smooth="yes"/>
      <point x="380" y="230"/>
      <point x="419" y="207"/>
      <point x="419" y="147" type="curve" smooth="yes"/>
      <point x="419" y="100"/>
      <point x="390" y="69"/>
      <point x="342" y="69" type="curve" smooth="yes"/>
      <point x="261" y="69"/>
      <point x="215" y="157"/>
      <point x="215" y="325" type="curve" smooth="yes"/>
      <point x="215" y="445"/>
      <point x="261" y="516"/>
      <point x="335" y="516" type="curve" smooth="yes"/>
      <point x="390" y="516"/>
      <point x="430" y="475"/>
      <point x="425" y="386" type="curve"/>
      <point x="547" y="386" type="line"/>
      <point x="543" y="478"/>
      <point x="585" y="516"/>
      <point x="641" y="516" type="curve" smooth="yes"/>
      <point x="692" y="516"/>
      <point x="726" y="484"/>
      <point x="726" y="433" type="curve" smooth="yes"/>
      <point x="726" y="400"/>
      <point x="714" y="373"/>
      <point x="689" y="349" type="curve"/>
      <point x="797" y="273" type="line"/>
      <point x="848" y="325"/>
      <point x="867" y="373"/>
    </contour>
  </outline>
</glyph>
<glyph name="tha_cham" format="2">
  <advance width="1199"/>
  <unicode hex="AA14"/>
  <note>
uniAA14
</note>
  <outline>
    <contour>
      <point x="1153" y="434" type="curve" smooth="yes"/>
      <point x="1153" y="551"/>
      <point x="1065" y="630"/>
      <point x="926" y="630" type="curve" smooth="yes"/>
      <point x="790" y="630"/>
      <point x="704" y="563"/>
      <point x="704" y="465" type="curve" smooth="yes"/>
      <point x="704" y="395"/>
      <point x="748" y="336"/>
      <point x="748" y="288" type="curve" smooth="yes"/>
      <point x="748" y="247"/>
      <point x="702" y="216"/>
      <point x="663" y="216" type="curve" smooth="yes"/>
      <point x="621" y="216"/>
      <point x="598" y="234"/>
      <point x="598" y="256" type="curve" smooth="yes"/>
      <point x="598" y="274"/>
      <point x="612" y="284"/>
      <point x="628" y="284" type="curve" smooth="yes"/>
      <point x="661" y="284"/>
      <point x="679" y="254"/>
      <point x="679" y="200" type="curve" smooth="yes"/>
      <point x="679" y="121"/>
      <point x="634" y="86"/>
      <point x="564" y="86" type="curve" smooth="yes"/>
      <point x="486" y="86"/>
      <point x="441" y="132"/>
      <point x="441" y="195" type="curve" smooth="yes"/>
      <point x="441" y="264"/>
      <point x="507" y="334"/>
      <point x="507" y="442" type="curve" smooth="yes"/>
      <point x="507" y="555"/>
      <point x="413" y="630"/>
      <point x="280" y="630" type="curve" smooth="yes"/>
      <point x="141" y="630"/>
      <point x="46" y="549"/>
      <point x="46" y="428" type="curve" smooth="yes"/>
      <point x="46" y="373"/>
      <point x="67" y="309"/>
      <point x="117" y="270" type="curve"/>
      <point x="222" y="350" type="line"/>
      <point x="204" y="368"/>
      <point x="187" y="400"/>
      <point x="187" y="432" type="curve" smooth="yes"/>
      <point x="187" y="483"/>
      <point x="221" y="516"/>
      <point x="276" y="516" type="curve" smooth="yes"/>
      <point x="331" y="516"/>
      <point x="362" y="481"/>
      <point x="362" y="429" type="curve" smooth="yes"/>
      <point x="362" y="352"/>
      <point x="296" y="280"/>
      <point x="296" y="181" type="curve" smooth="yes"/>
      <point x="296" y="59"/>
      <point x="389" y="-24"/>
      <point x="544" y="-24" type="curve" smooth="yes"/>
      <point x="691" y="-24"/>
      <point x="778" y="54"/>
      <point x="778" y="193" type="curve" smooth="yes"/>
      <point x="778" y="287"/>
      <point x="710" y="348"/>
      <point x="630" y="348" type="curve" smooth="yes"/>
      <point x="568" y="348"/>
      <point x="522" y="315"/>
      <point x="522" y="255" type="curve" smooth="yes"/>
      <point x="522" y="189"/>
      <point x="583" y="149"/>
      <point x="675" y="149" type="curve" smooth="yes"/>
      <point x="771" y="149"/>
      <point x="866" y="204"/>
      <point x="866" y="295" type="curve" smooth="yes"/>
      <point x="866" y="346"/>
      <point x="838" y="395"/>
      <point x="838" y="437" type="curve" smooth="yes"/>
      <point x="838" y="486"/>
      <point x="872" y="516"/>
      <point x="926" y="516" type="curve" smooth="yes"/>
      <point x="978" y="516"/>
      <point x="1011" y="488"/>
      <point x="1011" y="434" type="curve" smooth="yes"/>
      <point x="1011" y="402"/>
      <point x="998" y="374"/>
      <point x="973" y="349" type="curve"/>
      <point x="1082" y="273" type="line"/>
      <point x="1133" y="328"/>
      <point x="1153" y="375"/>
    </contour>
  </outline>
</glyph>
<glyph name="da_cham" format="2">
  <advance width="1125"/>
  <unicode hex="AA15"/>
  <note>
uniAA15
</note>
  <outline>
    <contour>
      <point x="1079" y="434" type="curve" smooth="yes"/>
      <point x="1079" y="551"/>
      <point x="989" y="630"/>
      <point x="850" y="630" type="curve" smooth="yes"/>
      <point x="712" y="630"/>
      <point x="620" y="561"/>
      <point x="620" y="441" type="curve" smooth="yes"/>
      <point x="620" y="356"/>
      <point x="662" y="280"/>
      <point x="662" y="214" type="curve" smooth="yes"/>
      <point x="662" y="139"/>
      <point x="593" y="96"/>
      <point x="467" y="76" type="curve"/>
      <point x="458" y="-3" type="line"/>
      <point x="540" y="57"/>
      <point x="573" y="126"/>
      <point x="573" y="195" type="curve" smooth="yes"/>
      <point x="573" y="291"/>
      <point x="497" y="344"/>
      <point x="400" y="345" type="curve" smooth="yes"/>
      <point x="379" y="345"/>
      <point x="357" y="342"/>
      <point x="335" y="337" type="curve"/>
      <point x="370" y="259" type="line"/>
      <point x="458" y="290"/>
      <point x="508" y="364"/>
      <point x="508" y="440" type="curve" smooth="yes"/>
      <point x="508" y="555"/>
      <point x="413" y="630"/>
      <point x="279" y="630" type="curve" smooth="yes"/>
      <point x="140" y="630"/>
      <point x="46" y="550"/>
      <point x="46" y="430" type="curve" smooth="yes"/>
      <point x="46" y="376"/>
      <point x="67" y="318"/>
      <point x="119" y="271" type="curve"/>
      <point x="225" y="350" type="line"/>
      <point x="202" y="371"/>
      <point x="188" y="401"/>
      <point x="188" y="433" type="curve" smooth="yes"/>
      <point x="188" y="485"/>
      <point x="224" y="516"/>
      <point x="277" y="516" type="curve" smooth="yes"/>
      <point x="332" y="516"/>
      <point x="364" y="478"/>
      <point x="364" y="431" type="curve" smooth="yes"/>
      <point x="364" y="383"/>
      <point x="332" y="343"/>
      <point x="275" y="323" type="curve"/>
      <point x="302" y="242" type="line"/>
      <point x="318" y="248"/>
      <point x="334" y="252"/>
      <point x="351" y="252" type="curve" smooth="yes"/>
      <point x="393" y="252"/>
      <point x="432" y="226"/>
      <point x="432" y="170" type="curve" smooth="yes"/>
      <point x="432" y="118"/>
      <point x="412" y="80"/>
      <point x="361" y="15" type="curve"/>
      <point x="385" y="-54" type="line"/>
      <point x="630" y="-9"/>
      <point x="807" y="87"/>
      <point x="807" y="222" type="curve" smooth="yes"/>
      <point x="807" y="304"/>
      <point x="764" y="369"/>
      <point x="764" y="437" type="curve" smooth="yes"/>
      <point x="764" y="486"/>
      <point x="796" y="516"/>
      <point x="849" y="516" type="curve" smooth="yes"/>
      <point x="903" y="516"/>
      <point x="938" y="485"/>
      <point x="938" y="434" type="curve" smooth="yes"/>
      <point x="938" y="401"/>
      <point x="922" y="373"/>
      <point x="899" y="351" type="curve"/>
      <point x="1005" y="271" type="line"/>
      <point x="1058" y="318"/>
      <point x="1079" y="375"/>
    </contour>
  </outline>
</glyph>
<glyph name="dha_cham" format="2">
  <advance width="1135"/>
  <unicode hex="AA16"/>
  <note>
uniAA16
</note>
  <outline>
    <contour>
      <point x="1089" y="434" type="curve" smooth="yes"/>
      <point x="1089" y="551"/>
      <point x="999" y="630"/>
      <point x="861" y="630" type="curve" smooth="yes"/>
      <point x="722" y="630"/>
      <point x="635" y="560"/>
      <point x="635" y="461" type="curve" smooth="yes"/>
      <point x="635" y="424"/>
      <point x="648" y="388"/>
      <point x="648" y="364" type="curve" smooth="yes"/>
      <point x="648" y="260"/>
      <point x="500" y="265"/>
      <point x="500" y="135" type="curve" smooth="yes"/>
      <point x="500" y="103"/>
      <point x="507" y="82"/>
      <point x="537" y="57" type="curve"/>
      <point x="527" y="85" type="line"/>
      <point x="522" y="85"/>
      <point x="516" y="85"/>
      <point x="513" y="85" type="curve" smooth="yes"/>
      <point x="469" y="85"/>
      <point x="439" y="131"/>
      <point x="439" y="184" type="curve" smooth="yes"/>
      <point x="439" y="262"/>
      <point x="507" y="332"/>
      <point x="507" y="434" type="curve" smooth="yes"/>
      <point x="507" y="555"/>
      <point x="413" y="630"/>
      <point x="280" y="630" type="curve" smooth="yes"/>
      <point x="140" y="630"/>
      <point x="46" y="551"/>
      <point x="46" y="430" type="curve" smooth="yes"/>
      <point x="46" y="376"/>
      <point x="67" y="318"/>
      <point x="119" y="271" type="curve"/>
      <point x="224" y="350" type="line"/>
      <point x="202" y="372"/>
      <point x="188" y="401"/>
      <point x="188" y="433" type="curve" smooth="yes"/>
      <point x="188" y="485"/>
      <point x="224" y="516"/>
      <point x="277" y="516" type="curve" smooth="yes"/>
      <point x="332" y="516"/>
      <point x="363" y="478"/>
      <point x="363" y="428" type="curve" smooth="yes"/>
      <point x="363" y="345"/>
      <point x="294" y="277"/>
      <point x="294" y="182" type="curve" smooth="yes"/>
      <point x="294" y="66"/>
      <point x="391" y="-24"/>
      <point x="541" y="-24" type="curve" smooth="yes"/>
      <point x="570" y="-24"/>
      <point x="598" y="-24"/>
      <point x="616" y="-21" type="curve"/>
      <point x="649" y="55" type="line"/>
      <point x="626" y="81"/>
      <point x="616" y="96"/>
      <point x="616" y="120" type="curve" smooth="yes"/>
      <point x="616" y="216"/>
      <point x="787" y="206"/>
      <point x="787" y="348" type="curve" smooth="yes"/>
      <point x="787" y="383"/>
      <point x="775" y="412"/>
      <point x="775" y="439" type="curve" smooth="yes"/>
      <point x="775" y="486"/>
      <point x="807" y="516"/>
      <point x="860" y="516" type="curve" smooth="yes"/>
      <point x="913" y="516"/>
      <point x="948" y="485"/>
      <point x="948" y="434" type="curve" smooth="yes"/>
      <point x="948" y="402"/>
      <point x="932" y="374"/>
      <point x="909" y="351" type="curve"/>
      <point x="1015" y="272" type="line"/>
      <point x="1069" y="318"/>
      <point x="1089" y="375"/>
    </contour>
  </outline>
</glyph>
<glyph name="nue_cham" format="2">
  <advance width="1142"/>
  <unicode hex="AA17"/>
  <note>
uniAA17
</note>
  <outline>
    <contour>
      <point x="1096" y="433" type="curve" smooth="yes"/>
      <point x="1096" y="550"/>
      <point x="1007" y="630"/>
      <point x="871" y="630" type="curve" smooth="yes"/>
      <point x="732" y="630"/>
      <point x="648" y="551"/>
      <point x="648" y="439" type="curve" smooth="yes"/>
      <point x="648" y="356"/>
      <point x="686" y="288"/>
      <point x="686" y="218" type="curve" smooth="yes"/>
      <point x="686" y="166"/>
      <point x="658" y="105"/>
      <point x="629" y="82" type="curve"/>
      <point x="684" y="18" type="line"/>
      <point x="714" y="200"/>
      <point x="594" y="348"/>
      <point x="404" y="348" type="curve" smooth="yes"/>
      <point x="267" y="348"/>
      <point x="151" y="264"/>
      <point x="151" y="136" type="curve" smooth="yes"/>
      <point x="151" y="35"/>
      <point x="219" y="-24"/>
      <point x="316" y="-24" type="curve" smooth="yes"/>
      <point x="449" y="-24"/>
      <point x="542" y="101"/>
      <point x="542" y="290" type="curve" smooth="yes"/>
      <point x="542" y="508"/>
      <point x="436" y="630"/>
      <point x="272" y="630" type="curve" smooth="yes"/>
      <point x="141" y="630"/>
      <point x="58" y="558"/>
      <point x="58" y="456" type="curve" smooth="yes"/>
      <point x="58" y="389"/>
      <point x="89" y="336"/>
      <point x="130" y="306" type="curve"/>
      <point x="221" y="382" type="line"/>
      <point x="208" y="394"/>
      <point x="195" y="416"/>
      <point x="195" y="445" type="curve" smooth="yes"/>
      <point x="195" y="491"/>
      <point x="230" y="516"/>
      <point x="275" y="516" type="curve" smooth="yes"/>
      <point x="354" y="516"/>
      <point x="402" y="443"/>
      <point x="402" y="297" type="curve" smooth="yes"/>
      <point x="402" y="164"/>
      <point x="365" y="86"/>
      <point x="319" y="86" type="curve" smooth="yes"/>
      <point x="292" y="86"/>
      <point x="277" y="107"/>
      <point x="277" y="140" type="curve" smooth="yes"/>
      <point x="277" y="196"/>
      <point x="328" y="253"/>
      <point x="423" y="253" type="curve" smooth="yes"/>
      <point x="514" y="253"/>
      <point x="607" y="177"/>
      <point x="601" y="20" type="curve"/>
      <point x="658" y="-24" type="line"/>
      <point x="758" y="30"/>
      <point x="823" y="122"/>
      <point x="823" y="229" type="curve" smooth="yes"/>
      <point x="823" y="323"/>
      <point x="792" y="373"/>
      <point x="792" y="434" type="curve" smooth="yes"/>
      <point x="792" y="485"/>
      <point x="821" y="516"/>
      <point x="873" y="516" type="curve" smooth="yes"/>
      <point x="919" y="516"/>
      <point x="955" y="489"/>
      <point x="955" y="434" type="curve" smooth="yes"/>
      <point x="955" y="403"/>
      <point x="942" y="374"/>
      <point x="917" y="349" type="curve"/>
      <point x="1024" y="273" type="line"/>
      <point x="1076" y="325"/>
      <point x="1096" y="374"/>
    </contour>
  </outline>
</glyph>
<glyph name="na_cham" format="2">
  <advance width="1142"/>
  <unicode hex="AA18"/>
  <note>
uniAA18
</note>
  <outline>
    <contour>
      <point x="542" y="290" type="curve" smooth="yes"/>
      <point x="542" y="508"/>
      <point x="436" y="630"/>
      <point x="272" y="630" type="curve" smooth="yes"/>
      <point x="141" y="630"/>
      <point x="58" y="558"/>
      <point x="58" y="456" type="curve" smooth="yes"/>
      <point x="58" y="389"/>
      <point x="89" y="336"/>
      <point x="130" y="306" type="curve"/>
      <point x="221" y="382" type="line"/>
      <point x="208" y="394"/>
      <point x="195" y="416"/>
      <point x="195" y="445" type="curve" smooth="yes"/>
      <point x="195" y="491"/>
      <point x="230" y="516"/>
      <point x="275" y="516" type="curve" smooth="yes"/>
      <point x="354" y="516"/>
      <point x="402" y="443"/>
      <point x="402" y="297" type="curve" smooth="yes"/>
      <point x="402" y="164"/>
      <point x="365" y="86"/>
      <point x="319" y="86" type="curve" smooth="yes"/>
      <point x="292" y="86"/>
      <point x="277" y="107"/>
      <point x="277" y="140" type="curve" smooth="yes"/>
      <point x="277" y="196"/>
      <point x="328" y="253"/>
      <point x="423" y="253" type="curve" smooth="yes"/>
      <point x="514" y="253"/>
      <point x="607" y="177"/>
      <point x="601" y="20" type="curve"/>
      <point x="684" y="18" type="line"/>
      <point x="714" y="200"/>
      <point x="594" y="348"/>
      <point x="404" y="348" type="curve" smooth="yes"/>
      <point x="267" y="348"/>
      <point x="151" y="264"/>
      <point x="151" y="136" type="curve" smooth="yes"/>
      <point x="151" y="35"/>
      <point x="219" y="-24"/>
      <point x="316" y="-24" type="curve" smooth="yes"/>
      <point x="449" y="-24"/>
      <point x="542" y="101"/>
    </contour>
    <contour>
      <point x="1096" y="433" type="curve" smooth="yes"/>
      <point x="1096" y="550"/>
      <point x="1007" y="630"/>
      <point x="871" y="630" type="curve" smooth="yes"/>
      <point x="732" y="630"/>
      <point x="648" y="551"/>
      <point x="648" y="439" type="curve" smooth="yes"/>
      <point x="648" y="356"/>
      <point x="686" y="288"/>
      <point x="686" y="218" type="curve" smooth="yes"/>
      <point x="686" y="157"/>
      <point x="654" y="84"/>
      <point x="577" y="39" type="curve" smooth="yes"/>
      <point x="419" y="-52"/>
      <point x="375" y="-128"/>
      <point x="375" y="-191" type="curve" smooth="yes"/>
      <point x="375" y="-273"/>
      <point x="442" y="-328"/>
      <point x="519" y="-328" type="curve" smooth="yes"/>
      <point x="648" y="-328"/>
      <point x="673" y="-190"/>
      <point x="726" y="-190" type="curve" smooth="yes"/>
      <point x="744" y="-190"/>
      <point x="755" y="-200"/>
      <point x="755" y="-217" type="curve" smooth="yes"/>
      <point x="755" y="-228"/>
      <point x="751" y="-240"/>
      <point x="743" y="-251" type="curve"/>
      <point x="844" y="-295" type="line"/>
      <point x="865" y="-265"/>
      <point x="874" y="-224"/>
      <point x="874" y="-199" type="curve" smooth="yes"/>
      <point x="874" y="-135"/>
      <point x="821" y="-82"/>
      <point x="748" y="-82" type="curve" smooth="yes"/>
      <point x="630" y="-82"/>
      <point x="587" y="-219"/>
      <point x="535" y="-219" type="curve" smooth="yes"/>
      <point x="513" y="-219"/>
      <point x="498" y="-201"/>
      <point x="498" y="-180" type="curve" smooth="yes"/>
      <point x="498" y="-145"/>
      <point x="523" y="-101"/>
      <point x="646" y="-32" type="curve" smooth="yes"/>
      <point x="766" y="35"/>
      <point x="823" y="124"/>
      <point x="823" y="229" type="curve" smooth="yes"/>
      <point x="823" y="323"/>
      <point x="792" y="373"/>
      <point x="792" y="434" type="curve" smooth="yes"/>
      <point x="792" y="485"/>
      <point x="821" y="516"/>
      <point x="873" y="516" type="curve" smooth="yes"/>
      <point x="919" y="516"/>
      <point x="955" y="489"/>
      <point x="955" y="434" type="curve" smooth="yes"/>
      <point x="955" y="403"/>
      <point x="942" y="374"/>
      <point x="917" y="349" type="curve"/>
      <point x="1024" y="273" type="line"/>
      <point x="1076" y="325"/>
      <point x="1096" y="374"/>
    </contour>
  </outline>
</glyph>
<glyph name="dda_cham" format="2">
  <advance width="1142"/>
  <unicode hex="AA19"/>
  <note>
uniAA19
</note>
  <outline>
    <contour>
      <point x="1096" y="433" type="curve" smooth="yes"/>
      <point x="1096" y="550"/>
      <point x="1007" y="630"/>
      <point x="871" y="630" type="curve" smooth="yes"/>
      <point x="732" y="630"/>
      <point x="648" y="551"/>
      <point x="648" y="439" type="curve" smooth="yes"/>
      <point x="648" y="356"/>
      <point x="686" y="288"/>
      <point x="686" y="218" type="curve" smooth="yes"/>
      <point x="686" y="166"/>
      <point x="658" y="105"/>
      <point x="629" y="82" type="curve"/>
      <point x="684" y="18" type="line"/>
      <point x="714" y="200"/>
      <point x="594" y="348"/>
      <point x="404" y="348" type="curve" smooth="yes"/>
      <point x="267" y="348"/>
      <point x="151" y="264"/>
      <point x="151" y="136" type="curve" smooth="yes"/>
      <point x="151" y="35"/>
      <point x="219" y="-24"/>
      <point x="316" y="-24" type="curve" smooth="yes"/>
      <point x="334" y="-24"/>
      <point x="350" y="-23"/>
      <point x="366" y="-20" type="curve"/>
      <point x="318" y="57" type="line"/>
      <point x="142" y="-53"/>
      <point x="103" y="-128"/>
      <point x="103" y="-191" type="curve" smooth="yes"/>
      <point x="103" y="-273"/>
      <point x="170" y="-328"/>
      <point x="247" y="-328" type="curve" smooth="yes"/>
      <point x="376" y="-328"/>
      <point x="401" y="-190"/>
      <point x="454" y="-190" type="curve" smooth="yes"/>
      <point x="472" y="-190"/>
      <point x="483" y="-200"/>
      <point x="483" y="-217" type="curve" smooth="yes"/>
      <point x="483" y="-228"/>
      <point x="479" y="-240"/>
      <point x="471" y="-251" type="curve"/>
      <point x="572" y="-295" type="line"/>
      <point x="593" y="-265"/>
      <point x="602" y="-224"/>
      <point x="602" y="-199" type="curve" smooth="yes"/>
      <point x="602" y="-135"/>
      <point x="549" y="-82"/>
      <point x="476" y="-82" type="curve" smooth="yes"/>
      <point x="358" y="-82"/>
      <point x="315" y="-219"/>
      <point x="263" y="-219" type="curve" smooth="yes"/>
      <point x="241" y="-219"/>
      <point x="226" y="-201"/>
      <point x="226" y="-180" type="curve" smooth="yes"/>
      <point x="226" y="-145"/>
      <point x="255" y="-103"/>
      <point x="401" y="-10" type="curve" smooth="yes"/>
      <point x="511" y="60"/>
      <point x="542" y="166"/>
      <point x="542" y="290" type="curve" smooth="yes"/>
      <point x="542" y="508"/>
      <point x="436" y="630"/>
      <point x="272" y="630" type="curve" smooth="yes"/>
      <point x="141" y="630"/>
      <point x="58" y="558"/>
      <point x="58" y="456" type="curve" smooth="yes"/>
      <point x="58" y="389"/>
      <point x="89" y="336"/>
      <point x="130" y="306" type="curve"/>
      <point x="221" y="382" type="line"/>
      <point x="208" y="394"/>
      <point x="195" y="416"/>
      <point x="195" y="445" type="curve" smooth="yes"/>
      <point x="195" y="491"/>
      <point x="230" y="516"/>
      <point x="275" y="516" type="curve" smooth="yes"/>
      <point x="354" y="516"/>
      <point x="402" y="443"/>
      <point x="402" y="297" type="curve" smooth="yes"/>
      <point x="402" y="164"/>
      <point x="365" y="86"/>
      <point x="319" y="86" type="curve" smooth="yes"/>
      <point x="292" y="86"/>
      <point x="277" y="107"/>
      <point x="277" y="140" type="curve" smooth="yes"/>
      <point x="277" y="196"/>
      <point x="328" y="253"/>
      <point x="423" y="253" type="curve" smooth="yes"/>
      <point x="514" y="253"/>
      <point x="607" y="178"/>
      <point x="601" y="21" type="curve"/>
      <point x="658" y="-23" type="line"/>
      <point x="758" y="31"/>
      <point x="823" y="123"/>
      <point x="823" y="229" type="curve" smooth="yes"/>
      <point x="823" y="323"/>
      <point x="792" y="373"/>
      <point x="792" y="434" type="curve" smooth="yes"/>
      <point x="792" y="485"/>
      <point x="821" y="516"/>
      <point x="873" y="516" type="curve" smooth="yes"/>
      <point x="919" y="516"/>
      <point x="955" y="489"/>
      <point x="955" y="434" type="curve" smooth="yes"/>
      <point x="955" y="403"/>
      <point x="942" y="374"/>
      <point x="917" y="349" type="curve"/>
      <point x="1024" y="273" type="line"/>
      <point x="1076" y="325"/>
      <point x="1096" y="374"/>
    </contour>
  </outline>
</glyph>
<glyph name="pa_cham" format="2">
  <advance width="1235"/>
  <unicode hex="AA1A"/>
  <note>
uniAA1A
</note>
  <outline>
    <contour>
      <point x="1189" y="432" type="curve" smooth="yes"/>
      <point x="1189" y="550"/>
      <point x="1105" y="630"/>
      <point x="981" y="630" type="curve" smooth="yes"/>
      <point x="853" y="630"/>
      <point x="766" y="544"/>
      <point x="766" y="405" type="curve"/>
      <point x="851" y="405" type="line"/>
      <point x="851" y="544"/>
      <point x="760" y="630"/>
      <point x="631" y="630" type="curve" smooth="yes"/>
      <point x="510" y="630"/>
      <point x="427" y="552"/>
      <point x="427" y="442" type="curve" smooth="yes"/>
      <point x="427" y="354"/>
      <point x="470" y="292"/>
      <point x="470" y="213" type="curve" smooth="yes"/>
      <point x="470" y="120"/>
      <point x="410" y="71"/>
      <point x="312" y="71" type="curve" smooth="yes"/>
      <point x="219" y="71"/>
      <point x="162" y="117"/>
      <point x="162" y="179" type="curve" smooth="yes"/>
      <point x="162" y="221"/>
      <point x="188" y="250"/>
      <point x="232" y="250" type="curve" smooth="yes"/>
      <point x="276" y="250"/>
      <point x="303" y="218"/>
      <point x="303" y="164" type="curve" smooth="yes"/>
      <point x="303" y="132"/>
      <point x="292" y="92"/>
      <point x="278" y="66" type="curve"/>
      <point x="374" y="66" type="line"/>
      <point x="387" y="89"/>
      <point x="406" y="133"/>
      <point x="406" y="183" type="curve" smooth="yes"/>
      <point x="406" y="282"/>
      <point x="332" y="344"/>
      <point x="227" y="344" type="curve" smooth="yes"/>
      <point x="113" y="344"/>
      <point x="46" y="271"/>
      <point x="46" y="177" type="curve" smooth="yes"/>
      <point x="46" y="58"/>
      <point x="156" y="-24"/>
      <point x="336" y="-24" type="curve" smooth="yes"/>
      <point x="509" y="-24"/>
      <point x="612" y="68"/>
      <point x="612" y="204" type="curve" smooth="yes"/>
      <point x="612" y="301"/>
      <point x="572" y="361"/>
      <point x="572" y="434" type="curve" smooth="yes"/>
      <point x="572" y="482"/>
      <point x="604" y="516"/>
      <point x="656" y="516" type="curve" smooth="yes"/>
      <point x="713" y="516"/>
      <point x="752" y="476"/>
      <point x="747" y="387" type="curve"/>
      <point x="869" y="387" type="line"/>
      <point x="865" y="478"/>
      <point x="907" y="516"/>
      <point x="963" y="516" type="curve" smooth="yes"/>
      <point x="1014" y="516"/>
      <point x="1047" y="484"/>
      <point x="1047" y="433" type="curve" smooth="yes"/>
      <point x="1047" y="400"/>
      <point x="1035" y="373"/>
      <point x="1011" y="349" type="curve"/>
      <point x="1119" y="273" type="line"/>
      <point x="1170" y="325"/>
      <point x="1189" y="373"/>
    </contour>
  </outline>
</glyph>
<glyph name="ppa_cham" format="2">
  <advance width="1125"/>
  <unicode hex="AA1B"/>
  <note>
uniAA1B
</note>
  <outline>
    <contour>
      <point x="1079" y="434" type="curve" smooth="yes"/>
      <point x="1079" y="551"/>
      <point x="989" y="630"/>
      <point x="850" y="630" type="curve" smooth="yes"/>
      <point x="712" y="630"/>
      <point x="620" y="561"/>
      <point x="620" y="439" type="curve" smooth="yes"/>
      <point x="620" y="356"/>
      <point x="683" y="268"/>
      <point x="683" y="194" type="curve" smooth="yes"/>
      <point x="683" y="142"/>
      <point x="662" y="94"/>
      <point x="596" y="94" type="curve" smooth="yes"/>
      <point x="508" y="94"/>
      <point x="423" y="167"/>
      <point x="325" y="167" type="curve" smooth="yes"/>
      <point x="257" y="167"/>
      <point x="209" y="124"/>
      <point x="209" y="66" type="curve" smooth="yes"/>
      <point x="209" y="-3"/>
      <point x="269" y="-37"/>
      <point x="336" y="-37" type="curve" smooth="yes"/>
      <point x="472" y="-37"/>
      <point x="573" y="75"/>
      <point x="573" y="194" type="curve" smooth="yes"/>
      <point x="573" y="291"/>
      <point x="497" y="345"/>
      <point x="400" y="345" type="curve" smooth="yes"/>
      <point x="379" y="345"/>
      <point x="357" y="342"/>
      <point x="335" y="337" type="curve"/>
      <point x="370" y="259" type="line"/>
      <point x="458" y="290"/>
      <point x="508" y="364"/>
      <point x="508" y="440" type="curve" smooth="yes"/>
      <point x="508" y="555"/>
      <point x="412" y="630"/>
      <point x="279" y="630" type="curve" smooth="yes"/>
      <point x="140" y="630"/>
      <point x="46" y="550"/>
      <point x="46" y="430" type="curve" smooth="yes"/>
      <point x="46" y="376"/>
      <point x="67" y="318"/>
      <point x="119" y="271" type="curve"/>
      <point x="225" y="350" type="line"/>
      <point x="202" y="371"/>
      <point x="188" y="401"/>
      <point x="188" y="433" type="curve" smooth="yes"/>
      <point x="188" y="485"/>
      <point x="224" y="516"/>
      <point x="277" y="516" type="curve" smooth="yes"/>
      <point x="332" y="516"/>
      <point x="364" y="478"/>
      <point x="364" y="431" type="curve" smooth="yes"/>
      <point x="364" y="383"/>
      <point x="332" y="343"/>
      <point x="275" y="323" type="curve"/>
      <point x="302" y="242" type="line"/>
      <point x="317" y="248"/>
      <point x="335" y="252"/>
      <point x="351" y="252" type="curve" smooth="yes"/>
      <point x="393" y="252"/>
      <point x="431" y="226"/>
      <point x="431" y="170" type="curve" smooth="yes"/>
      <point x="431" y="96"/>
      <point x="395" y="28"/>
      <point x="330" y="28" type="curve" smooth="yes"/>
      <point x="300" y="28"/>
      <point x="279" y="42"/>
      <point x="279" y="64" type="curve" smooth="yes"/>
      <point x="279" y="89"/>
      <point x="300" y="102"/>
      <point x="330" y="102" type="curve" smooth="yes"/>
      <point x="425" y="102"/>
      <point x="503" y="-13"/>
      <point x="648" y="-13" type="curve" smooth="yes"/>
      <point x="760" y="-13"/>
      <point x="828" y="61"/>
      <point x="828" y="178" type="curve" smooth="yes"/>
      <point x="828" y="284"/>
      <point x="764" y="369"/>
      <point x="764" y="436" type="curve" smooth="yes"/>
      <point x="764" y="486"/>
      <point x="797" y="516"/>
      <point x="850" y="516" type="curve" smooth="yes"/>
      <point x="903" y="516"/>
      <point x="938" y="485"/>
      <point x="938" y="435" type="curve" smooth="yes"/>
      <point x="938" y="402"/>
      <point x="922" y="374"/>
      <point x="899" y="351" type="curve"/>
      <point x="1005" y="272" type="line"/>
      <point x="1058" y="318"/>
      <point x="1079" y="375"/>
    </contour>
  </outline>
</glyph>
<glyph name="pha_cham" format="2">
  <advance width="1620"/>
  <unicode hex="AA1C"/>
  <note>
uniAA1C
</note>
  <outline>
    <contour>
      <point x="1574" y="434" type="curve" smooth="yes"/>
      <point x="1574" y="551"/>
      <point x="1486" y="630"/>
      <point x="1348" y="630" type="curve" smooth="yes"/>
      <point x="1211" y="630"/>
      <point x="1125" y="563"/>
      <point x="1125" y="465" type="curve" smooth="yes"/>
      <point x="1125" y="395"/>
      <point x="1169" y="335"/>
      <point x="1169" y="288" type="curve" smooth="yes"/>
      <point x="1169" y="248"/>
      <point x="1124" y="216"/>
      <point x="1084" y="216" type="curve" smooth="yes"/>
      <point x="1043" y="216"/>
      <point x="1020" y="232"/>
      <point x="1020" y="257" type="curve" smooth="yes"/>
      <point x="1020" y="277"/>
      <point x="1036" y="284"/>
      <point x="1050" y="284" type="curve" smooth="yes"/>
      <point x="1082" y="284"/>
      <point x="1100" y="254"/>
      <point x="1100" y="200" type="curve" smooth="yes"/>
      <point x="1100" y="121"/>
      <point x="1055" y="86"/>
      <point x="985" y="86" type="curve" smooth="yes"/>
      <point x="907" y="86"/>
      <point x="862" y="132"/>
      <point x="862" y="195" type="curve" smooth="yes"/>
      <point x="862" y="264"/>
      <point x="917" y="337"/>
      <point x="917" y="443" type="curve" smooth="yes"/>
      <point x="917" y="558"/>
      <point x="814" y="630"/>
      <point x="668" y="630" type="curve" smooth="yes"/>
      <point x="522" y="630"/>
      <point x="427" y="552"/>
      <point x="427" y="442" type="curve" smooth="yes"/>
      <point x="427" y="354"/>
      <point x="470" y="293"/>
      <point x="470" y="213" type="curve" smooth="yes"/>
      <point x="470" y="120"/>
      <point x="410" y="71"/>
      <point x="312" y="71" type="curve" smooth="yes"/>
      <point x="219" y="71"/>
      <point x="162" y="117"/>
      <point x="162" y="179" type="curve" smooth="yes"/>
      <point x="162" y="221"/>
      <point x="188" y="250"/>
      <point x="232" y="250" type="curve" smooth="yes"/>
      <point x="276" y="250"/>
      <point x="303" y="218"/>
      <point x="303" y="164" type="curve" smooth="yes"/>
      <point x="303" y="132"/>
      <point x="292" y="92"/>
      <point x="278" y="66" type="curve"/>
      <point x="374" y="66" type="line"/>
      <point x="387" y="89"/>
      <point x="406" y="133"/>
      <point x="406" y="183" type="curve" smooth="yes"/>
      <point x="406" y="282"/>
      <point x="332" y="344"/>
      <point x="227" y="344" type="curve" smooth="yes"/>
      <point x="113" y="344"/>
      <point x="46" y="271"/>
      <point x="46" y="177" type="curve" smooth="yes"/>
      <point x="46" y="58"/>
      <point x="156" y="-24"/>
      <point x="336" y="-24" type="curve" smooth="yes"/>
      <point x="509" y="-24"/>
      <point x="612" y="68"/>
      <point x="612" y="204" type="curve" smooth="yes"/>
      <point x="612" y="301"/>
      <point x="571" y="363"/>
      <point x="571" y="429" type="curve" smooth="yes"/>
      <point x="571" y="481"/>
      <point x="610" y="516"/>
      <point x="674" y="516" type="curve" smooth="yes"/>
      <point x="737" y="516"/>
      <point x="772" y="479"/>
      <point x="772" y="427" type="curve" smooth="yes"/>
      <point x="772" y="352"/>
      <point x="717" y="280"/>
      <point x="717" y="180" type="curve" smooth="yes"/>
      <point x="717" y="59"/>
      <point x="810" y="-24"/>
      <point x="965" y="-24" type="curve" smooth="yes"/>
      <point x="1112" y="-24"/>
      <point x="1199" y="54"/>
      <point x="1199" y="193" type="curve" smooth="yes"/>
      <point x="1199" y="287"/>
      <point x="1131" y="348"/>
      <point x="1051" y="348" type="curve" smooth="yes"/>
      <point x="989" y="348"/>
      <point x="943" y="315"/>
      <point x="943" y="255" type="curve" smooth="yes"/>
      <point x="943" y="189"/>
      <point x="1004" y="149"/>
      <point x="1096" y="149" type="curve" smooth="yes"/>
      <point x="1192" y="149"/>
      <point x="1287" y="204"/>
      <point x="1287" y="295" type="curve" smooth="yes"/>
      <point x="1287" y="346"/>
      <point x="1259" y="395"/>
      <point x="1259" y="437" type="curve" smooth="yes"/>
      <point x="1259" y="486"/>
      <point x="1293" y="516"/>
      <point x="1348" y="516" type="curve" smooth="yes"/>
      <point x="1399" y="516"/>
      <point x="1433" y="488"/>
      <point x="1433" y="434" type="curve" smooth="yes"/>
      <point x="1433" y="402"/>
      <point x="1420" y="374"/>
      <point x="1394" y="349" type="curve"/>
      <point x="1503" y="273" type="line"/>
      <point x="1554" y="328"/>
      <point x="1574" y="375"/>
    </contour>
  </outline>
</glyph>
<glyph name="ba_cham" format="2">
  <advance width="1095"/>
  <unicode hex="AA1D"/>
  <note>
uniAA1D
</note>
  <outline>
    <contour>
      <point x="1049" y="428" type="curve" smooth="yes"/>
      <point x="1049" y="549"/>
      <point x="954" y="630"/>
      <point x="815" y="630" type="curve" smooth="yes"/>
      <point x="682" y="630"/>
      <point x="588" y="555"/>
      <point x="588" y="442" type="curve" smooth="yes"/>
      <point x="588" y="330"/>
      <point x="647" y="255"/>
      <point x="647" y="184" type="curve" smooth="yes"/>
      <point x="647" y="124"/>
      <point x="613" y="89"/>
      <point x="549" y="89" type="curve" smooth="yes"/>
      <point x="485" y="89"/>
      <point x="448" y="124"/>
      <point x="448" y="184" type="curve" smooth="yes"/>
      <point x="448" y="255"/>
      <point x="507" y="330"/>
      <point x="507" y="442" type="curve" smooth="yes"/>
      <point x="507" y="555"/>
      <point x="413" y="630"/>
      <point x="280" y="630" type="curve" smooth="yes"/>
      <point x="141" y="630"/>
      <point x="46" y="549"/>
      <point x="46" y="428" type="curve" smooth="yes"/>
      <point x="46" y="373"/>
      <point x="68" y="309"/>
      <point x="118" y="270" type="curve"/>
      <point x="223" y="350" type="line"/>
      <point x="205" y="368"/>
      <point x="188" y="400"/>
      <point x="188" y="432" type="curve" smooth="yes"/>
      <point x="188" y="483"/>
      <point x="222" y="516"/>
      <point x="276" y="516" type="curve" smooth="yes"/>
      <point x="331" y="516"/>
      <point x="363" y="481"/>
      <point x="363" y="429" type="curve" smooth="yes"/>
      <point x="363" y="352"/>
      <point x="297" y="280"/>
      <point x="297" y="181" type="curve" smooth="yes"/>
      <point x="297" y="59"/>
      <point x="392" y="-24"/>
      <point x="550" y="-24" type="curve" smooth="yes"/>
      <point x="708" y="-24"/>
      <point x="799" y="59"/>
      <point x="799" y="181" type="curve" smooth="yes"/>
      <point x="799" y="280"/>
      <point x="733" y="352"/>
      <point x="733" y="429" type="curve" smooth="yes"/>
      <point x="733" y="481"/>
      <point x="764" y="516"/>
      <point x="819" y="516" type="curve" smooth="yes"/>
      <point x="873" y="516"/>
      <point x="907" y="483"/>
      <point x="907" y="432" type="curve" smooth="yes"/>
      <point x="907" y="400"/>
      <point x="890" y="367"/>
      <point x="872" y="350" type="curve"/>
      <point x="977" y="270" type="line"/>
      <point x="1028" y="309"/>
      <point x="1049" y="373"/>
    </contour>
  </outline>
</glyph>
<glyph name="bha_cham" format="2">
  <advance width="1393"/>
  <unicode hex="AA1E"/>
  <note>
uniAA1E
</note>
  <outline>
    <contour>
      <point x="1347" y="432" type="curve" smooth="yes"/>
      <point x="1347" y="550"/>
      <point x="1263" y="630"/>
      <point x="1139" y="630" type="curve" smooth="yes"/>
      <point x="1011" y="630"/>
      <point x="923" y="544"/>
      <point x="923" y="405" type="curve"/>
      <point x="1010" y="405" type="line"/>
      <point x="1010" y="544"/>
      <point x="918" y="630"/>
      <point x="789" y="630" type="curve" smooth="yes"/>
      <point x="667" y="630"/>
      <point x="587" y="556"/>
      <point x="587" y="444" type="curve" smooth="yes"/>
      <point x="587" y="345"/>
      <point x="645" y="264"/>
      <point x="645" y="188" type="curve" smooth="yes"/>
      <point x="645" y="123"/>
      <point x="611" y="89"/>
      <point x="549" y="89" type="curve" smooth="yes"/>
      <point x="485" y="89"/>
      <point x="448" y="124"/>
      <point x="448" y="184" type="curve" smooth="yes"/>
      <point x="448" y="255"/>
      <point x="507" y="330"/>
      <point x="507" y="442" type="curve" smooth="yes"/>
      <point x="507" y="555"/>
      <point x="413" y="630"/>
      <point x="280" y="630" type="curve" smooth="yes"/>
      <point x="141" y="630"/>
      <point x="46" y="549"/>
      <point x="46" y="428" type="curve" smooth="yes"/>
      <point x="46" y="373"/>
      <point x="68" y="309"/>
      <point x="117" y="270" type="curve"/>
      <point x="223" y="350" type="line"/>
      <point x="205" y="368"/>
      <point x="188" y="400"/>
      <point x="188" y="432" type="curve" smooth="yes"/>
      <point x="188" y="483"/>
      <point x="221" y="516"/>
      <point x="276" y="516" type="curve" smooth="yes"/>
      <point x="331" y="516"/>
      <point x="362" y="481"/>
      <point x="362" y="429" type="curve" smooth="yes"/>
      <point x="362" y="352"/>
      <point x="296" y="280"/>
      <point x="296" y="181" type="curve" smooth="yes"/>
      <point x="296" y="59"/>
      <point x="392" y="-24"/>
      <point x="550" y="-24" type="curve" smooth="yes"/>
      <point x="705" y="-24"/>
      <point x="797" y="58"/>
      <point x="797" y="185" type="curve" smooth="yes"/>
      <point x="797" y="289"/>
      <point x="731" y="368"/>
      <point x="731" y="439" type="curve" smooth="yes"/>
      <point x="731" y="483"/>
      <point x="760" y="516"/>
      <point x="814" y="516" type="curve" smooth="yes"/>
      <point x="871" y="516"/>
      <point x="910" y="477"/>
      <point x="905" y="387" type="curve"/>
      <point x="1028" y="387" type="line"/>
      <point x="1023" y="479"/>
      <point x="1065" y="516"/>
      <point x="1120" y="516" type="curve" smooth="yes"/>
      <point x="1172" y="516"/>
      <point x="1205" y="484"/>
      <point x="1205" y="433" type="curve" smooth="yes"/>
      <point x="1205" y="400"/>
      <point x="1194" y="373"/>
      <point x="1169" y="349" type="curve"/>
      <point x="1277" y="273" type="line"/>
      <point x="1328" y="325"/>
      <point x="1347" y="373"/>
    </contour>
  </outline>
</glyph>
<glyph name="ma_cham" format="2">
  <advance width="1135"/>
  <unicode hex="AA20"/>
  <note>
uniAA20
</note>
  <outline>
    <contour>
      <point x="1009" y="-199" type="curve" smooth="yes"/>
      <point x="1009" y="-135"/>
      <point x="955" y="-82"/>
      <point x="883" y="-82" type="curve" smooth="yes"/>
      <point x="766" y="-82"/>
      <point x="730" y="-219"/>
      <point x="681" y="-219" type="curve" smooth="yes"/>
      <point x="660" y="-219"/>
      <point x="643" y="-201"/>
      <point x="643" y="-176" type="curve" smooth="yes"/>
      <point x="643" y="-111"/>
      <point x="749" y="24"/>
      <point x="749" y="162" type="curve" smooth="yes"/>
      <point x="749" y="266"/>
      <point x="665" y="346"/>
      <point x="533" y="369" type="curve"/>
      <point x="514" y="292" type="line"/>
      <point x="584" y="279"/>
      <point x="655" y="232"/>
      <point x="655" y="157" type="curve" smooth="yes"/>
      <point x="655" y="8"/>
      <point x="520" y="-91"/>
      <point x="520" y="-201" type="curve" smooth="yes"/>
      <point x="520" y="-276"/>
      <point x="584" y="-328"/>
      <point x="661" y="-328" type="curve" smooth="yes"/>
      <point x="784" y="-328"/>
      <point x="808" y="-190"/>
      <point x="861" y="-190" type="curve" smooth="yes"/>
      <point x="879" y="-190"/>
      <point x="890" y="-200"/>
      <point x="890" y="-217" type="curve" smooth="yes"/>
      <point x="890" y="-228"/>
      <point x="886" y="-240"/>
      <point x="878" y="-251" type="curve"/>
      <point x="979" y="-295" type="line"/>
      <point x="1000" y="-265"/>
      <point x="1009" y="-224"/>
    </contour>
    <component base="dha_withcrossstroke"/>
  </outline>
</glyph>
<glyph name="bba_cham" format="2">
  <advance width="1135"/>
  <unicode hex="AA21"/>
  <note>
uniAA21
</note>
  <outline>
    <contour>
      <point x="854" y="-121" type="curve" smooth="yes"/>
      <point x="854" y="59"/>
      <point x="754" y="204"/>
      <point x="556" y="345" type="curve"/>
      <point x="505" y="265" type="line"/>
      <point x="718" y="139"/>
      <point x="755" y="-7"/>
      <point x="755" y="-118" type="curve" smooth="yes"/>
      <point x="755" y="-205"/>
      <point x="734" y="-240"/>
      <point x="700" y="-240" type="curve" smooth="yes"/>
      <point x="669" y="-240"/>
      <point x="651" y="-206"/>
      <point x="651" y="-156" type="curve" smooth="yes"/>
      <point x="651" y="-95"/>
      <point x="697" y="24"/>
      <point x="861" y="190" type="curve"/>
      <point x="798" y="254" type="line"/>
      <point x="624" y="82"/>
      <point x="553" y="-51"/>
      <point x="553" y="-159" type="curve" smooth="yes"/>
      <point x="553" y="-261"/>
      <point x="611" y="-328"/>
      <point x="702" y="-328" type="curve" smooth="yes"/>
      <point x="795" y="-328"/>
      <point x="854" y="-254"/>
    </contour>
    <component base="dha_withcrossstroke"/>
  </outline>
</glyph>
<glyph name="ya_cham" format="2">
  <advance width="1402"/>
  <unicode hex="AA22"/>
  <note>
uniAA22
</note>
  <outline>
    <contour>
      <point x="1356" y="432" type="curve" smooth="yes"/>
      <point x="1356" y="550"/>
      <point x="1272" y="630"/>
      <point x="1148" y="630" type="curve" smooth="yes"/>
      <point x="1020" y="630"/>
      <point x="933" y="544"/>
      <point x="933" y="405" type="curve"/>
      <point x="1019" y="405" type="line"/>
      <point x="1019" y="544"/>
      <point x="928" y="630"/>
      <point x="799" y="630" type="curve" smooth="yes"/>
      <point x="678" y="630"/>
      <point x="595" y="554"/>
      <point x="595" y="440" type="curve" smooth="yes"/>
      <point x="595" y="349"/>
      <point x="635" y="285"/>
      <point x="635" y="233" type="curve" smooth="yes"/>
      <point x="635" y="160"/>
      <point x="572" y="121"/>
      <point x="447" y="89" type="curve"/>
      <point x="444" y="51" type="line"/>
      <point x="493" y="168"/>
      <point x="517" y="283"/>
      <point x="517" y="371" type="curve" smooth="yes"/>
      <point x="517" y="536"/>
      <point x="419" y="630"/>
      <point x="276" y="630" type="curve" smooth="yes"/>
      <point x="139" y="630"/>
      <point x="46" y="551"/>
      <point x="46" y="430" type="curve" smooth="yes"/>
      <point x="46" y="376"/>
      <point x="67" y="318"/>
      <point x="119" y="271" type="curve"/>
      <point x="224" y="350" type="line"/>
      <point x="202" y="372"/>
      <point x="188" y="401"/>
      <point x="188" y="433" type="curve" smooth="yes"/>
      <point x="188" y="485"/>
      <point x="222" y="516"/>
      <point x="273" y="516" type="curve" smooth="yes"/>
      <point x="338" y="516"/>
      <point x="373" y="453"/>
      <point x="373" y="364" type="curve" smooth="yes"/>
      <point x="373" y="262"/>
      <point x="336" y="116"/>
      <point x="283" y="12" type="curve"/>
      <point x="306" y="-54" type="line"/>
      <point x="600" y="-6"/>
      <point x="781" y="78"/>
      <point x="781" y="227" type="curve" smooth="yes"/>
      <point x="781" y="306"/>
      <point x="739" y="366"/>
      <point x="739" y="436" type="curve" smooth="yes"/>
      <point x="739" y="481"/>
      <point x="772" y="516"/>
      <point x="824" y="516" type="curve" smooth="yes"/>
      <point x="881" y="516"/>
      <point x="920" y="476"/>
      <point x="915" y="387" type="curve"/>
      <point x="1037" y="387" type="line"/>
      <point x="1032" y="478"/>
      <point x="1074" y="516"/>
      <point x="1130" y="516" type="curve" smooth="yes"/>
      <point x="1181" y="516"/>
      <point x="1215" y="484"/>
      <point x="1215" y="434" type="curve" smooth="yes"/>
      <point x="1215" y="400"/>
      <point x="1203" y="373"/>
      <point x="1179" y="349" type="curve"/>
      <point x="1286" y="272" type="line"/>
      <point x="1337" y="325"/>
      <point x="1356" y="373"/>
    </contour>
  </outline>
</glyph>
<glyph name="ra_cham" format="2">
  <advance width="939"/>
  <unicode hex="AA23"/>
  <note>
uniAA23
</note>
  <outline>
    <contour>
      <point x="893" y="427" type="curve" smooth="yes"/>
      <point x="893" y="548"/>
      <point x="798" y="630"/>
      <point x="658" y="630" type="curve" smooth="yes"/>
      <point x="523" y="630"/>
      <point x="428" y="555"/>
      <point x="428" y="442" type="curve" smooth="yes"/>
      <point x="428" y="354"/>
      <point x="470" y="293"/>
      <point x="470" y="213" type="curve" smooth="yes"/>
      <point x="470" y="120"/>
      <point x="410" y="71"/>
      <point x="312" y="71" type="curve" smooth="yes"/>
      <point x="219" y="71"/>
      <point x="162" y="117"/>
      <point x="162" y="179" type="curve" smooth="yes"/>
      <point x="162" y="221"/>
      <point x="188" y="250"/>
      <point x="232" y="250" type="curve" smooth="yes"/>
      <point x="276" y="250"/>
      <point x="303" y="218"/>
      <point x="303" y="164" type="curve" smooth="yes"/>
      <point x="303" y="132"/>
      <point x="292" y="92"/>
      <point x="278" y="66" type="curve"/>
      <point x="374" y="66" type="line"/>
      <point x="387" y="89"/>
      <point x="406" y="133"/>
      <point x="406" y="183" type="curve" smooth="yes"/>
      <point x="406" y="282"/>
      <point x="332" y="344"/>
      <point x="227" y="344" type="curve" smooth="yes"/>
      <point x="113" y="344"/>
      <point x="46" y="271"/>
      <point x="46" y="177" type="curve" smooth="yes"/>
      <point x="46" y="58"/>
      <point x="156" y="-24"/>
      <point x="336" y="-24" type="curve" smooth="yes"/>
      <point x="509" y="-24"/>
      <point x="612" y="68"/>
      <point x="612" y="204" type="curve" smooth="yes"/>
      <point x="612" y="301"/>
      <point x="572" y="361"/>
      <point x="572" y="430" type="curve" smooth="yes"/>
      <point x="572" y="480"/>
      <point x="605" y="516"/>
      <point x="661" y="516" type="curve" smooth="yes"/>
      <point x="717" y="516"/>
      <point x="751" y="482"/>
      <point x="751" y="431" type="curve" smooth="yes"/>
      <point x="751" y="398"/>
      <point x="735" y="366"/>
      <point x="716" y="348" type="curve"/>
      <point x="822" y="268" type="line"/>
      <point x="872" y="308"/>
      <point x="893" y="372"/>
    </contour>
  </outline>
</glyph>
<glyph name="la_cham" format="2">
  <advance width="921"/>
  <unicode hex="AA24"/>
  <note>
uniAA24
</note>
  <outline>
    <contour>
      <point x="875" y="439" type="curve" smooth="yes"/>
      <point x="875" y="559"/>
      <point x="798" y="630"/>
      <point x="692" y="630" type="curve" smooth="yes"/>
      <point x="576" y="630"/>
      <point x="551" y="550"/>
      <point x="490" y="550" type="curve" smooth="yes"/>
      <point x="429" y="550"/>
      <point x="401" y="630"/>
      <point x="285" y="630" type="curve" smooth="yes"/>
      <point x="160" y="630"/>
      <point x="71" y="512"/>
      <point x="71" y="322" type="curve" smooth="yes"/>
      <point x="71" y="106"/>
      <point x="194" y="-25"/>
      <point x="362" y="-25" type="curve" smooth="yes"/>
      <point x="452" y="-25"/>
      <point x="504" y="25"/>
      <point x="504" y="95" type="curve" smooth="yes"/>
      <point x="504" y="168"/>
      <point x="450" y="214"/>
      <point x="374" y="214" type="curve" smooth="yes"/>
      <point x="291" y="214"/>
      <point x="233" y="150"/>
      <point x="222" y="58" type="curve"/>
      <point x="292" y="58" type="line"/>
      <point x="298" y="100"/>
      <point x="324" y="143"/>
      <point x="373" y="143" type="curve" smooth="yes"/>
      <point x="399" y="143"/>
      <point x="424" y="131"/>
      <point x="424" y="96" type="curve" smooth="yes"/>
      <point x="424" y="69"/>
      <point x="406" y="51"/>
      <point x="375" y="51" type="curve" smooth="yes"/>
      <point x="286" y="51"/>
      <point x="215" y="140"/>
      <point x="215" y="324" type="curve" smooth="yes"/>
      <point x="215" y="440"/>
      <point x="260" y="508"/>
      <point x="320" y="508" type="curve" smooth="yes"/>
      <point x="393" y="508"/>
      <point x="411" y="427"/>
      <point x="490" y="427" type="curve" smooth="yes"/>
      <point x="569" y="427"/>
      <point x="587" y="508"/>
      <point x="660" y="508" type="curve" smooth="yes"/>
      <point x="702" y="508"/>
      <point x="734" y="479"/>
      <point x="734" y="429" type="curve" smooth="yes"/>
      <point x="734" y="398"/>
      <point x="722" y="373"/>
      <point x="697" y="349" type="curve"/>
      <point x="805" y="273" type="line"/>
      <point x="856" y="325"/>
      <point x="875" y="380"/>
    </contour>
  </outline>
</glyph>
<glyph name="ssa_cham" format="2">
  <advance width="1170"/>
  <unicode hex="AA26"/>
  <note>
uniAA26
</note>
  <outline>
    <contour>
      <point x="1124" y="434" type="curve" smooth="yes"/>
      <point x="1124" y="551"/>
      <point x="1034" y="630"/>
      <point x="896" y="630" type="curve" smooth="yes"/>
      <point x="757" y="630"/>
      <point x="670" y="560"/>
      <point x="670" y="461" type="curve" smooth="yes"/>
      <point x="670" y="424"/>
      <point x="683" y="388"/>
      <point x="683" y="364" type="curve" smooth="yes"/>
      <point x="683" y="260"/>
      <point x="535" y="265"/>
      <point x="535" y="135" type="curve" smooth="yes"/>
      <point x="535" y="103"/>
      <point x="542" y="82"/>
      <point x="572" y="57" type="curve"/>
      <point x="562" y="85" type="line"/>
      <point x="557" y="85"/>
      <point x="551" y="85"/>
      <point x="548" y="85" type="curve" smooth="yes"/>
      <point x="504" y="85"/>
      <point x="474" y="131"/>
      <point x="474" y="184" type="curve" smooth="yes"/>
      <point x="474" y="261"/>
      <point x="542" y="329"/>
      <point x="542" y="427" type="curve" smooth="yes"/>
      <point x="542" y="551"/>
      <point x="439" y="630"/>
      <point x="293" y="630" type="curve" smooth="yes"/>
      <point x="140" y="630"/>
      <point x="46" y="541"/>
      <point x="46" y="411" type="curve" smooth="yes"/>
      <point x="46" y="288"/>
      <point x="128" y="223"/>
      <point x="221" y="223" type="curve" smooth="yes"/>
      <point x="286" y="223"/>
      <point x="325" y="259"/>
      <point x="325" y="313" type="curve" smooth="yes"/>
      <point x="325" y="364"/>
      <point x="288" y="397"/>
      <point x="233" y="397" type="curve" smooth="yes"/>
      <point x="143" y="397"/>
      <point x="90" y="305"/>
      <point x="82" y="184" type="curve"/>
      <point x="147" y="180" type="line"/>
      <point x="156" y="266"/>
      <point x="179" y="341"/>
      <point x="230" y="341" type="curve" smooth="yes"/>
      <point x="246" y="341"/>
      <point x="262" y="333"/>
      <point x="262" y="311" type="curve" smooth="yes"/>
      <point x="262" y="298"/>
      <point x="256" y="283"/>
      <point x="232" y="283" type="curve" smooth="yes"/>
      <point x="194" y="283"/>
      <point x="167" y="322"/>
      <point x="167" y="398" type="curve" smooth="yes"/>
      <point x="167" y="475"/>
      <point x="213" y="516"/>
      <point x="288" y="516" type="curve" smooth="yes"/>
      <point x="354" y="516"/>
      <point x="398" y="476"/>
      <point x="398" y="416" type="curve" smooth="yes"/>
      <point x="398" y="338"/>
      <point x="329" y="275"/>
      <point x="329" y="182" type="curve" smooth="yes"/>
      <point x="329" y="66"/>
      <point x="426" y="-24"/>
      <point x="576" y="-24" type="curve" smooth="yes"/>
      <point x="605" y="-24"/>
      <point x="633" y="-24"/>
      <point x="651" y="-21" type="curve"/>
      <point x="684" y="55" type="line"/>
      <point x="661" y="81"/>
      <point x="651" y="96"/>
      <point x="651" y="120" type="curve" smooth="yes"/>
      <point x="651" y="216"/>
      <point x="822" y="206"/>
      <point x="822" y="348" type="curve" smooth="yes"/>
      <point x="822" y="383"/>
      <point x="810" y="412"/>
      <point x="810" y="439" type="curve" smooth="yes"/>
      <point x="810" y="486"/>
      <point x="842" y="516"/>
      <point x="895" y="516" type="curve" smooth="yes"/>
      <point x="948" y="516"/>
      <point x="983" y="485"/>
      <point x="983" y="434" type="curve" smooth="yes"/>
      <point x="983" y="402"/>
      <point x="967" y="374"/>
      <point x="944" y="351" type="curve"/>
      <point x="1050" y="272" type="line"/>
      <point x="1104" y="318"/>
      <point x="1124" y="375"/>
    </contour>
  </outline>
</glyph>
<glyph name="sa_cham" format="2">
  <advance width="1246"/>
  <unicode hex="AA27"/>
  <note>
uniAA27
</note>
  <outline>
    <contour>
      <point x="1200" y="439" type="curve" smooth="yes"/>
      <point x="1200" y="559"/>
      <point x="1124" y="630"/>
      <point x="1017" y="630" type="curve" smooth="yes"/>
      <point x="902" y="630"/>
      <point x="877" y="550"/>
      <point x="815" y="550" type="curve" smooth="yes"/>
      <point x="754" y="550"/>
      <point x="726" y="630"/>
      <point x="611" y="630" type="curve" smooth="yes"/>
      <point x="505" y="630"/>
      <point x="427" y="564"/>
      <point x="427" y="453" type="curve" smooth="yes"/>
      <point x="427" y="362"/>
      <point x="470" y="291"/>
      <point x="470" y="213" type="curve" smooth="yes"/>
      <point x="470" y="120"/>
      <point x="410" y="71"/>
      <point x="312" y="71" type="curve" smooth="yes"/>
      <point x="219" y="71"/>
      <point x="162" y="117"/>
      <point x="162" y="179" type="curve" smooth="yes"/>
      <point x="162" y="221"/>
      <point x="188" y="250"/>
      <point x="232" y="250" type="curve" smooth="yes"/>
      <point x="276" y="250"/>
      <point x="303" y="218"/>
      <point x="303" y="164" type="curve" smooth="yes"/>
      <point x="303" y="132"/>
      <point x="292" y="92"/>
      <point x="278" y="66" type="curve"/>
      <point x="374" y="66" type="line"/>
      <point x="387" y="89"/>
      <point x="406" y="133"/>
      <point x="406" y="183" type="curve" smooth="yes"/>
      <point x="406" y="282"/>
      <point x="332" y="344"/>
      <point x="227" y="344" type="curve" smooth="yes"/>
      <point x="113" y="344"/>
      <point x="46" y="271"/>
      <point x="46" y="177" type="curve" smooth="yes"/>
      <point x="46" y="58"/>
      <point x="156" y="-24"/>
      <point x="336" y="-24" type="curve" smooth="yes"/>
      <point x="509" y="-24"/>
      <point x="612" y="68"/>
      <point x="612" y="204" type="curve" smooth="yes"/>
      <point x="612" y="301"/>
      <point x="572" y="368"/>
      <point x="572" y="432" type="curve" smooth="yes"/>
      <point x="572" y="481"/>
      <point x="603" y="508"/>
      <point x="645" y="508" type="curve" smooth="yes"/>
      <point x="718" y="508"/>
      <point x="736" y="427"/>
      <point x="815" y="427" type="curve" smooth="yes"/>
      <point x="895" y="427"/>
      <point x="913" y="508"/>
      <point x="986" y="508" type="curve" smooth="yes"/>
      <point x="1027" y="508"/>
      <point x="1059" y="479"/>
      <point x="1059" y="429" type="curve" smooth="yes"/>
      <point x="1059" y="398"/>
      <point x="1047" y="373"/>
      <point x="1023" y="349" type="curve"/>
      <point x="1130" y="273" type="line"/>
      <point x="1181" y="325"/>
      <point x="1200" y="380"/>
    </contour>
  </outline>
</glyph>
<glyph name="ha_cham" format="2">
  <advance width="1236"/>
  <unicode hex="AA28"/>
  <note>
uniAA28
</note>
  <outline>
    <contour>
      <point x="1190" y="421" type="curve" smooth="yes"/>
      <point x="1190" y="546"/>
      <point x="1107" y="630"/>
      <point x="984" y="630" type="curve" smooth="yes"/>
      <point x="854" y="630"/>
      <point x="765" y="544"/>
      <point x="765" y="405" type="curve"/>
      <point x="851" y="405" type="line"/>
      <point x="851" y="544"/>
      <point x="760" y="630"/>
      <point x="631" y="630" type="curve" smooth="yes"/>
      <point x="510" y="630"/>
      <point x="427" y="552"/>
      <point x="427" y="442" type="curve" smooth="yes"/>
      <point x="427" y="354"/>
      <point x="470" y="293"/>
      <point x="470" y="213" type="curve" smooth="yes"/>
      <point x="470" y="120"/>
      <point x="410" y="71"/>
      <point x="312" y="71" type="curve" smooth="yes"/>
      <point x="219" y="71"/>
      <point x="162" y="117"/>
      <point x="162" y="179" type="curve" smooth="yes"/>
      <point x="162" y="221"/>
      <point x="188" y="250"/>
      <point x="232" y="250" type="curve" smooth="yes"/>
      <point x="276" y="250"/>
      <point x="303" y="218"/>
      <point x="303" y="164" type="curve" smooth="yes"/>
      <point x="303" y="132"/>
      <point x="292" y="92"/>
      <point x="278" y="66" type="curve"/>
      <point x="374" y="66" type="line"/>
      <point x="387" y="89"/>
      <point x="406" y="133"/>
      <point x="406" y="183" type="curve" smooth="yes"/>
      <point x="406" y="282"/>
      <point x="332" y="344"/>
      <point x="227" y="344" type="curve" smooth="yes"/>
      <point x="113" y="344"/>
      <point x="46" y="271"/>
      <point x="46" y="177" type="curve" smooth="yes"/>
      <point x="46" y="58"/>
      <point x="156" y="-24"/>
      <point x="336" y="-24" type="curve" smooth="yes"/>
      <point x="509" y="-24"/>
      <point x="612" y="68"/>
      <point x="612" y="204" type="curve" smooth="yes"/>
      <point x="612" y="301"/>
      <point x="572" y="361"/>
      <point x="572" y="434" type="curve" smooth="yes"/>
      <point x="572" y="482"/>
      <point x="604" y="516"/>
      <point x="656" y="516" type="curve" smooth="yes"/>
      <point x="713" y="516"/>
      <point x="752" y="476"/>
      <point x="747" y="387" type="curve"/>
      <point x="869" y="387" type="line"/>
      <point x="864" y="481"/>
      <point x="911" y="516"/>
      <point x="972" y="516" type="curve" smooth="yes"/>
      <point x="1031" y="516"/>
      <point x="1069" y="483"/>
      <point x="1069" y="411" type="curve" smooth="yes"/>
      <point x="1069" y="322"/>
      <point x="1042" y="279"/>
      <point x="985" y="279" type="curve" smooth="yes"/>
      <point x="959" y="279"/>
      <point x="947" y="292"/>
      <point x="947" y="308" type="curve" smooth="yes"/>
      <point x="947" y="326"/>
      <point x="962" y="337"/>
      <point x="982" y="337" type="curve" smooth="yes"/>
      <point x="1021" y="337"/>
      <point x="1046" y="306"/>
      <point x="1062" y="257" type="curve"/>
      <point x="1128" y="299" type="line"/>
      <point x="1095" y="363"/>
      <point x="1043" y="401"/>
      <point x="980" y="401" type="curve" smooth="yes"/>
      <point x="915" y="401"/>
      <point x="871" y="364"/>
      <point x="871" y="310" type="curve" smooth="yes"/>
      <point x="871" y="251"/>
      <point x="917" y="211"/>
      <point x="999" y="211" type="curve" smooth="yes"/>
      <point x="1121" y="211"/>
      <point x="1190" y="300"/>
    </contour>
  </outline>
</glyph>
<glyph name="aaSign_cham" format="2">
  <unicode hex="AA29"/>
  <note>
uniAA29
</note>
  <outline>
    <contour>
      <point x="162" y="916" type="curve" smooth="yes"/>
      <point x="162" y="1014"/>
      <point x="83" y="1081"/>
      <point x="-33" y="1081" type="curve" smooth="yes"/>
      <point x="-159" y="1081"/>
      <point x="-240" y="1014"/>
      <point x="-240" y="916" type="curve" smooth="yes"/>
      <point x="-240" y="789"/>
      <point x="-75" y="729"/>
      <point x="-75" y="640" type="curve" smooth="yes"/>
      <point x="-75" y="610"/>
      <point x="-93" y="582"/>
      <point x="-140" y="574" type="curve"/>
      <point x="-117" y="473" type="line"/>
      <point x="4" y="487"/>
      <point x="51" y="564"/>
      <point x="51" y="638" type="curve" smooth="yes"/>
      <point x="51" y="769"/>
      <point x="-113" y="829"/>
      <point x="-113" y="914" type="curve" smooth="yes"/>
      <point x="-113" y="955"/>
      <point x="-82" y="980"/>
      <point x="-33" y="980" type="curve" smooth="yes"/>
      <point x="13" y="980"/>
      <point x="42" y="953"/>
      <point x="42" y="916" type="curve" smooth="yes"/>
      <point x="42" y="894"/>
      <point x="34" y="877"/>
      <point x="24" y="864" type="curve"/>
      <point x="123" y="805" type="line"/>
      <point x="147" y="836"/>
      <point x="162" y="877"/>
    </contour>
  </outline>
</glyph>
<glyph name="iSign_cham" format="2">
  <unicode hex="AA2A"/>
  <note>
uniAA2A
</note>
  <outline>
    <contour>
      <point x="82" y="848" type="curve" smooth="yes"/>
      <point x="82" y="988"/>
      <point x="-23" y="1081"/>
      <point x="-158" y="1081" type="curve" smooth="yes"/>
      <point x="-299" y="1081"/>
      <point x="-392" y="998"/>
      <point x="-392" y="880" type="curve" smooth="yes"/>
      <point x="-392" y="780"/>
      <point x="-326" y="720"/>
      <point x="-217" y="720" type="curve" smooth="yes"/>
      <point x="-186" y="720" type="line" smooth="yes"/>
      <point x="-138" y="720"/>
      <point x="-117" y="701"/>
      <point x="-117" y="671" type="curve" smooth="yes"/>
      <point x="-117" y="638"/>
      <point x="-128" y="619"/>
      <point x="-179" y="572" type="curve"/>
      <point x="-98" y="502" type="line"/>
      <point x="14" y="615"/>
      <point x="82" y="732"/>
    </contour>
    <contour>
      <point x="-44" y="848" type="curve" smooth="yes"/>
      <point x="-44" y="802"/>
      <point x="-58" y="743"/>
      <point x="-78" y="702" type="curve"/>
      <point x="-50" y="702" type="line"/>
      <point x="-50" y="715" type="line" smooth="yes"/>
      <point x="-50" y="781"/>
      <point x="-85" y="814"/>
      <point x="-145" y="814" type="curve" smooth="yes"/>
      <point x="-191" y="814" type="line" smooth="yes"/>
      <point x="-241" y="814"/>
      <point x="-271" y="842"/>
      <point x="-271" y="888" type="curve" smooth="yes"/>
      <point x="-271" y="943"/>
      <point x="-230" y="982"/>
      <point x="-161" y="982" type="curve" smooth="yes"/>
      <point x="-91" y="982"/>
      <point x="-44" y="935"/>
    </contour>
  </outline>
</glyph>
<glyph name="iiSign_cham" format="2">
  <unicode hex="AA2B"/>
  <note>
uniAA2B
</note>
  <outline>
    <contour>
      <point x="-157" y="841" type="curve" smooth="yes"/>
      <point x="-125" y="841"/>
      <point x="-105" y="862"/>
      <point x="-105" y="893" type="curve" smooth="yes"/>
      <point x="-105" y="926"/>
      <point x="-125" y="946"/>
      <point x="-157" y="946" type="curve" smooth="yes"/>
      <point x="-190" y="946"/>
      <point x="-210" y="926"/>
      <point x="-210" y="893" type="curve" smooth="yes"/>
      <point x="-210" y="862"/>
      <point x="-190" y="841"/>
    </contour>
    <contour>
      <point x="82" y="848" type="curve" smooth="yes"/>
      <point x="82" y="988"/>
      <point x="-23" y="1081"/>
      <point x="-158" y="1081" type="curve" smooth="yes"/>
      <point x="-299" y="1081"/>
      <point x="-392" y="998"/>
      <point x="-392" y="880" type="curve" smooth="yes"/>
      <point x="-392" y="780"/>
      <point x="-326" y="720"/>
      <point x="-217" y="720" type="curve" smooth="yes"/>
      <point x="-186" y="720" type="line" smooth="yes"/>
      <point x="-138" y="720"/>
      <point x="-117" y="701"/>
      <point x="-117" y="671" type="curve" smooth="yes"/>
      <point x="-117" y="638"/>
      <point x="-128" y="619"/>
      <point x="-179" y="572" type="curve"/>
      <point x="-98" y="502" type="line"/>
      <point x="14" y="615"/>
      <point x="82" y="732"/>
    </contour>
    <contour>
      <point x="-35" y="846" type="curve" smooth="yes"/>
      <point x="-35" y="790"/>
      <point x="-52" y="733"/>
      <point x="-72" y="702" type="curve"/>
      <point x="-50" y="697" type="line"/>
      <point x="-50" y="710" type="line" smooth="yes"/>
      <point x="-50" y="776"/>
      <point x="-85" y="809"/>
      <point x="-145" y="809" type="curve" smooth="yes"/>
      <point x="-191" y="809" type="line" smooth="yes"/>
      <point x="-245" y="809"/>
      <point x="-277" y="839"/>
      <point x="-277" y="888" type="curve" smooth="yes"/>
      <point x="-277" y="947"/>
      <point x="-234" y="988"/>
      <point x="-161" y="988" type="curve" smooth="yes"/>
      <point x="-87" y="988"/>
      <point x="-35" y="944"/>
    </contour>
  </outline>
</glyph>
<glyph name="eiSign_cham" format="2">
  <unicode hex="AA2C"/>
  <note>
uniAA2C
</note>
  <outline>
    <contour>
      <point x="82" y="848" type="curve" smooth="yes"/>
      <point x="82" y="988"/>
      <point x="-23" y="1081"/>
      <point x="-158" y="1081" type="curve" smooth="yes"/>
      <point x="-299" y="1081"/>
      <point x="-392" y="998"/>
      <point x="-392" y="880" type="curve" smooth="yes"/>
      <point x="-392" y="780"/>
      <point x="-326" y="720"/>
      <point x="-217" y="720" type="curve" smooth="yes"/>
      <point x="-186" y="720" type="line" smooth="yes"/>
      <point x="-138" y="720"/>
      <point x="-117" y="701"/>
      <point x="-117" y="671" type="curve" smooth="yes"/>
      <point x="-117" y="638"/>
      <point x="-128" y="619"/>
      <point x="-179" y="572" type="curve"/>
      <point x="-98" y="502" type="line"/>
      <point x="14" y="615"/>
      <point x="82" y="732"/>
    </contour>
    <contour>
      <point x="-29" y="858" type="curve" smooth="yes"/>
      <point x="-29" y="798"/>
      <point x="-52" y="733"/>
      <point x="-72" y="702" type="curve"/>
      <point x="-50" y="697" type="line"/>
      <point x="-50" y="710" type="line" smooth="yes"/>
      <point x="-50" y="776"/>
      <point x="-85" y="809"/>
      <point x="-145" y="809" type="curve" smooth="yes"/>
      <point x="-191" y="809" type="line" smooth="yes"/>
      <point x="-245" y="809"/>
      <point x="-277" y="839"/>
      <point x="-277" y="888" type="curve" smooth="yes"/>
      <point x="-277" y="947"/>
      <point x="-234" y="988"/>
      <point x="-161" y="988" type="curve" smooth="yes"/>
      <point x="-87" y="988"/>
      <point x="-29" y="962"/>
    </contour>
    <contour>
      <point x="-160" y="937" type="curve"/>
      <point x="-160" y="857" type="line"/>
      <point x="14" y="837"/>
      <point x="100" y="859"/>
      <point x="195" y="906" type="curve"/>
      <point x="163" y="979" type="line"/>
      <point x="77" y="938"/>
      <point x="-13" y="918"/>
    </contour>
  </outline>
</glyph>
<glyph name="uSign_cham" format="2">
  <unicode hex="AA2D"/>
  <note>
Used with double marks below. Right side-bearing is increased and kerned with following bases to accommodate marks shifted right.
</note>
  <outline>
    <contour>
      <point x="12" y="131" type="curve"/>
      <point x="-61" y="131" type="line"/>
      <point x="-69" y="96"/>
      <point x="-90" y="79"/>
      <point x="-110" y="79" type="curve" smooth="yes"/>
      <point x="-157" y="79"/>
      <point x="-207" y="130"/>
      <point x="-260" y="130" type="curve" smooth="yes"/>
      <point x="-329" y="130"/>
      <point x="-385" y="83"/>
      <point x="-393" y="-21" type="curve"/>
      <point x="-320" y="-21" type="line"/>
      <point x="-312" y="14"/>
      <point x="-291" y="31"/>
      <point x="-271" y="31" type="curve" smooth="yes"/>
      <point x="-224" y="31"/>
      <point x="-174" y="-20"/>
      <point x="-121" y="-20" type="curve" smooth="yes"/>
      <point x="-53" y="-20"/>
      <point x="4" y="28"/>
    </contour>
  </outline>
</glyph>
<glyph name="oeSign_cham" format="2">
  <unicode hex="AA2E"/>
  <note>
uniAA2E
</note>
  <outline>
    <contour>
      <point x="17" y="965" type="curve"/>
      <point x="-112" y="965" type="line"/>
      <point x="-112" y="881"/>
      <point x="-174" y="831"/>
      <point x="-253" y="831" type="curve" smooth="yes"/>
      <point x="-292" y="831"/>
      <point x="-331" y="842"/>
      <point x="-360" y="860" type="curve"/>
      <point x="-431" y="776" type="line"/>
      <point x="-391" y="741"/>
      <point x="-315" y="727"/>
      <point x="-247" y="727" type="curve" smooth="yes"/>
      <point x="-80" y="727"/>
      <point x="17" y="848"/>
    </contour>
  </outline>
</glyph>
<glyph name="oSign_cham" format="2">
  <advance width="594"/>
  <unicode hex="AA2F"/>
  <note>
uniAA2F
</note>
  <outline>
    <contour>
      <point x="564" y="451" type="line"/>
      <point x="541" y="563"/>
      <point x="451" y="630"/>
      <point x="324" y="630" type="curve" smooth="yes"/>
      <point x="165" y="630"/>
      <point x="59" y="523"/>
      <point x="59" y="362" type="curve" smooth="yes"/>
      <point x="59" y="198"/>
      <point x="177" y="102"/>
      <point x="305" y="102" type="curve" smooth="yes"/>
      <point x="391" y="102"/>
      <point x="443" y="152"/>
      <point x="443" y="223" type="curve" smooth="yes"/>
      <point x="443" y="293"/>
      <point x="394" y="337"/>
      <point x="321" y="337" type="curve" smooth="yes"/>
      <point x="239" y="337"/>
      <point x="184" y="273"/>
      <point x="174" y="183" type="curve"/>
      <point x="235" y="183" type="line"/>
      <point x="240" y="224"/>
      <point x="267" y="267"/>
      <point x="313" y="267" type="curve" smooth="yes"/>
      <point x="340" y="267"/>
      <point x="367" y="255"/>
      <point x="367" y="221" type="curve" smooth="yes"/>
      <point x="367" y="195"/>
      <point x="344" y="176"/>
      <point x="312" y="176" type="curve" smooth="yes"/>
      <point x="248" y="176"/>
      <point x="192" y="233"/>
      <point x="192" y="356" type="curve" smooth="yes"/>
      <point x="192" y="457"/>
      <point x="245" y="516"/>
      <point x="324" y="516" type="curve" smooth="yes"/>
      <point x="386" y="516"/>
      <point x="428" y="481"/>
      <point x="442" y="416" type="curve"/>
    </contour>
  </outline>
</glyph>
<glyph name="auSign_cham" format="2">
  <unicode hex="AA31"/>
  <outline>
    <contour>
      <point x="201" y="1028" type="curve"/>
      <point x="92" y="1065" type="line"/>
      <point x="76" y="1016"/>
      <point x="55" y="982"/>
      <point x="24" y="982" type="curve" smooth="yes"/>
      <point x="-16" y="982"/>
      <point x="-94" y="1041"/>
      <point x="-161" y="1041" type="curve" smooth="yes"/>
      <point x="-251" y="1041"/>
      <point x="-322" y="973"/>
      <point x="-322" y="898" type="curve" smooth="yes"/>
      <point x="-322" y="822"/>
      <point x="-273" y="784"/>
      <point x="-206" y="740" type="curve" smooth="yes"/>
      <point x="-146" y="701"/>
      <point x="-122" y="679"/>
      <point x="-122" y="647" type="curve" smooth="yes"/>
      <point x="-122" y="617"/>
      <point x="-140" y="592"/>
      <point x="-191" y="564" type="curve"/>
      <point x="-116" y="482" type="line"/>
      <point x="-43" y="522"/>
      <point x="3" y="579"/>
      <point x="3" y="649" type="curve" smooth="yes"/>
      <point x="3" y="728"/>
      <point x="-52" y="771"/>
      <point x="-119" y="814" type="curve" smooth="yes"/>
      <point x="-177" y="851"/>
      <point x="-200" y="868"/>
      <point x="-200" y="895" type="curve" smooth="yes"/>
      <point x="-200" y="916"/>
      <point x="-181" y="934"/>
      <point x="-151" y="934" type="curve" smooth="yes"/>
      <point x="-105" y="934"/>
      <point x="-35" y="874"/>
      <point x="41" y="874" type="curve" smooth="yes"/>
      <point x="110" y="874"/>
      <point x="175" y="931"/>
    </contour>
  </outline>
</glyph>
<glyph name="ueSign_cham" format="2">
  <unicode hex="AA32"/>
  <note>
uniAA32
</note>
  <outline>
    <contour>
      <point x="-100" y="144" type="curve"/>
      <point x="-219" y="100" type="line"/>
      <point x="-203" y="71"/>
      <point x="-193" y="35"/>
      <point x="-193" y="-5" type="curve" smooth="yes"/>
      <point x="-193" y="-54"/>
      <point x="-209" y="-109"/>
      <point x="-233" y="-165" type="curve"/>
      <point x="-116" y="-202" type="line"/>
      <point x="-85" y="-141"/>
      <point x="-64" y="-66"/>
      <point x="-64" y="4" type="curve" smooth="yes"/>
      <point x="-64" y="62"/>
      <point x="-78" y="111"/>
    </contour>
  </outline>
</glyph>
<glyph name="yaMedial_cham" format="2">
  <advance width="608"/>
  <unicode hex="AA33"/>
  <note>
uniAA33
</note>
  <outline>
    <contour>
      <point x="562" y="434" type="curve" smooth="yes"/>
      <point x="562" y="551"/>
      <point x="471" y="630"/>
      <point x="333" y="630" type="curve" smooth="yes"/>
      <point x="194" y="630"/>
      <point x="109" y="559"/>
      <point x="109" y="454" type="curve" smooth="yes"/>
      <point x="109" y="410"/>
      <point x="126" y="360"/>
      <point x="126" y="328" type="curve" smooth="yes"/>
      <point x="126" y="296"/>
      <point x="113" y="274"/>
      <point x="73" y="254" type="curve"/>
      <point x="87" y="245" type="line"/>
      <point x="95" y="346"/>
      <point x="31" y="446"/>
      <point x="-93" y="462" type="curve"/>
      <point x="-85" y="339" type="line"/>
      <point x="-37" y="336"/>
      <point x="3" y="292"/>
      <point x="3" y="232" type="curve" smooth="yes"/>
      <point x="3" y="216"/>
      <point x="2" y="200"/>
      <point x="-2" y="185" type="curve"/>
      <point x="24" y="141" type="line"/>
      <point x="171" y="177"/>
      <point x="259" y="239"/>
      <point x="259" y="325" type="curve" smooth="yes"/>
      <point x="259" y="368"/>
      <point x="247" y="405"/>
      <point x="247" y="439" type="curve" smooth="yes"/>
      <point x="247" y="486"/>
      <point x="279" y="516"/>
      <point x="333" y="516" type="curve" smooth="yes"/>
      <point x="384" y="516"/>
      <point x="421" y="488"/>
      <point x="421" y="434" type="curve" smooth="yes"/>
      <point x="421" y="402"/>
      <point x="408" y="374"/>
      <point x="383" y="349" type="curve"/>
      <point x="491" y="273" type="line"/>
      <point x="542" y="328"/>
      <point x="562" y="375"/>
    </contour>
  </outline>
</glyph>
<glyph name="raMedial_cham" format="2">
  <advance width="435"/>
  <unicode hex="AA34"/>
  <note>
uniAA34
</note>
  <outline>
    <contour>
      <point x="936" y="-359" type="curve"/>
      <point x="992" y="-263" type="line"/>
      <point x="886" y="-187"/>
      <point x="782" y="-148"/>
      <point x="710" y="-148" type="curve" smooth="yes"/>
      <point x="621" y="-148"/>
      <point x="551" y="-199"/>
      <point x="531" y="-299" type="curve"/>
      <point x="589" y="-274" type="line"/>
      <point x="416" y="-176"/>
      <point x="275" y="66"/>
      <point x="275" y="326" type="curve" smooth="yes"/>
      <point x="275" y="526"/>
      <point x="355" y="709"/>
      <point x="510" y="864" type="curve"/>
      <point x="456" y="960" type="line"/>
      <point x="194" y="960" type="line" smooth="yes"/>
      <point x="66" y="960"/>
      <point x="-18" y="890"/>
      <point x="-18" y="794" type="curve" smooth="yes"/>
      <point x="-18" y="753"/>
      <point x="-10" y="724"/>
      <point x="22" y="680" type="curve"/>
      <point x="130" y="746" type="line"/>
      <point x="119" y="765"/>
      <point x="115" y="776"/>
      <point x="115" y="792" type="curve" smooth="yes"/>
      <point x="115" y="821"/>
      <point x="140" y="848"/>
      <point x="196" y="848" type="curve" smooth="yes"/>
      <point x="456" y="848" type="line"/>
      <point x="403" y="913" type="line"/>
      <point x="216" y="744"/>
      <point x="125" y="549"/>
      <point x="125" y="326" type="curve" smooth="yes"/>
      <point x="125" y="27"/>
      <point x="288" y="-239"/>
      <point x="519" y="-359" type="curve"/>
      <point x="622" y="-326" type="line"/>
      <point x="638" y="-284"/>
      <point x="672" y="-260"/>
      <point x="713" y="-260" type="curve" smooth="yes"/>
      <point x="764" y="-260"/>
      <point x="828" y="-288"/>
    </contour>
  </outline>
</glyph>
<glyph name="laMedial_cham" format="2">
  <unicode hex="AA35"/>
  <note>
uniAA35
</note>
  <outline>
    <contour>
      <point x="50" y="161" type="curve"/>
      <point x="-42" y="194" type="line"/>
      <point x="-50" y="161"/>
      <point x="-65" y="141"/>
      <point x="-98" y="141" type="curve" smooth="yes"/>
      <point x="-129" y="141"/>
      <point x="-172" y="158"/>
      <point x="-217" y="158" type="curve" smooth="yes"/>
      <point x="-325" y="158"/>
      <point x="-382" y="68"/>
      <point x="-382" y="-40" type="curve" smooth="yes"/>
      <point x="-382" y="-164"/>
      <point x="-311" y="-215"/>
      <point x="-228" y="-215" type="curve" smooth="yes"/>
      <point x="-165" y="-215"/>
      <point x="-110" y="-172"/>
      <point x="-110" y="-101" type="curve" smooth="yes"/>
      <point x="-110" y="-20"/>
      <point x="-179" y="24"/>
      <point x="-277" y="24" type="curve" smooth="yes"/>
      <point x="-302" y="24"/>
      <point x="-324" y="21"/>
      <point x="-347" y="15" type="curve"/>
      <point x="-336" y="-70" type="line"/>
      <point x="-316" y="-57"/>
      <point x="-293" y="-51"/>
      <point x="-271" y="-51" type="curve" smooth="yes"/>
      <point x="-227" y="-51"/>
      <point x="-203" y="-68"/>
      <point x="-203" y="-98" type="curve" smooth="yes"/>
      <point x="-203" y="-118"/>
      <point x="-215" y="-132"/>
      <point x="-234" y="-132" type="curve" smooth="yes"/>
      <point x="-260" y="-132"/>
      <point x="-289" y="-108"/>
      <point x="-289" y="-42" type="curve" smooth="yes"/>
      <point x="-289" y="18"/>
      <point x="-256" y="57"/>
      <point x="-200" y="57" type="curve" smooth="yes"/>
      <point x="-158" y="57"/>
      <point x="-123" y="35"/>
      <point x="-65" y="35" type="curve" smooth="yes"/>
      <point x="-5" y="35"/>
      <point x="35" y="82"/>
    </contour>
  </outline>
</glyph>
<glyph name="waMedial_cham" format="2">
  <unicode hex="AA36"/>
  <note>
uniAA36
</note>
  <outline>
    <contour>
      <point x="-52" y="189" type="line"/>
      <point x="-210" y="132"/>
      <point x="-296" y="29"/>
      <point x="-296" y="-67" type="curve" smooth="yes"/>
      <point x="-296" y="-150"/>
      <point x="-240" y="-213"/>
      <point x="-155" y="-213" type="curve" smooth="yes"/>
      <point x="-69" y="-213"/>
      <point x="-13" y="-150"/>
      <point x="-13" y="-67" type="curve" smooth="yes"/>
      <point x="-13" y="29"/>
      <point x="-100" y="132"/>
      <point x="-259" y="189" type="curve"/>
      <point x="-291" y="111" type="line"/>
      <point x="-157" y="58"/>
      <point x="-110" y="-12"/>
      <point x="-110" y="-66" type="curve" smooth="yes"/>
      <point x="-110" y="-100"/>
      <point x="-127" y="-128"/>
      <point x="-155" y="-128" type="curve" smooth="yes"/>
      <point x="-182" y="-128"/>
      <point x="-198" y="-100"/>
      <point x="-198" y="-66" type="curve" smooth="yes"/>
      <point x="-198" y="-12"/>
      <point x="-152" y="58"/>
      <point x="-17" y="111" type="curve"/>
    </contour>
  </outline>
</glyph>
<glyph name="kFinal_cham" format="2">
  <advance width="960"/>
  <unicode hex="AA40"/>
  <note>
uniAA40
</note>
  <outline>
    <contour>
      <point x="889" y="342" type="curve" smooth="yes"/>
      <point x="889" y="519"/>
      <point x="803" y="630"/>
      <point x="661" y="630" type="curve" smooth="yes"/>
      <point x="535" y="630"/>
      <point x="446" y="544"/>
      <point x="446" y="405" type="curve"/>
      <point x="532" y="405" type="line"/>
      <point x="532" y="544"/>
      <point x="441" y="630"/>
      <point x="312" y="630" type="curve" smooth="yes"/>
      <point x="191" y="630"/>
      <point x="108" y="551"/>
      <point x="108" y="442" type="curve" smooth="yes"/>
      <point x="108" y="344"/>
      <point x="170" y="265"/>
      <point x="170" y="194" type="curve" smooth="yes"/>
      <point x="170" y="121"/>
      <point x="121" y="79"/>
      <point x="45" y="63" type="curve"/>
      <point x="71" y="-56" type="line"/>
      <point x="223" y="-32"/>
      <point x="315" y="58"/>
      <point x="315" y="184" type="curve" smooth="yes"/>
      <point x="315" y="284"/>
      <point x="253" y="365"/>
      <point x="253" y="434" type="curve" smooth="yes"/>
      <point x="253" y="482"/>
      <point x="284" y="516"/>
      <point x="337" y="516" type="curve" smooth="yes"/>
      <point x="394" y="516"/>
      <point x="433" y="476"/>
      <point x="428" y="386" type="curve"/>
      <point x="550" y="386" type="line"/>
      <point x="546" y="480"/>
      <point x="591" y="516"/>
      <point x="643" y="516" type="curve" smooth="yes"/>
      <point x="709" y="516"/>
      <point x="744" y="453"/>
      <point x="744" y="343" type="curve" smooth="yes"/>
      <point x="744" y="200"/>
      <point x="669" y="59"/>
      <point x="549" y="-36" type="curve"/>
      <point x="650" y="-129" type="line"/>
      <point x="796" y="-12"/>
      <point x="889" y="167"/>
    </contour>
  </outline>
</glyph>
<glyph name="gFinal_cham" format="2">
  <advance width="977"/>
  <unicode hex="AA41"/>
  <note>
uniAA41
</note>
  <outline>
    <contour>
      <point x="906" y="342" type="curve" smooth="yes"/>
      <point x="906" y="520"/>
      <point x="817" y="630"/>
      <point x="668" y="630" type="curve" smooth="yes"/>
      <point x="536" y="630"/>
      <point x="446" y="542"/>
      <point x="446" y="403" type="curve"/>
      <point x="532" y="403" type="line"/>
      <point x="532" y="542"/>
      <point x="449" y="630"/>
      <point x="321" y="630" type="curve" smooth="yes"/>
      <point x="168" y="630"/>
      <point x="71" y="512"/>
      <point x="71" y="321" type="curve" smooth="yes"/>
      <point x="71" y="106"/>
      <point x="194" y="-25"/>
      <point x="362" y="-25" type="curve" smooth="yes"/>
      <point x="452" y="-25"/>
      <point x="504" y="25"/>
      <point x="504" y="95" type="curve" smooth="yes"/>
      <point x="504" y="168"/>
      <point x="450" y="214"/>
      <point x="374" y="214" type="curve" smooth="yes"/>
      <point x="291" y="214"/>
      <point x="233" y="150"/>
      <point x="222" y="58" type="curve"/>
      <point x="292" y="58" type="line"/>
      <point x="298" y="100"/>
      <point x="324" y="143"/>
      <point x="373" y="143" type="curve" smooth="yes"/>
      <point x="399" y="143"/>
      <point x="424" y="131"/>
      <point x="424" y="96" type="curve" smooth="yes"/>
      <point x="424" y="69"/>
      <point x="406" y="51"/>
      <point x="375" y="51" type="curve" smooth="yes"/>
      <point x="286" y="51"/>
      <point x="215" y="140"/>
      <point x="215" y="324" type="curve" smooth="yes"/>
      <point x="215" y="445"/>
      <point x="261" y="516"/>
      <point x="335" y="516" type="curve" smooth="yes"/>
      <point x="393" y="516"/>
      <point x="433" y="473"/>
      <point x="428" y="386" type="curve"/>
      <point x="550" y="386" type="line"/>
      <point x="546" y="478"/>
      <point x="594" y="516"/>
      <point x="650" y="516" type="curve" smooth="yes"/>
      <point x="722" y="516"/>
      <point x="761" y="453"/>
      <point x="761" y="343" type="curve" smooth="yes"/>
      <point x="761" y="201"/>
      <point x="687" y="59"/>
      <point x="567" y="-38" type="curve"/>
      <point x="670" y="-130" type="line"/>
      <point x="815" y="-8"/>
      <point x="906" y="169"/>
    </contour>
  </outline>
</glyph>
<glyph name="ngFinal_cham" format="2">
  <advance width="1220"/>
  <unicode hex="AA42"/>
  <note>
uniAA42
</note>
  <outline>
    <contour>
      <point x="1174" y="401" type="curve" smooth="yes"/>
      <point x="1174" y="546"/>
      <point x="1060" y="630"/>
      <point x="905" y="630" type="curve" smooth="yes"/>
      <point x="742" y="630"/>
      <point x="634" y="542"/>
      <point x="634" y="410" type="curve" smooth="yes"/>
      <point x="634" y="297"/>
      <point x="710" y="219"/>
      <point x="811" y="219" type="curve" smooth="yes"/>
      <point x="882" y="219"/>
      <point x="923" y="257"/>
      <point x="923" y="317" type="curve" smooth="yes"/>
      <point x="923" y="372"/>
      <point x="884" y="409"/>
      <point x="822" y="409" type="curve" smooth="yes"/>
      <point x="729" y="409"/>
      <point x="675" y="364"/>
      <point x="672" y="285" type="curve" smooth="yes"/>
      <point x="671" y="256"/>
      <point x="670" y="218"/>
      <point x="668" y="203" type="curve" smooth="yes"/>
      <point x="657" y="125"/>
      <point x="597" y="95"/>
      <point x="467" y="76" type="curve"/>
      <point x="458" y="-4" type="line"/>
      <point x="540" y="57"/>
      <point x="573" y="126"/>
      <point x="573" y="194" type="curve" smooth="yes"/>
      <point x="573" y="291"/>
      <point x="497" y="344"/>
      <point x="400" y="345" type="curve" smooth="yes"/>
      <point x="379" y="345"/>
      <point x="357" y="342"/>
      <point x="335" y="337" type="curve"/>
      <point x="371" y="259" type="line"/>
      <point x="458" y="290"/>
      <point x="508" y="364"/>
      <point x="508" y="440" type="curve" smooth="yes"/>
      <point x="508" y="555"/>
      <point x="413" y="630"/>
      <point x="279" y="630" type="curve" smooth="yes"/>
      <point x="140" y="630"/>
      <point x="46" y="550"/>
      <point x="46" y="430" type="curve" smooth="yes"/>
      <point x="46" y="376"/>
      <point x="67" y="318"/>
      <point x="119" y="271" type="curve"/>
      <point x="225" y="350" type="line"/>
      <point x="202" y="371"/>
      <point x="188" y="401"/>
      <point x="188" y="433" type="curve" smooth="yes"/>
      <point x="188" y="485"/>
      <point x="224" y="516"/>
      <point x="277" y="516" type="curve" smooth="yes"/>
      <point x="332" y="516"/>
      <point x="364" y="478"/>
      <point x="364" y="431" type="curve" smooth="yes"/>
      <point x="364" y="383"/>
      <point x="333" y="343"/>
      <point x="275" y="323" type="curve"/>
      <point x="302" y="242" type="line"/>
      <point x="318" y="248"/>
      <point x="335" y="252"/>
      <point x="351" y="252" type="curve" smooth="yes"/>
      <point x="394" y="252"/>
      <point x="432" y="226"/>
      <point x="432" y="170" type="curve" smooth="yes"/>
      <point x="432" y="118"/>
      <point x="412" y="79"/>
      <point x="361" y="15" type="curve"/>
      <point x="385" y="-54" type="line"/>
      <point x="681" y="-4"/>
      <point x="771" y="49"/>
      <point x="777" y="210" type="curve" smooth="yes"/>
      <point x="778" y="242"/>
      <point x="777" y="274"/>
      <point x="778" y="298" type="curve" smooth="yes"/>
      <point x="779" y="327"/>
      <point x="796" y="345"/>
      <point x="820" y="345" type="curve" smooth="yes"/>
      <point x="840" y="345"/>
      <point x="854" y="334"/>
      <point x="854" y="315" type="curve" smooth="yes"/>
      <point x="854" y="297"/>
      <point x="842" y="283"/>
      <point x="819" y="283" type="curve" smooth="yes"/>
      <point x="787" y="283"/>
      <point x="761" y="322"/>
      <point x="761" y="402" type="curve" smooth="yes"/>
      <point x="761" y="478"/>
      <point x="815" y="516"/>
      <point x="897" y="516" type="curve" smooth="yes"/>
      <point x="971" y="516"/>
      <point x="1030" y="478"/>
      <point x="1030" y="393" type="curve" smooth="yes"/>
      <point x="1030" y="337"/>
      <point x="1004" y="284"/>
      <point x="933" y="239" type="curve" smooth="yes"/>
      <point x="883" y="207" type="line" smooth="yes"/>
      <point x="840" y="180"/>
      <point x="834" y="161"/>
      <point x="834" y="114" type="curve" smooth="yes"/>
      <point x="834" y="-314" type="line"/>
      <point x="983" y="-314" type="line"/>
      <point x="983" y="96" type="line" smooth="yes"/>
      <point x="983" y="129"/>
      <point x="989" y="136"/>
      <point x="1018" y="156" type="curve" smooth="yes"/>
      <point x="1060" y="184" type="line" smooth="yes"/>
      <point x="1135" y="234"/>
      <point x="1174" y="308"/>
    </contour>
  </outline>
</glyph>
<glyph name="ngSignFinal_cham" format="2">
  <unicode hex="AA43"/>
  <note>
uniAA43
</note>
  <outline>
    <contour>
      <point x="-42" y="887" type="line"/>
      <point x="-76" y="960" type="line"/>
      <point x="-448" y="797" type="line"/>
      <point x="-397" y="698" type="line"/>
    </contour>
  </outline>
</glyph>
<glyph name="chFinal_cham" format="2">
  <advance width="1100"/>
  <unicode hex="AA44"/>
  <note>
uniAA44
</note>
  <outline>
    <contour>
      <point x="1029" y="342" type="curve" smooth="yes"/>
      <point x="1029" y="519"/>
      <point x="939" y="630"/>
      <point x="790" y="630" type="curve" smooth="yes"/>
      <point x="691" y="630"/>
      <point x="614" y="585"/>
      <point x="592" y="474" type="curve" smooth="yes"/>
      <point x="570" y="362"/>
      <point x="527" y="348"/>
      <point x="422" y="336" type="curve" smooth="yes"/>
      <point x="263" y="318"/>
      <point x="151" y="248"/>
      <point x="151" y="131" type="curve" smooth="yes"/>
      <point x="151" y="33"/>
      <point x="217" y="-24"/>
      <point x="314" y="-24" type="curve" smooth="yes"/>
      <point x="449" y="-24"/>
      <point x="542" y="102"/>
      <point x="542" y="292" type="curve" smooth="yes"/>
      <point x="542" y="507"/>
      <point x="436" y="630"/>
      <point x="272" y="630" type="curve" smooth="yes"/>
      <point x="141" y="630"/>
      <point x="58" y="558"/>
      <point x="58" y="456" type="curve" smooth="yes"/>
      <point x="58" y="389"/>
      <point x="89" y="337"/>
      <point x="130" y="306" type="curve"/>
      <point x="221" y="382" type="line"/>
      <point x="208" y="394"/>
      <point x="195" y="416"/>
      <point x="195" y="445" type="curve" smooth="yes"/>
      <point x="195" y="492"/>
      <point x="230" y="516"/>
      <point x="275" y="516" type="curve" smooth="yes"/>
      <point x="353" y="516"/>
      <point x="401" y="443"/>
      <point x="401" y="299" type="curve" smooth="yes"/>
      <point x="401" y="165"/>
      <point x="364" y="86"/>
      <point x="316" y="86" type="curve" smooth="yes"/>
      <point x="290" y="86"/>
      <point x="277" y="107"/>
      <point x="277" y="136" type="curve" smooth="yes"/>
      <point x="277" y="182"/>
      <point x="315" y="228"/>
      <point x="482" y="255" type="curve" smooth="yes"/>
      <point x="623" y="278"/>
      <point x="675" y="309"/>
      <point x="694" y="416" type="curve" smooth="yes"/>
      <point x="706" y="482"/>
      <point x="728" y="516"/>
      <point x="783" y="516" type="curve" smooth="yes"/>
      <point x="849" y="516"/>
      <point x="885" y="453"/>
      <point x="885" y="343" type="curve" smooth="yes"/>
      <point x="885" y="199"/>
      <point x="809" y="59"/>
      <point x="689" y="-37" type="curve"/>
      <point x="791" y="-130" type="line"/>
      <point x="936" y="-13"/>
      <point x="1029" y="167"/>
    </contour>
  </outline>
</glyph>
<glyph name="tFinal_cham" format="2">
  <advance width="967"/>
  <unicode hex="AA45"/>
  <note>
uniAA45
</note>
  <outline>
    <contour>
      <point x="896" y="342" type="curve" smooth="yes"/>
      <point x="896" y="519"/>
      <point x="809" y="630"/>
      <point x="665" y="630" type="curve" smooth="yes"/>
      <point x="535" y="630"/>
      <point x="443" y="544"/>
      <point x="443" y="404" type="curve"/>
      <point x="530" y="404" type="line"/>
      <point x="530" y="543"/>
      <point x="447" y="630"/>
      <point x="320" y="630" type="curve" smooth="yes"/>
      <point x="168" y="630"/>
      <point x="71" y="512"/>
      <point x="71" y="321" type="curve" smooth="yes"/>
      <point x="71" y="107"/>
      <point x="179" y="-24"/>
      <point x="341" y="-24" type="curve" smooth="yes"/>
      <point x="462" y="-24"/>
      <point x="534" y="48"/>
      <point x="534" y="149" type="curve" smooth="yes"/>
      <point x="534" y="257"/>
      <point x="451" y="323"/>
      <point x="345" y="323" type="curve" smooth="yes"/>
      <point x="261" y="323"/>
      <point x="193" y="281"/>
      <point x="147" y="210" type="curve"/>
      <point x="208" y="136" type="line"/>
      <point x="234" y="199"/>
      <point x="279" y="230"/>
      <point x="336" y="230" type="curve" smooth="yes"/>
      <point x="380" y="230"/>
      <point x="419" y="207"/>
      <point x="419" y="147" type="curve" smooth="yes"/>
      <point x="419" y="100"/>
      <point x="390" y="69"/>
      <point x="342" y="69" type="curve" smooth="yes"/>
      <point x="261" y="69"/>
      <point x="215" y="157"/>
      <point x="215" y="325" type="curve" smooth="yes"/>
      <point x="215" y="445"/>
      <point x="261" y="516"/>
      <point x="335" y="516" type="curve" smooth="yes"/>
      <point x="391" y="516"/>
      <point x="430" y="475"/>
      <point x="426" y="386" type="curve"/>
      <point x="548" y="386" type="line"/>
      <point x="544" y="480"/>
      <point x="592" y="516"/>
      <point x="647" y="516" type="curve" smooth="yes"/>
      <point x="714" y="516"/>
      <point x="752" y="453"/>
      <point x="752" y="343" type="curve" smooth="yes"/>
      <point x="752" y="200"/>
      <point x="677" y="58"/>
      <point x="556" y="-36" type="curve"/>
      <point x="658" y="-129" type="line"/>
      <point x="803" y="-12"/>
      <point x="896" y="167"/>
    </contour>
  </outline>
</glyph>
<glyph name="nFinal_cham" format="2">
  <advance width="1193"/>
  <unicode hex="AA46"/>
  <note>
uniAA46
</note>
  <outline>
    <contour>
      <point x="1122" y="342" type="curve" smooth="yes"/>
      <point x="1122" y="519"/>
      <point x="1035" y="630"/>
      <point x="870" y="630" type="curve" smooth="yes"/>
      <point x="732" y="630"/>
      <point x="647" y="551"/>
      <point x="647" y="439" type="curve" smooth="yes"/>
      <point x="647" y="356"/>
      <point x="686" y="288"/>
      <point x="686" y="218" type="curve" smooth="yes"/>
      <point x="686" y="166"/>
      <point x="658" y="105"/>
      <point x="629" y="82" type="curve"/>
      <point x="676" y="17" type="line"/>
      <point x="707" y="199"/>
      <point x="589" y="345"/>
      <point x="402" y="345" type="curve" smooth="yes"/>
      <point x="264" y="345"/>
      <point x="149" y="261"/>
      <point x="149" y="134" type="curve" smooth="yes"/>
      <point x="149" y="34"/>
      <point x="217" y="-24"/>
      <point x="313" y="-24" type="curve" smooth="yes"/>
      <point x="448" y="-24"/>
      <point x="542" y="101"/>
      <point x="542" y="290" type="curve" smooth="yes"/>
      <point x="542" y="508"/>
      <point x="436" y="630"/>
      <point x="272" y="630" type="curve" smooth="yes"/>
      <point x="141" y="630"/>
      <point x="58" y="558"/>
      <point x="58" y="456" type="curve" smooth="yes"/>
      <point x="58" y="389"/>
      <point x="88" y="337"/>
      <point x="130" y="306" type="curve"/>
      <point x="221" y="382" type="line"/>
      <point x="208" y="394"/>
      <point x="194" y="416"/>
      <point x="194" y="445" type="curve" smooth="yes"/>
      <point x="194" y="492"/>
      <point x="229" y="516"/>
      <point x="275" y="516" type="curve" smooth="yes"/>
      <point x="353" y="516"/>
      <point x="401" y="443"/>
      <point x="401" y="297" type="curve" smooth="yes"/>
      <point x="401" y="163"/>
      <point x="364" y="86"/>
      <point x="315" y="86" type="curve" smooth="yes"/>
      <point x="289" y="86"/>
      <point x="272" y="107"/>
      <point x="272" y="139" type="curve" smooth="yes"/>
      <point x="272" y="195"/>
      <point x="325" y="253"/>
      <point x="421" y="253" type="curve" smooth="yes"/>
      <point x="513" y="253"/>
      <point x="605" y="176"/>
      <point x="598" y="19" type="curve"/>
      <point x="653" y="-24" type="line"/>
      <point x="758" y="30"/>
      <point x="823" y="122"/>
      <point x="823" y="229" type="curve" smooth="yes"/>
      <point x="823" y="323"/>
      <point x="792" y="373"/>
      <point x="792" y="434" type="curve" smooth="yes"/>
      <point x="792" y="485"/>
      <point x="821" y="516"/>
      <point x="872" y="516" type="curve" smooth="yes"/>
      <point x="940" y="516"/>
      <point x="978" y="453"/>
      <point x="978" y="343" type="curve" smooth="yes"/>
      <point x="978" y="199"/>
      <point x="902" y="59"/>
      <point x="782" y="-37" type="curve"/>
      <point x="884" y="-130" type="line"/>
      <point x="1029" y="-13"/>
      <point x="1122" y="167"/>
    </contour>
  </outline>
</glyph>
<glyph name="pFinal_cham" format="2">
  <advance width="1279"/>
  <unicode hex="AA47"/>
  <note>
uniAA47
</note>
  <outline>
    <contour>
      <point x="1208" y="342" type="curve" smooth="yes"/>
      <point x="1208" y="519"/>
      <point x="1122" y="630"/>
      <point x="980" y="630" type="curve" smooth="yes"/>
      <point x="854" y="630"/>
      <point x="766" y="544"/>
      <point x="766" y="405" type="curve"/>
      <point x="851" y="405" type="line"/>
      <point x="851" y="544"/>
      <point x="760" y="630"/>
      <point x="631" y="630" type="curve" smooth="yes"/>
      <point x="510" y="630"/>
      <point x="427" y="552"/>
      <point x="427" y="442" type="curve" smooth="yes"/>
      <point x="427" y="354"/>
      <point x="470" y="293"/>
      <point x="470" y="213" type="curve" smooth="yes"/>
      <point x="470" y="120"/>
      <point x="410" y="71"/>
      <point x="312" y="71" type="curve" smooth="yes"/>
      <point x="219" y="71"/>
      <point x="162" y="117"/>
      <point x="162" y="179" type="curve" smooth="yes"/>
      <point x="162" y="221"/>
      <point x="188" y="250"/>
      <point x="232" y="250" type="curve" smooth="yes"/>
      <point x="276" y="250"/>
      <point x="303" y="218"/>
      <point x="303" y="164" type="curve" smooth="yes"/>
      <point x="303" y="132"/>
      <point x="292" y="92"/>
      <point x="278" y="66" type="curve"/>
      <point x="374" y="66" type="line"/>
      <point x="387" y="89"/>
      <point x="406" y="133"/>
      <point x="406" y="183" type="curve" smooth="yes"/>
      <point x="406" y="282"/>
      <point x="332" y="344"/>
      <point x="227" y="344" type="curve" smooth="yes"/>
      <point x="113" y="344"/>
      <point x="46" y="271"/>
      <point x="46" y="177" type="curve" smooth="yes"/>
      <point x="46" y="58"/>
      <point x="156" y="-24"/>
      <point x="336" y="-24" type="curve" smooth="yes"/>
      <point x="509" y="-24"/>
      <point x="612" y="68"/>
      <point x="612" y="204" type="curve" smooth="yes"/>
      <point x="612" y="301"/>
      <point x="572" y="361"/>
      <point x="572" y="434" type="curve" smooth="yes"/>
      <point x="572" y="481"/>
      <point x="604" y="516"/>
      <point x="656" y="516" type="curve" smooth="yes"/>
      <point x="713" y="516"/>
      <point x="752" y="476"/>
      <point x="748" y="386" type="curve"/>
      <point x="869" y="386" type="line"/>
      <point x="866" y="480"/>
      <point x="911" y="516"/>
      <point x="962" y="516" type="curve" smooth="yes"/>
      <point x="1028" y="516"/>
      <point x="1064" y="453"/>
      <point x="1064" y="343" type="curve" smooth="yes"/>
      <point x="1064" y="199"/>
      <point x="988" y="59"/>
      <point x="868" y="-37" type="curve"/>
      <point x="970" y="-130" type="line"/>
      <point x="1115" y="-13"/>
      <point x="1208" y="167"/>
    </contour>
  </outline>
</glyph>
<glyph name="yFinal_cham" format="2">
  <advance width="1456"/>
  <unicode hex="AA48"/>
  <note>
uniAA48
</note>
  <outline>
    <contour>
      <point x="1385" y="342" type="curve" smooth="yes"/>
      <point x="1385" y="519"/>
      <point x="1298" y="630"/>
      <point x="1153" y="630" type="curve" smooth="yes"/>
      <point x="1023" y="630"/>
      <point x="933" y="544"/>
      <point x="933" y="405" type="curve"/>
      <point x="1019" y="405" type="line"/>
      <point x="1019" y="544"/>
      <point x="928" y="630"/>
      <point x="799" y="630" type="curve" smooth="yes"/>
      <point x="678" y="630"/>
      <point x="595" y="554"/>
      <point x="595" y="440" type="curve" smooth="yes"/>
      <point x="595" y="349"/>
      <point x="635" y="285"/>
      <point x="635" y="233" type="curve" smooth="yes"/>
      <point x="635" y="160"/>
      <point x="572" y="121"/>
      <point x="447" y="89" type="curve"/>
      <point x="444" y="51" type="line"/>
      <point x="493" y="167"/>
      <point x="517" y="283"/>
      <point x="517" y="371" type="curve" smooth="yes"/>
      <point x="517" y="536"/>
      <point x="419" y="630"/>
      <point x="276" y="630" type="curve" smooth="yes"/>
      <point x="139" y="630"/>
      <point x="46" y="551"/>
      <point x="46" y="430" type="curve" smooth="yes"/>
      <point x="46" y="376"/>
      <point x="67" y="318"/>
      <point x="119" y="272" type="curve"/>
      <point x="224" y="351" type="line"/>
      <point x="202" y="372"/>
      <point x="188" y="401"/>
      <point x="188" y="433" type="curve" smooth="yes"/>
      <point x="188" y="485"/>
      <point x="221" y="516"/>
      <point x="273" y="516" type="curve" smooth="yes"/>
      <point x="338" y="516"/>
      <point x="373" y="453"/>
      <point x="373" y="364" type="curve" smooth="yes"/>
      <point x="373" y="261"/>
      <point x="337" y="116"/>
      <point x="283" y="12" type="curve"/>
      <point x="306" y="-54" type="line"/>
      <point x="600" y="-6"/>
      <point x="781" y="78"/>
      <point x="781" y="227" type="curve" smooth="yes"/>
      <point x="781" y="305"/>
      <point x="739" y="366"/>
      <point x="739" y="436" type="curve" smooth="yes"/>
      <point x="739" y="481"/>
      <point x="772" y="516"/>
      <point x="824" y="516" type="curve" smooth="yes"/>
      <point x="880" y="516"/>
      <point x="919" y="476"/>
      <point x="915" y="386" type="curve"/>
      <point x="1036" y="386" type="line"/>
      <point x="1033" y="480"/>
      <point x="1080" y="516"/>
      <point x="1135" y="516" type="curve" smooth="yes"/>
      <point x="1203" y="516"/>
      <point x="1240" y="453"/>
      <point x="1240" y="343" type="curve" smooth="yes"/>
      <point x="1240" y="199"/>
      <point x="1165" y="59"/>
      <point x="1045" y="-37" type="curve"/>
      <point x="1147" y="-130" type="line"/>
      <point x="1292" y="-13"/>
      <point x="1385" y="167"/>
    </contour>
  </outline>
</glyph>
<glyph name="rFinal_cham" format="2">
  <advance width="987"/>
  <unicode hex="AA49"/>
  <note>
uniAA49
</note>
  <outline>
    <contour>
      <point x="916" y="342" type="curve" smooth="yes"/>
      <point x="916" y="519"/>
      <point x="831" y="630"/>
      <point x="658" y="630" type="curve" smooth="yes"/>
      <point x="522" y="630"/>
      <point x="427" y="555"/>
      <point x="427" y="442" type="curve" smooth="yes"/>
      <point x="427" y="354"/>
      <point x="470" y="293"/>
      <point x="470" y="213" type="curve" smooth="yes"/>
      <point x="470" y="120"/>
      <point x="409" y="71"/>
      <point x="312" y="71" type="curve" smooth="yes"/>
      <point x="219" y="71"/>
      <point x="162" y="117"/>
      <point x="162" y="179" type="curve" smooth="yes"/>
      <point x="162" y="221"/>
      <point x="188" y="250"/>
      <point x="231" y="250" type="curve" smooth="yes"/>
      <point x="276" y="250"/>
      <point x="303" y="218"/>
      <point x="303" y="164" type="curve" smooth="yes"/>
      <point x="303" y="132"/>
      <point x="292" y="92"/>
      <point x="278" y="66" type="curve"/>
      <point x="373" y="66" type="line"/>
      <point x="387" y="89"/>
      <point x="405" y="133"/>
      <point x="405" y="183" type="curve" smooth="yes"/>
      <point x="405" y="282"/>
      <point x="331" y="344"/>
      <point x="227" y="344" type="curve" smooth="yes"/>
      <point x="112" y="344"/>
      <point x="46" y="271"/>
      <point x="46" y="177" type="curve" smooth="yes"/>
      <point x="46" y="58"/>
      <point x="155" y="-24"/>
      <point x="336" y="-24" type="curve" smooth="yes"/>
      <point x="509" y="-24"/>
      <point x="612" y="68"/>
      <point x="612" y="204" type="curve" smooth="yes"/>
      <point x="612" y="301"/>
      <point x="572" y="361"/>
      <point x="572" y="430" type="curve" smooth="yes"/>
      <point x="572" y="480"/>
      <point x="604" y="516"/>
      <point x="661" y="516" type="curve" smooth="yes"/>
      <point x="740" y="516"/>
      <point x="772" y="453"/>
      <point x="772" y="343" type="curve" smooth="yes"/>
      <point x="772" y="200"/>
      <point x="696" y="59"/>
      <point x="576" y="-36" type="curve"/>
      <point x="678" y="-130" type="line"/>
      <point x="823" y="-13"/>
      <point x="916" y="167"/>
    </contour>
  </outline>
</glyph>
<glyph name="lFinal_cham" format="2">
  <advance width="975"/>
  <unicode hex="AA4A"/>
  <note>
uniAA4A
</note>
  <outline>
    <contour>
      <point x="904" y="341" type="curve" smooth="yes"/>
      <point x="904" y="520"/>
      <point x="810" y="630"/>
      <point x="687" y="630" type="curve" smooth="yes"/>
      <point x="568" y="630"/>
      <point x="547" y="550"/>
      <point x="488" y="550" type="curve" smooth="yes"/>
      <point x="428" y="550"/>
      <point x="407" y="630"/>
      <point x="288" y="630" type="curve" smooth="yes"/>
      <point x="160" y="630"/>
      <point x="71" y="512"/>
      <point x="71" y="322" type="curve" smooth="yes"/>
      <point x="71" y="106"/>
      <point x="194" y="-25"/>
      <point x="362" y="-25" type="curve" smooth="yes"/>
      <point x="452" y="-25"/>
      <point x="504" y="25"/>
      <point x="504" y="95" type="curve" smooth="yes"/>
      <point x="504" y="168"/>
      <point x="450" y="214"/>
      <point x="374" y="214" type="curve" smooth="yes"/>
      <point x="291" y="214"/>
      <point x="233" y="150"/>
      <point x="222" y="58" type="curve"/>
      <point x="292" y="58" type="line"/>
      <point x="298" y="100"/>
      <point x="324" y="143"/>
      <point x="373" y="143" type="curve" smooth="yes"/>
      <point x="399" y="143"/>
      <point x="424" y="131"/>
      <point x="424" y="96" type="curve" smooth="yes"/>
      <point x="424" y="69"/>
      <point x="406" y="51"/>
      <point x="375" y="51" type="curve" smooth="yes"/>
      <point x="286" y="51"/>
      <point x="215" y="140"/>
      <point x="215" y="323" type="curve" smooth="yes"/>
      <point x="215" y="440"/>
      <point x="260" y="508"/>
      <point x="320" y="508" type="curve" smooth="yes"/>
      <point x="390" y="508"/>
      <point x="408" y="428"/>
      <point x="488" y="428" type="curve" smooth="yes"/>
      <point x="567" y="428"/>
      <point x="585" y="508"/>
      <point x="655" y="508" type="curve" smooth="yes"/>
      <point x="712" y="508"/>
      <point x="759" y="448"/>
      <point x="759" y="343" type="curve" smooth="yes"/>
      <point x="759" y="199"/>
      <point x="684" y="58"/>
      <point x="564" y="-37" type="curve"/>
      <point x="665" y="-129" type="line"/>
      <point x="810" y="-12"/>
      <point x="904" y="166"/>
    </contour>
  </outline>
</glyph>
<glyph name="ssFinal_cham" format="2">
  <advance width="1211"/>
  <unicode hex="AA4B"/>
  <note>
uniAA4B
</note>
  <outline>
    <contour>
      <point x="1140" y="342" type="curve" smooth="yes"/>
      <point x="1140" y="519"/>
      <point x="1052" y="630"/>
      <point x="890" y="630" type="curve" smooth="yes"/>
      <point x="756" y="630"/>
      <point x="669" y="560"/>
      <point x="669" y="461" type="curve" smooth="yes"/>
      <point x="669" y="424"/>
      <point x="682" y="388"/>
      <point x="682" y="364" type="curve" smooth="yes"/>
      <point x="682" y="260"/>
      <point x="534" y="265"/>
      <point x="534" y="135" type="curve" smooth="yes"/>
      <point x="534" y="103"/>
      <point x="541" y="82"/>
      <point x="571" y="57" type="curve"/>
      <point x="561" y="85" type="line"/>
      <point x="556" y="85"/>
      <point x="550" y="85"/>
      <point x="547" y="85" type="curve" smooth="yes"/>
      <point x="503" y="85"/>
      <point x="473" y="131"/>
      <point x="473" y="184" type="curve" smooth="yes"/>
      <point x="473" y="261"/>
      <point x="541" y="329"/>
      <point x="541" y="427" type="curve" smooth="yes"/>
      <point x="541" y="551"/>
      <point x="439" y="630"/>
      <point x="293" y="630" type="curve" smooth="yes"/>
      <point x="140" y="630"/>
      <point x="46" y="541"/>
      <point x="46" y="411" type="curve" smooth="yes"/>
      <point x="46" y="288"/>
      <point x="128" y="223"/>
      <point x="221" y="223" type="curve" smooth="yes"/>
      <point x="286" y="223"/>
      <point x="325" y="259"/>
      <point x="325" y="313" type="curve" smooth="yes"/>
      <point x="325" y="364"/>
      <point x="288" y="397"/>
      <point x="233" y="397" type="curve" smooth="yes"/>
      <point x="143" y="397"/>
      <point x="90" y="305"/>
      <point x="82" y="184" type="curve"/>
      <point x="147" y="180" type="line"/>
      <point x="156" y="266"/>
      <point x="179" y="341"/>
      <point x="230" y="341" type="curve" smooth="yes"/>
      <point x="246" y="341"/>
      <point x="262" y="333"/>
      <point x="262" y="311" type="curve" smooth="yes"/>
      <point x="262" y="298"/>
      <point x="256" y="283"/>
      <point x="232" y="283" type="curve" smooth="yes"/>
      <point x="194" y="283"/>
      <point x="167" y="322"/>
      <point x="167" y="398" type="curve" smooth="yes"/>
      <point x="167" y="475"/>
      <point x="213" y="516"/>
      <point x="288" y="516" type="curve" smooth="yes"/>
      <point x="354" y="516"/>
      <point x="397" y="476"/>
      <point x="397" y="416" type="curve" smooth="yes"/>
      <point x="397" y="341"/>
      <point x="328" y="273"/>
      <point x="328" y="182" type="curve" smooth="yes"/>
      <point x="328" y="66"/>
      <point x="425" y="-24"/>
      <point x="575" y="-24" type="curve" smooth="yes"/>
      <point x="604" y="-24"/>
      <point x="632" y="-24"/>
      <point x="650" y="-21" type="curve"/>
      <point x="683" y="55" type="line"/>
      <point x="660" y="81"/>
      <point x="650" y="96"/>
      <point x="650" y="120" type="curve" smooth="yes"/>
      <point x="650" y="216"/>
      <point x="821" y="206"/>
      <point x="821" y="348" type="curve" smooth="yes"/>
      <point x="821" y="383"/>
      <point x="809" y="412"/>
      <point x="809" y="440" type="curve" smooth="yes"/>
      <point x="809" y="485"/>
      <point x="840" y="516"/>
      <point x="890" y="516" type="curve" smooth="yes"/>
      <point x="958" y="516"/>
      <point x="996" y="453"/>
      <point x="996" y="343" type="curve" smooth="yes"/>
      <point x="996" y="200"/>
      <point x="920" y="59"/>
      <point x="800" y="-36" type="curve"/>
      <point x="901" y="-129" type="line"/>
      <point x="1047" y="-12"/>
      <point x="1140" y="167"/>
    </contour>
  </outline>
</glyph>
<glyph name="mSignFinal_cham" format="2">
  <unicode hex="AA4C"/>
  <note>
uniAA4C
</note>
  <outline>
    <contour>
      <point x="-246" y="744" type="curve" smooth="yes"/>
      <point x="-195" y="744"/>
      <point x="-164" y="775"/>
      <point x="-164" y="825" type="curve" smooth="yes"/>
      <point x="-164" y="876"/>
      <point x="-195" y="907"/>
      <point x="-246" y="907" type="curve" smooth="yes"/>
      <point x="-296" y="907"/>
      <point x="-327" y="876"/>
      <point x="-327" y="825" type="curve" smooth="yes"/>
      <point x="-327" y="775"/>
      <point x="-296" y="744"/>
    </contour>
  </outline>
</glyph>
<glyph name="hSignFinal_cham" format="2">
  <advance width="633"/>
  <unicode hex="AA4D"/>
  <note>
uniAA4D
</note>
  <outline>
    <contour>
      <point x="587" y="401" type="curve" smooth="yes"/>
      <point x="587" y="546"/>
      <point x="472" y="630"/>
      <point x="318" y="630" type="curve" smooth="yes"/>
      <point x="155" y="630"/>
      <point x="46" y="543"/>
      <point x="46" y="411" type="curve" smooth="yes"/>
      <point x="46" y="294"/>
      <point x="121" y="225"/>
      <point x="218" y="225" type="curve" smooth="yes"/>
      <point x="282" y="225"/>
      <point x="324" y="264"/>
      <point x="324" y="316" type="curve" smooth="yes"/>
      <point x="324" y="369"/>
      <point x="286" y="402"/>
      <point x="233" y="402" type="curve" smooth="yes"/>
      <point x="179" y="402"/>
      <point x="138" y="369"/>
      <point x="121" y="321" type="curve"/>
      <point x="168" y="274" type="line"/>
      <point x="174" y="317"/>
      <point x="195" y="346"/>
      <point x="226" y="346" type="curve" smooth="yes"/>
      <point x="243" y="346"/>
      <point x="260" y="336"/>
      <point x="260" y="316" type="curve" smooth="yes"/>
      <point x="260" y="300"/>
      <point x="253" y="285"/>
      <point x="229" y="285" type="curve" smooth="yes"/>
      <point x="192" y="285"/>
      <point x="173" y="322"/>
      <point x="173" y="401" type="curve" smooth="yes"/>
      <point x="173" y="478"/>
      <point x="228" y="516"/>
      <point x="309" y="516" type="curve" smooth="yes"/>
      <point x="384" y="516"/>
      <point x="442" y="478"/>
      <point x="442" y="393" type="curve" smooth="yes"/>
      <point x="442" y="337"/>
      <point x="417" y="285"/>
      <point x="345" y="239" type="curve" smooth="yes"/>
      <point x="297" y="208" type="line" smooth="yes"/>
      <point x="252" y="179"/>
      <point x="248" y="161"/>
      <point x="248" y="114" type="curve" smooth="yes"/>
      <point x="248" y="-314" type="line"/>
      <point x="396" y="-314" type="line"/>
      <point x="396" y="96" type="line" smooth="yes"/>
      <point x="396" y="127"/>
      <point x="399" y="133"/>
      <point x="433" y="157" type="curve" smooth="yes"/>
      <point x="473" y="185" type="line" smooth="yes"/>
      <point x="550" y="239"/>
      <point x="587" y="309"/>
    </contour>
  </outline>
</glyph>
<glyph name="zero_cham" format="2">
  <advance width="680"/>
  <unicode hex="AA50"/>
  <note>
uniAA50
</note>
  <outline>
    <contour>
      <point x="635" y="303" type="curve" smooth="yes"/>
      <point x="635" y="507"/>
      <point x="520" y="630"/>
      <point x="343" y="630" type="curve" smooth="yes"/>
      <point x="157" y="630"/>
      <point x="45" y="511"/>
      <point x="45" y="303" type="curve" smooth="yes"/>
      <point x="45" y="97"/>
      <point x="164" y="-25"/>
      <point x="339" y="-25" type="curve" smooth="yes"/>
      <point x="527" y="-25"/>
      <point x="635" y="98"/>
    </contour>
    <contour>
      <point x="194" y="303" type="curve" smooth="yes"/>
      <point x="194" y="441"/>
      <point x="240" y="516"/>
      <point x="341" y="516" type="curve" smooth="yes"/>
      <point x="447" y="516"/>
      <point x="486" y="437"/>
      <point x="486" y="303" type="curve" smooth="yes"/>
      <point x="486" y="168"/>
      <point x="446" y="89"/>
      <point x="341" y="89" type="curve" smooth="yes"/>
      <point x="237" y="89"/>
      <point x="194" y="168"/>
    </contour>
  </outline>
</glyph>
<glyph name="two_cham" format="2">
  <advance width="1014"/>
  <unicode hex="AA52"/>
  <note>
uniAA52
</note>
  <outline>
    <contour>
      <point x="943" y="308" type="curve" smooth="yes"/>
      <point x="943" y="437" type="line" smooth="yes"/>
      <point x="943" y="556"/>
      <point x="879" y="630"/>
      <point x="782" y="630" type="curve" smooth="yes"/>
      <point x="733" y="630"/>
      <point x="710" y="617"/>
      <point x="681" y="595" type="curve" smooth="yes"/>
      <point x="654" y="575"/>
      <point x="640" y="561"/>
      <point x="614" y="561" type="curve" smooth="yes"/>
      <point x="589" y="561"/>
      <point x="573" y="575"/>
      <point x="546" y="595" type="curve" smooth="yes"/>
      <point x="516" y="617"/>
      <point x="492" y="630"/>
      <point x="448" y="630" type="curve" smooth="yes"/>
      <point x="344" y="630"/>
      <point x="290" y="543"/>
      <point x="290" y="425" type="curve" smooth="yes"/>
      <point x="290" y="270"/>
      <point x="374" y="189"/>
      <point x="491" y="189" type="curve" smooth="yes"/>
      <point x="564" y="189"/>
      <point x="618" y="237"/>
      <point x="618" y="304" type="curve" smooth="yes"/>
      <point x="618" y="373"/>
      <point x="568" y="415"/>
      <point x="497" y="415" type="curve" smooth="yes"/>
      <point x="419" y="415"/>
      <point x="363" y="353"/>
      <point x="353" y="261" type="curve"/>
      <point x="413" y="260" type="line"/>
      <point x="418" y="305"/>
      <point x="445" y="347"/>
      <point x="494" y="347" type="curve" smooth="yes"/>
      <point x="518" y="347"/>
      <point x="541" y="334"/>
      <point x="541" y="300" type="curve" smooth="yes"/>
      <point x="541" y="273"/>
      <point x="523" y="255"/>
      <point x="497" y="255" type="curve" smooth="yes"/>
      <point x="455" y="255"/>
      <point x="427" y="286"/>
      <point x="427" y="393" type="curve" smooth="yes"/>
      <point x="427" y="467"/>
      <point x="449" y="507"/>
      <point x="488" y="507" type="curve" smooth="yes"/>
      <point x="508" y="507"/>
      <point x="523" y="495"/>
      <point x="544" y="479" type="curve" smooth="yes"/>
      <point x="566" y="462"/>
      <point x="586" y="450"/>
      <point x="614" y="450" type="curve" smooth="yes"/>
      <point x="642" y="450"/>
      <point x="662" y="461"/>
      <point x="684" y="479" type="curve" smooth="yes"/>
      <point x="705" y="497"/>
      <point x="720" y="507"/>
      <point x="741" y="507" type="curve" smooth="yes"/>
      <point x="782" y="507"/>
      <point x="801" y="479"/>
      <point x="801" y="421" type="curve" smooth="yes"/>
      <point x="801" y="312" type="line" smooth="yes"/>
      <point x="801" y="165"/>
      <point x="709" y="95"/>
      <point x="515" y="95" type="curve" smooth="yes"/>
      <point x="334" y="95"/>
      <point x="213" y="152"/>
      <point x="213" y="285" type="curve" smooth="yes"/>
      <point x="213" y="661" type="line" smooth="yes"/>
      <point x="213" y="785"/>
      <point x="284" y="836"/>
      <point x="374" y="836" type="curve" smooth="yes"/>
      <point x="472" y="836"/>
      <point x="536" y="773"/>
      <point x="649" y="773" type="curve" smooth="yes"/>
      <point x="750" y="773"/>
      <point x="851" y="823"/>
      <point x="905" y="973" type="curve"/>
      <point x="784" y="1024" type="line"/>
      <point x="745" y="924"/>
      <point x="692" y="897"/>
      <point x="633" y="897" type="curve" smooth="yes"/>
      <point x="545" y="897"/>
      <point x="483" y="960"/>
      <point x="356" y="960" type="curve" smooth="yes"/>
      <point x="190" y="960"/>
      <point x="71" y="857"/>
      <point x="71" y="665" type="curve" smooth="yes"/>
      <point x="71" y="282" type="line" smooth="yes"/>
      <point x="71" y="88"/>
      <point x="240" y="-24"/>
      <point x="514" y="-24" type="curve" smooth="yes"/>
      <point x="795" y="-24"/>
      <point x="943" y="101"/>
    </contour>
  </outline>
</glyph>
<glyph name="four_cham" format="2">
  <advance width="884"/>
  <unicode hex="AA54"/>
  <note>
uniAA54
</note>
  <outline>
    <contour>
      <point x="845" y="649" type="curve"/>
      <point x="738" y="694" type="line"/>
      <point x="699" y="596"/>
      <point x="652" y="567"/>
      <point x="597" y="567" type="curve" smooth="yes"/>
      <point x="506" y="567"/>
      <point x="443" y="630"/>
      <point x="329" y="630" type="curve" smooth="yes"/>
      <point x="171" y="630"/>
      <point x="71" y="505"/>
      <point x="71" y="317" type="curve" smooth="yes"/>
      <point x="71" y="101"/>
      <point x="179" y="-24"/>
      <point x="341" y="-24" type="curve" smooth="yes"/>
      <point x="462" y="-24"/>
      <point x="534" y="48"/>
      <point x="534" y="149" type="curve" smooth="yes"/>
      <point x="534" y="257"/>
      <point x="451" y="323"/>
      <point x="345" y="323" type="curve" smooth="yes"/>
      <point x="263" y="323"/>
      <point x="197" y="283"/>
      <point x="151" y="215" type="curve"/>
      <point x="210" y="141" type="line"/>
      <point x="236" y="200"/>
      <point x="281" y="230"/>
      <point x="336" y="230" type="curve" smooth="yes"/>
      <point x="380" y="230"/>
      <point x="419" y="207"/>
      <point x="419" y="147" type="curve" smooth="yes"/>
      <point x="419" y="100"/>
      <point x="390" y="69"/>
      <point x="342" y="69" type="curve" smooth="yes"/>
      <point x="261" y="69"/>
      <point x="215" y="157"/>
      <point x="215" y="325" type="curve" smooth="yes"/>
      <point x="215" y="446"/>
      <point x="268" y="510"/>
      <point x="356" y="510" type="curve" smooth="yes"/>
      <point x="439" y="510"/>
      <point x="506" y="447"/>
      <point x="619" y="447" type="curve" smooth="yes"/>
      <point x="704" y="447"/>
      <point x="795" y="501"/>
    </contour>
  </outline>
</glyph>
<glyph name="five_cham" format="2">
  <advance width="647"/>
  <unicode hex="AA55"/>
  <note>
uniAA55
</note>
  <outline>
    <contour>
      <point x="586" y="412" type="curve" smooth="yes"/>
      <point x="586" y="545"/>
      <point x="474" y="630"/>
      <point x="319" y="630" type="curve" smooth="yes"/>
      <point x="159" y="630"/>
      <point x="51" y="539"/>
      <point x="51" y="401" type="curve" smooth="yes"/>
      <point x="51" y="348"/>
      <point x="72" y="286"/>
      <point x="118" y="238" type="curve"/>
      <point x="231" y="309" type="line"/>
      <point x="208" y="333"/>
      <point x="192" y="367"/>
      <point x="192" y="404" type="curve" smooth="yes"/>
      <point x="192" y="472"/>
      <point x="244" y="516"/>
      <point x="318" y="516" type="curve" smooth="yes"/>
      <point x="398" y="516"/>
      <point x="442" y="466"/>
      <point x="442" y="401" type="curve" smooth="yes"/>
      <point x="442" y="356"/>
      <point x="421" y="313"/>
      <point x="376" y="288" type="curve"/>
      <point x="376" y="231" type="line"/>
      <point x="433" y="209"/>
      <point x="466" y="173"/>
      <point x="466" y="126" type="curve" smooth="yes"/>
      <point x="466" y="73"/>
      <point x="425" y="43"/>
      <point x="367" y="43" type="curve" smooth="yes"/>
      <point x="296" y="43"/>
      <point x="273" y="58"/>
      <point x="273" y="80" type="curve" smooth="yes"/>
      <point x="273" y="97"/>
      <point x="286" y="107"/>
      <point x="308" y="107" type="curve" smooth="yes"/>
      <point x="340" y="107"/>
      <point x="359" y="86"/>
      <point x="359" y="51" type="curve" smooth="yes"/>
      <point x="359" y="36"/>
      <point x="356" y="19"/>
      <point x="352" y="3" type="curve"/>
      <point x="423" y="13" type="line"/>
      <point x="425" y="25"/>
      <point x="426" y="39"/>
      <point x="426" y="48" type="curve" smooth="yes"/>
      <point x="426" y="109"/>
      <point x="386" y="171"/>
      <point x="304" y="171" type="curve" smooth="yes"/>
      <point x="243" y="171"/>
      <point x="197" y="135"/>
      <point x="197" y="84" type="curve" smooth="yes"/>
      <point x="197" y="16"/>
      <point x="260" y="-25"/>
      <point x="367" y="-25" type="curve" smooth="yes"/>
      <point x="512" y="-25"/>
      <point x="578" y="50"/>
      <point x="578" y="131" type="curve" smooth="yes"/>
      <point x="578" y="187"/>
      <point x="548" y="251"/>
      <point x="447" y="283" type="curve"/>
      <point x="431" y="212" type="line"/>
      <point x="530" y="245"/>
      <point x="586" y="329"/>
    </contour>
  </outline>
</glyph>
